<svg width="330" height="102" viewBox="0 0 330 102" fill="none" xmlns="http://www.w3.org/2000/svg">
<path d="M30.9385 35.3419H296.606C314.794 35.3419 329.54 50.0869 329.54 68.2759V68.2759C329.54 86.4648 314.794 101.21 296.606 101.21H61.6769C44.7005 101.21 30.9385 87.4478 30.9385 70.4715V35.3419Z" fill="url(#paint0_linear_181_3305)"/>
<path d="M84.0659 75.5154V55.8868H87.6492V75.5154H84.0659ZM100.165 75.8315C99.1637 75.8315 98.2942 75.6647 97.5565 75.331C96.8188 74.9972 96.2479 74.523 95.8439 73.9082C95.4399 73.2759 95.238 72.5469 95.238 71.7214C95.238 70.931 95.4136 70.2284 95.7649 69.6136C96.1162 68.9813 96.6607 68.4543 97.3984 68.0328C98.1361 67.6112 99.0671 67.3126 100.191 67.137L104.881 66.3729V69.0076L100.85 69.6927C100.165 69.8156 99.6555 70.0352 99.3218 70.3513C98.988 70.6675 98.8212 71.0803 98.8212 71.5897C98.8212 72.0815 99.0056 72.4767 99.3745 72.7753C99.7609 73.0563 100.235 73.1968 100.797 73.1968C101.517 73.1968 102.15 73.0475 102.694 72.7489C103.256 72.4328 103.687 72.0024 103.985 71.4579C104.301 70.9134 104.459 70.3162 104.459 69.6663V65.9777C104.459 65.3629 104.214 64.8536 103.722 64.4496C103.247 64.028 102.615 63.8172 101.825 63.8172C101.087 63.8172 100.428 64.0192 99.8487 64.4232C99.2866 64.8097 98.8739 65.3278 98.6104 65.9777L95.7912 64.6077C96.0723 63.8524 96.5114 63.2025 97.1086 62.658C97.7234 62.0959 98.4435 61.6568 99.2691 61.3406C100.095 61.0244 100.99 60.8664 101.956 60.8664C103.133 60.8664 104.17 61.0859 105.065 61.525C105.961 61.9466 106.655 62.5438 107.147 63.3167C107.656 64.0719 107.911 64.959 107.911 65.9777V75.5154H104.644V73.0651L105.382 73.0124C105.013 73.6272 104.574 74.1453 104.064 74.5669C103.555 74.9709 102.975 75.287 102.325 75.5154C101.675 75.7262 100.955 75.8315 100.165 75.8315ZM111.101 75.5154V61.1825H114.342V64.5023L113.973 63.949C114.236 62.9127 114.763 62.1398 115.554 61.6304C116.344 61.1211 117.275 60.8664 118.346 60.8664C119.523 60.8664 120.56 61.1737 121.455 61.7885C122.351 62.4033 122.931 63.2113 123.194 64.2125L122.219 64.2915C122.659 63.1498 123.317 62.2979 124.196 61.7358C125.074 61.1562 126.084 60.8664 127.225 60.8664C128.244 60.8664 129.149 61.0947 129.939 61.5514C130.747 62.0081 131.38 62.6492 131.836 63.4747C132.293 64.2827 132.521 65.2224 132.521 66.2939V75.5154H129.07V67.1106C129.07 66.4783 128.956 65.9338 128.727 65.4771C128.499 65.0204 128.183 64.6691 127.779 64.4232C127.375 64.1598 126.883 64.028 126.303 64.028C125.759 64.028 125.276 64.1598 124.854 64.4232C124.433 64.6691 124.108 65.0204 123.879 65.4771C123.651 65.9338 123.537 66.4783 123.537 67.1106V75.5154H120.085V67.1106C120.085 66.4783 119.971 65.9338 119.743 65.4771C119.515 65.0204 119.19 64.6691 118.768 64.4232C118.364 64.1598 117.881 64.028 117.319 64.028C116.774 64.028 116.291 64.1598 115.87 64.4232C115.448 64.6691 115.123 65.0204 114.895 65.4771C114.667 65.9338 114.552 66.4783 114.552 67.1106V75.5154H111.101ZM138.807 75.5154L145.578 55.8868H150.215L156.986 75.5154H153.087L151.69 71.2998H144.102L142.68 75.5154H138.807ZM145.13 68.1382H150.663L147.396 58.3634H148.397L145.13 68.1382ZM163.854 75.5154V55.8868H170.256C172.329 55.8868 174.129 56.3083 175.657 57.1514C177.203 57.977 178.397 59.1275 179.24 60.6029C180.083 62.0608 180.505 63.7558 180.505 65.6879C180.505 67.6025 180.083 69.3062 179.24 70.7992C178.397 72.2747 177.203 73.434 175.657 74.2771C174.129 75.1026 172.329 75.5154 170.256 75.5154H163.854ZM167.437 72.3537H170.335C171.67 72.3537 172.82 72.0815 173.786 71.537C174.77 70.9749 175.534 70.202 176.079 69.2184C176.623 68.2172 176.895 67.0404 176.895 65.6879C176.895 64.3178 176.623 63.141 176.079 62.1574C175.534 61.1737 174.77 60.4097 173.786 59.8652C172.82 59.3207 171.67 59.0484 170.335 59.0484H167.437V72.3537ZM189.864 75.8315C188.389 75.8315 187.098 75.4978 185.991 74.8304C184.885 74.1629 184.024 73.2583 183.409 72.1166C182.795 70.9749 182.487 69.7102 182.487 68.3226C182.487 66.8823 182.795 65.6089 183.409 64.5023C184.042 63.3781 184.894 62.4911 185.965 61.8412C187.054 61.1913 188.266 60.8664 189.601 60.8664C190.725 60.8664 191.709 61.0508 192.552 61.4197C193.412 61.7885 194.141 62.2979 194.739 62.9478C195.336 63.5977 195.792 64.3442 196.109 65.1873C196.425 66.0128 196.583 66.9086 196.583 67.8747C196.583 68.1206 196.565 68.3753 196.53 68.6388C196.513 68.9022 196.469 69.1306 196.398 69.3238H185.333V66.6891H194.449L192.815 67.9274C192.973 67.1194 192.929 66.3993 192.684 65.7669C192.455 65.1346 192.069 64.634 191.524 64.2651C190.997 63.8963 190.356 63.7119 189.601 63.7119C188.881 63.7119 188.24 63.8963 187.678 64.2651C187.115 64.6164 186.685 65.1434 186.387 65.846C186.105 66.531 186 67.3653 186.07 68.349C186 69.2272 186.114 70.0088 186.413 70.6939C186.729 71.3613 187.186 71.8795 187.783 72.2483C188.398 72.6172 189.1 72.8016 189.891 72.8016C190.681 72.8016 191.349 72.6348 191.893 72.301C192.455 71.9673 192.894 71.5194 193.21 70.9573L196.003 72.3274C195.722 73.0124 195.283 73.6184 194.686 74.1453C194.089 74.6723 193.377 75.085 192.552 75.3836C191.744 75.6822 190.848 75.8315 189.864 75.8315ZM204.653 75.8315C203.125 75.8315 201.79 75.4715 200.648 74.7513C199.524 74.0136 198.751 73.0212 198.33 71.7741L200.912 70.5358C201.281 71.3437 201.79 71.9761 202.44 72.4328C203.107 72.8894 203.845 73.1178 204.653 73.1178C205.285 73.1178 205.786 72.9773 206.155 72.6962C206.524 72.4152 206.708 72.0463 206.708 71.5897C206.708 71.3086 206.629 71.0803 206.471 70.9046C206.331 70.7114 206.129 70.5533 205.865 70.4304C205.619 70.2899 205.347 70.1757 205.048 70.0879L202.703 69.4292C201.491 69.0779 200.569 68.5422 199.937 67.822C199.322 67.1019 199.015 66.25 199.015 65.2663C199.015 64.3881 199.234 63.624 199.674 62.9741C200.13 62.3067 200.754 61.7885 201.544 61.4197C202.352 61.0508 203.274 60.8664 204.311 60.8664C205.663 60.8664 206.858 61.1913 207.894 61.8412C208.93 62.4911 209.668 63.4045 210.107 64.5813L207.472 65.8196C207.226 65.1697 206.814 64.6516 206.234 64.2651C205.654 63.8787 205.004 63.6855 204.284 63.6855C203.705 63.6855 203.248 63.8172 202.914 64.0807C202.58 64.3442 202.414 64.6867 202.414 65.1083C202.414 65.3717 202.484 65.6001 202.624 65.7933C202.765 65.9865 202.958 66.1446 203.204 66.2675C203.468 66.3905 203.766 66.5047 204.1 66.61L206.392 67.2951C207.569 67.6464 208.473 68.1733 209.106 68.8759C209.756 69.5785 210.081 70.4392 210.081 71.4579C210.081 72.3186 209.852 73.0827 209.396 73.7501C208.939 74.4 208.307 74.9094 207.499 75.2783C206.691 75.6471 205.742 75.8315 204.653 75.8315ZM212.733 75.5154V61.1825H216.185V75.5154H212.733ZM212.733 59.5754V55.8868H216.185V59.5754H212.733ZM226.327 81.3118C225.256 81.3118 224.263 81.1361 223.35 80.7848C222.436 80.4335 221.646 79.9417 220.978 79.3094C220.329 78.6946 219.854 77.9657 219.556 77.1226L222.77 75.9106C222.981 76.578 223.394 77.1138 224.008 77.5178C224.641 77.9393 225.414 78.1501 226.327 78.1501C227.03 78.1501 227.644 78.0184 228.171 77.7549C228.716 77.4914 229.137 77.105 229.436 76.5956C229.735 76.1038 229.884 75.5066 229.884 74.804V71.537L230.542 72.3274C230.051 73.188 229.392 73.8379 228.566 74.2771C227.741 74.7162 226.801 74.9357 225.747 74.9357C224.412 74.9357 223.218 74.6284 222.164 74.0136C221.11 73.3988 220.285 72.5557 219.687 71.4843C219.09 70.4128 218.792 69.2096 218.792 67.8747C218.792 66.5222 219.09 65.319 219.687 64.2651C220.285 63.2113 221.101 62.3857 222.138 61.7885C223.174 61.1737 224.351 60.8664 225.668 60.8664C226.74 60.8664 227.679 61.0947 228.487 61.5514C229.313 61.9905 229.998 62.6316 230.542 63.4747L230.068 64.3442V61.1825H233.335V74.804C233.335 76.0511 233.028 77.1665 232.413 78.1501C231.816 79.1337 230.99 79.9066 229.937 80.4686C228.9 81.0307 227.697 81.3118 226.327 81.3118ZM226.169 71.7477C226.907 71.7477 227.548 71.5897 228.092 71.2735C228.654 70.9398 229.093 70.4831 229.41 69.9034C229.726 69.3238 229.884 68.6563 229.884 67.9011C229.884 67.1633 229.717 66.5047 229.383 65.925C229.067 65.3278 228.628 64.8623 228.066 64.5286C227.521 64.1949 226.889 64.028 226.169 64.028C225.449 64.028 224.799 64.1949 224.219 64.5286C223.64 64.8623 223.183 65.3278 222.849 65.925C222.533 66.5047 222.375 67.1633 222.375 67.9011C222.375 68.6388 222.533 69.2975 222.849 69.8771C223.183 70.4567 223.631 70.9134 224.193 71.2471C224.772 71.5809 225.431 71.7477 226.169 71.7477ZM236.559 75.5154V61.1825H239.799V64.0017L239.536 63.5011C239.87 62.6404 240.414 61.9905 241.169 61.5514C241.942 61.0947 242.838 60.8664 243.857 60.8664C244.911 60.8664 245.842 61.0947 246.65 61.5514C247.475 62.0081 248.116 62.6492 248.573 63.4747C249.03 64.2827 249.258 65.2224 249.258 66.2939V75.5154H245.807V67.1106C245.807 66.4783 245.684 65.9338 245.438 65.4771C245.192 65.0204 244.849 64.6691 244.41 64.4232C243.989 64.1598 243.488 64.028 242.908 64.028C242.346 64.028 241.846 64.1598 241.407 64.4232C240.967 64.6691 240.625 65.0204 240.379 65.4771C240.133 65.9338 240.01 66.4783 240.01 67.1106V75.5154H236.559ZM258.974 75.8315C257.499 75.8315 256.208 75.4978 255.101 74.8304C253.995 74.1629 253.134 73.2583 252.519 72.1166C251.904 70.9749 251.597 69.7102 251.597 68.3226C251.597 66.8823 251.904 65.6089 252.519 64.5023C253.151 63.3781 254.003 62.4911 255.075 61.8412C256.164 61.1913 257.376 60.8664 258.711 60.8664C259.835 60.8664 260.818 61.0508 261.662 61.4197C262.522 61.7885 263.251 62.2979 263.848 62.9478C264.446 63.5977 264.902 64.3442 265.218 65.1873C265.535 66.0128 265.693 66.9086 265.693 67.8747C265.693 68.1206 265.675 68.3753 265.64 68.6388C265.622 68.9022 265.579 69.1306 265.508 69.3238H254.442V66.6891H263.559L261.925 67.9274C262.083 67.1194 262.039 66.3993 261.793 65.7669C261.565 65.1346 261.179 64.634 260.634 64.2651C260.107 63.8963 259.466 63.7119 258.711 63.7119C257.991 63.7119 257.349 63.8963 256.787 64.2651C256.225 64.6164 255.795 65.1434 255.496 65.846C255.215 66.531 255.11 67.3653 255.18 68.349C255.11 69.2272 255.224 70.0088 255.523 70.6939C255.839 71.3613 256.296 71.8795 256.893 72.2483C257.508 72.6172 258.21 72.8016 259.001 72.8016C259.791 72.8016 260.458 72.6348 261.003 72.301C261.565 71.9673 262.004 71.5194 262.32 70.9573L265.113 72.3274C264.832 73.0124 264.393 73.6184 263.796 74.1453C263.198 74.6723 262.487 75.085 261.662 75.3836C260.854 75.6822 259.958 75.8315 258.974 75.8315ZM268.309 75.5154V61.1825H271.55V64.3705L271.286 63.8963C271.62 62.8248 272.138 62.0783 272.841 61.6568C273.561 61.2352 274.422 61.0244 275.423 61.0244H276.266V64.0807H275.028C274.044 64.0807 273.254 64.3881 272.656 65.0029C272.059 65.6001 271.761 66.4432 271.761 67.5322V75.5154H268.309Z" fill="white"/>
<line x1="277.502" y1="52.9066" x2="277.502" y2="79.2538" stroke="white" stroke-width="1.31736"/>
<path d="M14.6647 35.8048L3.22774 3.80809C3.19233 3.70902 3.2978 3.6185 3.39035 3.66854L32.5626 19.4418C32.6531 19.4907 32.6373 19.6255 32.5385 19.6544C23.3904 22.3347 17.1914 28.0721 14.8861 35.7974C14.8541 35.9045 14.7023 35.91 14.6647 35.8048Z" fill="#789EFF" stroke="#789EFF" stroke-width="3.82453"/>
<defs>
<linearGradient id="paint0_linear_181_3305" x1="-142.37" y1="112.781" x2="403.774" y2="49.1991" gradientUnits="userSpaceOnUse">
<stop stop-color="#7BC0FF"/>
<stop offset="1" stop-color="#725CFF"/>
</linearGradient>
</defs>
</svg>
