<svg width="1438" height="1438" viewBox="0 0 1438 1438" fill="none" xmlns="http://www.w3.org/2000/svg">
<g clip-path="url(#clip0_51_1502)">
<line x1="-2" y1="1278" x2="1438" y2="1278" stroke="white"/>
<line x1="-2" y1="1117" x2="1438" y2="1117" stroke="white"/>
<line x1="-2" y1="956" x2="1438" y2="956" stroke="white"/>
<line x1="-2" y1="795" x2="1438" y2="795" stroke="white"/>
<line x1="-2" y1="634" x2="1438" y2="634" stroke="white"/>
<line x1="-2" y1="473" x2="1438" y2="473" stroke="white"/>
<line x1="-2" y1="312" x2="1438" y2="312" stroke="white"/>
<line x1="-2" y1="151" x2="1438" y2="151" stroke="white"/>
<line x1="160" x2="160" y2="1440" stroke="white"/>
<line x1="321" x2="321" y2="1440" stroke="white"/>
<line x1="482" x2="482" y2="1440" stroke="white"/>
<line x1="643" x2="643" y2="1440" stroke="white"/>
<line x1="804" x2="804" y2="1440" stroke="white"/>
<line x1="965" x2="965" y2="1440" stroke="white"/>
<line x1="1126" x2="1126" y2="1440" stroke="white"/>
<line x1="1287" x2="1287" y2="1440" stroke="white"/>
</g>
<defs>
<clipPath id="clip0_51_1502">
<rect width="1438" height="1438" fill="white"/>
</clipPath>
</defs>
</svg>
