<svg width="803" height="386" viewBox="0 0 803 386" fill="none" xmlns="http://www.w3.org/2000/svg">
<g filter="url(#filter0_b_156_3040)">
<path d="M0 36C0 16.1177 16.1178 0 36 0H693C712.882 0 729 16.1178 729 36V386H0V36Z" fill="url(#paint0_linear_156_3040)" fill-opacity="0.1"/>
<rect x="46" y="38" width="233" height="79" rx="15" fill="#E4E4E4" fill-opacity="0.1"/>
<rect x="304" y="38" width="394" height="180" rx="15" fill="#E4E4E4" fill-opacity="0.1"/>
<rect x="46" y="138" width="233" height="29" rx="14.5" fill="#E4E4E4" fill-opacity="0.1"/>
<rect x="46" y="189" width="233" height="29" rx="14.5" fill="#E4E4E4" fill-opacity="0.1"/>
<rect x="46" y="236" width="652" height="89" rx="15" fill="#E4E4E4" fill-opacity="0.1"/>
</g>
<g filter="url(#filter1_b_156_3040)">
<path d="M169 115C169 95.1178 185.118 79 205 79H767C786.882 79 803 95.1178 803 115V386H169V115Z" fill="url(#paint1_linear_156_3040)" fill-opacity="0.02"/>
<rect x="207" y="123" width="394" height="228" rx="15" fill="#E4E4E4" fill-opacity="0.07"/>
<rect x="630" y="123" width="134" height="79" rx="15" fill="#E4E4E4" fill-opacity="0.07"/>
<rect x="630" y="224" width="134" height="127" rx="15" fill="#E4E4E4" fill-opacity="0.07"/>
</g>
<rect width="803" height="275" transform="translate(0 111)" fill="url(#paint2_linear_156_3040)"/>
<defs>
<filter id="filter0_b_156_3040" x="-113.4" y="-113.4" width="955.8" height="612.8" filterUnits="userSpaceOnUse" color-interpolation-filters="sRGB">
<feFlood flood-opacity="0" result="BackgroundImageFix"/>
<feGaussianBlur in="BackgroundImageFix" stdDeviation="56.7"/>
<feComposite in2="SourceAlpha" operator="in" result="effect1_backgroundBlur_156_3040"/>
<feBlend mode="normal" in="SourceGraphic" in2="effect1_backgroundBlur_156_3040" result="shape"/>
</filter>
<filter id="filter1_b_156_3040" x="64.5" y="-25.5" width="843" height="516" filterUnits="userSpaceOnUse" color-interpolation-filters="sRGB">
<feFlood flood-opacity="0" result="BackgroundImageFix"/>
<feGaussianBlur in="BackgroundImageFix" stdDeviation="52.25"/>
<feComposite in2="SourceAlpha" operator="in" result="effect1_backgroundBlur_156_3040"/>
<feBlend mode="normal" in="SourceGraphic" in2="effect1_backgroundBlur_156_3040" result="shape"/>
</filter>
<linearGradient id="paint0_linear_156_3040" x1="22.0395" y1="-264.539" x2="640.085" y2="254.454" gradientUnits="userSpaceOnUse">
<stop stop-color="#D6D6D6"/>
<stop offset="1" stop-color="#E4E4E4" stop-opacity="0.45"/>
</linearGradient>
<linearGradient id="paint1_linear_156_3040" x1="188.167" y1="-131.397" x2="685.429" y2="325.203" gradientUnits="userSpaceOnUse">
<stop stop-color="#D6D6D6"/>
<stop offset="1" stop-color="#E4E4E4" stop-opacity="0.45"/>
</linearGradient>
<linearGradient id="paint2_linear_156_3040" x1="401.5" y1="0" x2="401.5" y2="275" gradientUnits="userSpaceOnUse">
<stop stop-opacity="0"/>
<stop offset="1" stop-color="#121212"/>
</linearGradient>
</defs>
</svg>
