<svg width="800" height="800" viewBox="0 0 800 800" fill="none" xmlns="http://www.w3.org/2000/svg">
<path d="M399.992 0.0390625C179.449 0.0390625 0 179.399 0 399.999C0 620.512 179.449 799.961 399.992 799.961C620.562 799.961 800 620.512 800 399.999C800 179.399 620.562 0.0390625 399.992 0.0390625ZM399.992 710.851C228.564 710.851 89.1117 571.406 89.1117 400.001C89.1117 228.522 228.564 89.0789 399.992 89.0789C571.441 89.0789 710.893 228.524 710.893 400.001C710.891 571.406 571.439 710.851 399.992 710.851Z" fill="#696969"/>
<path d="M531.283 472.454C505.73 516.302 458.216 543.502 407.286 543.502C328.195 543.502 263.771 479.094 263.771 400.001C263.771 320.843 328.195 256.413 407.286 256.413C458.218 256.413 505.73 283.713 531.283 327.474L534.585 333.194H630.986L625.199 317.673C608.425 273.233 578.991 235.448 540.028 208.478C500.967 181.439 455.085 167.094 407.286 167.094C278.88 167.094 174.457 271.606 174.457 400.001C174.457 528.405 278.88 632.819 407.286 632.819C455.085 632.819 500.965 618.522 540.028 591.441C578.991 564.465 608.425 526.693 625.199 482.253L630.986 466.724H534.585L531.283 472.454Z" fill="#696969"/>
</svg>
