<svg width="125" height="132" viewBox="0 0 125 132" fill="none" xmlns="http://www.w3.org/2000/svg">
<g filter="url(#filter0_d_18_3157)">
<ellipse cx="63.0882" cy="113.722" rx="37.7328" ry="8.6471" transform="rotate(-6.07281 63.0882 113.722)" fill="black"/>
</g>
<g filter="url(#filter1_ii_18_3157)">
<path fill-rule="evenodd" clip-rule="evenodd" d="M97.9248 27.2954C88.4347 27.3074 80.7512 35.0105 80.7633 44.5006L80.8032 75.911C80.8152 85.4011 88.5183 93.0846 98.0084 93.0725C107.498 93.0605 115.182 85.3575 115.17 75.8673L115.13 44.4569C115.118 34.9668 107.415 27.2833 97.9248 27.2954ZM94.2086 31.8504C86.7831 31.8598 80.7712 37.887 80.7806 45.3125L80.8195 75.9258C80.829 83.3513 86.8561 89.3632 94.2816 89.3537C101.707 89.3443 107.719 83.3171 107.71 75.8916L107.671 45.2783C107.661 37.8529 101.634 31.841 94.2086 31.8504Z" fill="#474747"/>
</g>
<path fill-rule="evenodd" clip-rule="evenodd" d="M96.7105 14.2725C96.7349 14.0804 96.7372 13.8893 96.717 13.6993C96.1199 8.08704 76.0374 5.62246 51.8613 8.19452C27.6853 10.7666 8.57083 17.4013 9.16792 23.0136C9.18356 23.1606 9.21256 23.3054 9.25466 23.4481L9.2144 23.4523L25.5672 117.715L25.5674 117.715C26.0739 122.463 43.2817 124.526 64.0032 122.321C84.7255 120.116 101.115 114.479 100.609 109.731L100.609 109.728L96.7771 14.2655L96.7105 14.2725Z" fill="#0D0D0D"/>
<path fill-rule="evenodd" clip-rule="evenodd" d="M96.7105 14.2725C96.7349 14.0804 96.7372 13.8893 96.717 13.6993C96.1199 8.08704 76.0374 5.62246 51.8613 8.19452C27.6853 10.7666 8.57083 17.4013 9.16792 23.0136C9.18356 23.1606 9.21256 23.3054 9.25466 23.4481L9.2144 23.4523L25.5672 117.715L25.5674 117.715C26.0739 122.463 43.2817 124.526 64.0032 122.321C84.7255 120.116 101.115 114.479 100.609 109.731L100.609 109.728L96.7771 14.2655L96.7105 14.2725Z" fill="url(#paint0_linear_18_3157)" fill-opacity="0.24"/>
<mask id="mask0_18_3157" style="mask-type:alpha" maskUnits="userSpaceOnUse" x="8" y="5" width="89" height="23">
<ellipse cx="52.7783" cy="16.816" rx="44.0216" ry="10.2193" transform="rotate(-6.07281 52.7783 16.816)" fill="#DEE8EF"/>
</mask>
<g mask="url(#mask0_18_3157)">
<ellipse cx="52.9324" cy="18.265" rx="42.4494" ry="8.6471" transform="rotate(-6.07281 52.9324 18.265)" fill="#A76338"/>
<mask id="mask1_18_3157" style="mask-type:alpha" maskUnits="userSpaceOnUse" x="10" y="8" width="86" height="20">
<ellipse cx="52.9324" cy="18.2649" rx="42.4494" ry="8.6471" transform="rotate(-6.07281 52.9324 18.2649)" fill="#A76338"/>
</mask>
<g mask="url(#mask1_18_3157)">
<g filter="url(#filter2_f_18_3157)">
<ellipse cx="50.3958" cy="20.3029" rx="42.819" ry="8.64898" transform="rotate(-6.31938 50.3958 20.3029)" fill="url(#paint1_linear_18_3157)"/>
</g>
</g>
<g filter="url(#filter3_d_18_3157)">
<path d="M39.0235 19.6983C37.3112 19.5035 32.0076 20.0435 29.5698 20.3378C30.3749 20.1669 33.6956 19.6088 36.2076 19.3509C39.3477 19.0286 38.9429 18.9125 40.5529 17.4239C42.163 15.9353 49.7446 14.2308 58.44 13.0736C67.1355 11.9164 72.1235 12.0978 71.8143 12.454C71.499 12.8172 65.6372 13.7088 62.4883 14.3376C59.6469 14.9049 56.3359 16.2263 52.8806 16.9118C41.9523 19.0798 45.6252 18.359 41.7811 19.0844C43.416 18.9828 47.5956 18.7126 51.2348 18.4449C55.7839 18.1103 61.2421 18.755 62.9588 18.9211C67.2727 19.3385 71.7824 19.4049 71.1048 19.673C70.4272 19.941 61.7022 20.8113 53.9728 21.0753C46.2434 21.3393 41.164 19.9418 39.0235 19.6983Z" fill="white"/>
<path d="M73.7193 17.6594C70.401 17.7727 61.4897 17.4777 58.9402 17.5474C57.1823 17.5955 44.1163 18.8334 40.7776 19.2131C43.6719 18.7866 58.2026 17.0576 60.5414 16.3652C63.9632 15.3524 63.576 14.6234 71.1979 13.3117C78.8198 12 84.4403 12.1919 83.8299 13.1147C83.1215 14.1857 75.2017 14.9267 73.4572 15.1057C71.3638 15.3206 64.064 16.3345 66.1573 16.1197L77.6708 14.9379C80.4642 14.6733 85.9383 14.4202 85.4876 15.5251C84.9242 16.9063 77.584 17.5274 73.7193 17.6594Z" fill="white"/>
<path d="M36.4027 17.8098C35.4873 18.2116 29.6802 20.2614 27.4773 20.5537C28.7745 20.597 34.0931 20.4057 34.9137 20.4775C39.2236 20.8546 37.0856 21.4206 47.7541 22.311C56.2889 23.0233 70.4793 20.4417 77.0746 19.4338C84.5303 18.2945 88.6954 17.9234 79.6513 20.493C68.3462 23.705 50.1231 24.7812 43.447 25.0032C39.2306 25.1434 12.7706 24.9752 19.6605 19.9662C26.5503 14.9573 45.9472 11.5765 62.05 10.4532C75.2281 9.53386 76.8985 10.8484 75.5164 11.1226C74.1343 11.3968 70.2225 11.0703 62.1912 11.8285C54.1599 12.5867 45.5519 14.5953 43.1567 15.3044C41.4119 15.8209 38.7643 16.7732 36.4027 17.8098Z" fill="white"/>
</g>
<g filter="url(#filter4_f_18_3157)">
<path d="M85.9553 19.4958C86.139 21.2227 70.7489 18.742 67.7269 19.0635C64.7049 19.385 76.792 15.1023 76.6082 13.3754C76.4245 11.6486 78.7254 9.98805 81.7474 9.66654C99.2772 10.9637 85.7716 17.769 85.9553 19.4958Z" fill="url(#paint2_linear_18_3157)"/>
</g>
<g filter="url(#filter5_f_18_3157)">
<path d="M68.1637 8.78331C73.2733 8.00724 62.0701 15.4015 62.2408 16.5257C62.4116 17.6499 52.9428 14.3678 47.8332 15.1439C42.7236 15.9199 38.443 15.6377 38.2723 14.5134C46.5523 6.71056 63.0542 9.55938 68.1637 8.78331Z" fill="url(#paint3_linear_18_3157)"/>
</g>
<ellipse cx="40.416" cy="16.1959" rx="0.299123" ry="0.0712721" transform="rotate(-6.42347 40.416 16.1959)" fill="#A3683A"/>
<ellipse cx="43.5169" cy="15.9915" rx="0.390121" ry="0.0929545" transform="rotate(-6.42347 43.5169 15.9915)" fill="#A3683A"/>
<ellipse cx="43.4521" cy="16.4278" rx="0.299123" ry="0.0712721" transform="rotate(-6.42347 43.4521 16.4278)" fill="#A3683A"/>
<ellipse cx="47.4767" cy="16.2939" rx="0.390121" ry="0.0929545" transform="rotate(-6.42347 47.4767 16.2939)" fill="#A3683A"/>
<ellipse cx="39.3386" cy="17.3211" rx="0.299123" ry="0.0712721" transform="rotate(-6.42347 39.3386 17.3211)" fill="#A3683A"/>
<ellipse cx="42.1118" cy="17.4589" rx="0.390121" ry="0.0929545" transform="rotate(-6.42347 42.1118 17.4589)" fill="#A3683A"/>
<ellipse cx="36.3343" cy="17.3726" rx="0.299123" ry="0.0712721" transform="rotate(-6.42347 36.3343 17.3726)" fill="#A3683A"/>
<ellipse cx="38.1936" cy="17.526" rx="0.390121" ry="0.0929545" transform="rotate(-6.42347 38.1936 17.526)" fill="#A3683A"/>
<ellipse cx="40.4956" cy="16.9041" rx="0.299123" ry="0.0712721" transform="rotate(-6.42347 40.4956 16.9041)" fill="#A3683A"/>
<ellipse cx="43.6208" cy="16.9151" rx="0.390121" ry="0.0929545" transform="rotate(-6.42347 43.6208 16.9151)" fill="#A3683A"/>
<ellipse cx="44.5614" cy="15.5856" rx="0.299123" ry="0.0712721" transform="rotate(-6.42347 44.5614 15.5856)" fill="#A3683A"/>
<ellipse cx="48.9235" cy="15.1955" rx="0.390121" ry="0.0929545" transform="rotate(-6.42347 48.9235 15.1955)" fill="#A3683A"/>
<ellipse cx="45.2994" cy="16.7936" rx="0.299123" ry="0.0712721" transform="rotate(-6.42347 45.2994 16.7936)" fill="#A3683A"/>
<ellipse cx="49.8859" cy="16.771" rx="0.390121" ry="0.0929545" transform="rotate(-6.42347 49.8859 16.771)" fill="#A3683A"/>
<ellipse opacity="0.82" cx="0.157848" cy="0.263891" rx="0.157848" ry="0.263891" transform="matrix(-0.86877 0.495216 -0.999816 -0.0192036 40.1585 16.5834)" fill="#A3683A"/>
<ellipse opacity="0.82" cx="0.205868" cy="0.344171" rx="0.205868" ry="0.344171" transform="matrix(-0.86877 0.495216 -0.999816 -0.0192036 43.1812 16.497)" fill="#A3683A"/>
<ellipse opacity="0.84" cx="0.294937" cy="0.19509" rx="0.294937" ry="0.19509" transform="matrix(-0.999363 -0.0356839 0.88865 -0.458587 40.9192 16.2108)" fill="#A3683A"/>
<ellipse opacity="0.84" cx="0.384662" cy="0.25444" rx="0.384662" ry="0.25444" transform="matrix(-0.999363 -0.0356839 0.88865 -0.458587 44.1733 16.0107)" fill="#A3683A"/>
<ellipse opacity="0.91" cx="0.0728758" cy="0.298736" rx="0.0728758" ry="0.298736" transform="matrix(0.104203 -0.994556 0.995042 -0.0994595 44.6525 15.5036)" fill="#A3683A"/>
<ellipse opacity="0.91" cx="0.095046" cy="0.389617" rx="0.095046" ry="0.389617" transform="matrix(0.104203 -0.994556 0.995042 -0.0994595 49.0423 15.0885)" fill="#A3683A"/>
<ellipse opacity="0.77" cx="0.288206" cy="0.107199" rx="0.288206" ry="0.107199" transform="matrix(-0.983785 0.179352 -0.835794 -0.549043 50.2011 14.8789)" fill="#A3683A"/>
<ellipse opacity="0.77" cx="0.375883" cy="0.139811" rx="0.375883" ry="0.139811" transform="matrix(-0.983785 0.179352 -0.835794 -0.549043 56.2789 14.2738)" fill="#A3683A"/>
<ellipse opacity="0.8" cx="0.0860384" cy="0.311197" rx="0.0860384" ry="0.311197" transform="matrix(0.601218 0.799085 -0.989421 0.145071 53.4035 14.8053)" fill="#A3683A"/>
<ellipse opacity="0.8" cx="0.112213" cy="0.405868" rx="0.112213" ry="0.405868" transform="matrix(0.601218 0.799085 -0.989421 0.145071 60.4555 14.1779)" fill="#A3683A"/>
<ellipse opacity="0.8" cx="0.15593" cy="0.310519" rx="0.15593" ry="0.310519" transform="matrix(0.823358 -0.567522 0.999979 -0.00642111 60.7515 14.1214)" fill="#A3683A"/>
<ellipse opacity="0.8" cx="0.203367" cy="0.404985" rx="0.203367" ry="0.404985" transform="matrix(0.823358 -0.567522 0.999979 -0.00642111 70.039 13.286)" fill="#A3683A"/>
<ellipse cx="0.149914" cy="0.268477" rx="0.149914" ry="0.268477" transform="matrix(0.85277 -0.522287 0.999962 0.00870281 39.0307 17.2601)" fill="#A3683A"/>
<ellipse cx="0.19552" cy="0.350153" rx="0.19552" ry="0.350153" transform="matrix(0.85277 -0.522287 0.999962 0.00870281 41.7102 17.3793)" fill="#A3683A"/>
<ellipse opacity="0.83" cx="0.129525" cy="0.322427" rx="0.129525" ry="0.322427" transform="matrix(-0.735188 0.677863 -0.999393 0.034839 41.5909 16.8287)" fill="#A3683A"/>
<ellipse opacity="0.83" cx="0.168929" cy="0.420516" rx="0.168929" ry="0.420516" transform="matrix(-0.735188 0.677863 -0.999393 0.034839 45.0493 16.8168)" fill="#A3683A"/>
<ellipse opacity="0.83" cx="0.130088" cy="0.278624" rx="0.130088" ry="0.278624" transform="matrix(-0.912791 -0.408428 0.978429 -0.206584 45.9506 16.3379)" fill="#A3683A"/>
<ellipse opacity="0.83" cx="0.169663" cy="0.363387" rx="0.169663" ry="0.363387" transform="matrix(-0.912791 -0.408428 0.978429 -0.206584 50.7351 16.1766)" fill="#A3683A"/>
<ellipse opacity="0.88" cx="0.114624" cy="0.285334" rx="0.114624" ry="0.285334" transform="matrix(-0.867506 -0.497427 0.982122 -0.188246 50.9045 15.7801)" fill="#A3683A"/>
<ellipse opacity="0.88" cx="0.149495" cy="0.372138" rx="0.149495" ry="0.372138" transform="matrix(-0.867506 -0.497427 0.982122 -0.188246 57.1963 15.4492)" fill="#A3683A"/>
<ellipse opacity="0.82" cx="0.285334" cy="0.114624" rx="0.285334" ry="0.114624" transform="matrix(0.999393 -0.034839 -0.735188 0.677863 55.8587 15.2224)" fill="#A3683A"/>
<ellipse opacity="0.82" cx="0.372138" cy="0.149495" rx="0.372138" ry="0.149495" transform="matrix(0.999393 -0.034839 -0.735188 0.677863 63.6576 14.7216)" fill="#A3683A"/>
<ellipse opacity="0.75" cx="0.259013" cy="0.165731" rx="0.259013" ry="0.165731" transform="matrix(0.967837 -0.251579 0.964983 0.262312 59.0292 14.8654)" fill="#A3683A"/>
<ellipse opacity="0.75" cx="0.337809" cy="0.216149" rx="0.337809" ry="0.216149" transform="matrix(0.967837 -0.251579 0.964983 0.262312 67.7928 14.256)" fill="#A3683A"/>
<ellipse opacity="0.95" cx="0.263891" cy="0.157848" rx="0.263891" ry="0.157848" transform="matrix(-0.970518 0.241029 -0.957132 -0.289651 39.1397 18.2282)" fill="#A3683A"/>
<ellipse opacity="0.95" cx="0.344171" cy="0.205868" rx="0.344171" ry="0.205868" transform="matrix(-0.970518 0.241029 -0.957132 -0.289651 41.8525 18.642)" fill="#A3683A"/>
<ellipse opacity="0.83" cx="0.0873186" cy="0.294838" rx="0.0873186" ry="0.294838" transform="matrix(0.681053 0.732234 -0.98815 0.15349 41.7158 17.9381)" fill="#A3683A"/>
<ellipse opacity="0.83" cx="0.113883" cy="0.384534" rx="0.113883" ry="0.384534" transform="matrix(0.681053 0.732234 -0.98815 0.15349 45.2122 18.2636)" fill="#A3683A"/>
<ellipse opacity="0.75" cx="0.278624" cy="0.130088" rx="0.278624" ry="0.130088" transform="matrix(-0.99987 0.0161382 0.799128 -0.60116 46.0912 17.5888)" fill="#A3683A"/>
<ellipse opacity="0.75" cx="0.363387" cy="0.169663" rx="0.363387" ry="0.169663" transform="matrix(-0.99987 0.0161382 0.799128 -0.60116 50.9187 17.808)" fill="#A3683A"/>
<ellipse opacity="0.88" cx="0.253851" cy="0.173533" rx="0.253851" ry="0.173533" transform="matrix(0.964928 -0.262515 0.971446 0.237259 51.0453 17.031)" fill="#A3683A"/>
<ellipse opacity="0.88" cx="0.331077" cy="0.226326" rx="0.331077" ry="0.226326" transform="matrix(0.964928 -0.262515 0.971446 0.237259 57.3799 17.0806)" fill="#A3683A"/>
<ellipse cx="0.298951" cy="0.0719897" rx="0.298951" ry="0.0719897" transform="matrix(0.992757 -0.12014 0.254793 0.966996 54.8105 16.6074)" fill="#A3683A"/>
<ellipse cx="0.389897" cy="0.0938903" rx="0.389897" ry="0.0938903" transform="matrix(0.992757 -0.12014 0.254793 0.966996 62.2905 16.5281)" fill="#A3683A"/>
<ellipse opacity="0.72" cx="0.145938" cy="0.270659" rx="0.145938" ry="0.270659" transform="matrix(-0.843764 0.536714 -0.999994 -0.00358262 62.0947 15.357)" fill="#A3683A"/>
<ellipse opacity="0.72" cx="0.190335" cy="0.352999" rx="0.190335" ry="0.352999" transform="matrix(-0.843764 0.536714 -0.999994 -0.00358262 71.7907 14.8972)" fill="#A3683A"/>
<ellipse opacity="0.98" cx="0.290749" cy="0.100095" rx="0.290749" ry="0.100095" transform="matrix(-0.985339 0.17061 -0.795712 -0.605675 40.3898 18.6373)" fill="#A3683A"/>
<ellipse opacity="0.98" cx="0.379201" cy="0.130546" rx="0.379201" ry="0.130546" transform="matrix(-0.985339 0.17061 -0.795712 -0.605675 43.4828 19.1756)" fill="#A3683A"/>
<ellipse cx="0.337694" cy="0.140929" rx="0.337694" ry="0.140929" transform="matrix(0.981247 -0.192757 0.880814 0.473463 43.5603 18.2803)" fill="#A3683A"/>
<ellipse cx="0.440427" cy="0.183802" rx="0.440427" ry="0.183802" transform="matrix(0.981247 -0.192757 0.880814 0.473463 47.6179 18.71)" fill="#A3683A"/>
<ellipse opacity="0.91" cx="0.266221" cy="0.153885" rx="0.266221" ry="0.153885" transform="matrix(0.999903 0.0139082 -0.861083 0.508465 47.9518 18.0729)" fill="#A3683A"/>
<ellipse opacity="0.91" cx="0.34721" cy="0.2007" rx="0.34721" ry="0.2007" transform="matrix(0.999903 0.0139082 -0.861083 0.508465 53.3454 18.4395)" fill="#A3683A"/>
<ellipse opacity="0.74" cx="0.274446" cy="0.164162" rx="0.274446" ry="0.164162" transform="matrix(-0.970518 0.241029 -0.957132 -0.289651 52.2637 17.1571)" fill="#A3683A"/>
<ellipse opacity="0.74" cx="0.357938" cy="0.214103" rx="0.357938" ry="0.214103" transform="matrix(-0.970518 0.241029 -0.957132 -0.289651 58.969 17.2451)" fill="#A3683A"/>
<ellipse opacity="0.77" cx="0.0902905" cy="0.293942" rx="0.0902905" ry="0.293942" transform="matrix(-0.541473 0.840718 -0.997834 0.0657812 57.2176 16.5994)" fill="#A3683A"/>
<ellipse opacity="0.77" cx="0.117759" cy="0.383364" rx="0.117759" ry="0.383364" transform="matrix(-0.541473 0.840718 -0.997834 0.0657812 65.4299 16.5177)" fill="#A3683A"/>
<ellipse opacity="0.95" cx="0.240033" cy="0.255473" rx="0.240033" ry="0.255473" transform="matrix(0.935094 -0.3544 0.994331 0.106327 58.6208 16.5848)" fill="#A3683A"/>
<ellipse opacity="0.95" cx="0.313056" cy="0.333193" rx="0.313056" ry="0.333193" transform="matrix(0.935094 -0.3544 0.994331 0.106327 67.2599 16.4987)" fill="#A3683A"/>
<ellipse opacity="0.72" cx="0.290749" cy="0.100095" rx="0.290749" ry="0.100095" transform="matrix(-0.985339 0.17061 -0.795712 -0.605675 37.5423 20.0817)" fill="#A3683A"/>
<ellipse opacity="0.72" cx="0.379201" cy="0.130546" rx="0.379201" ry="0.130546" transform="matrix(-0.985339 0.17061 -0.795712 -0.605675 39.769 21.0593)" fill="#A3683A"/>
<ellipse opacity="0.99" cx="0.149914" cy="0.268477" rx="0.149914" ry="0.268477" transform="matrix(0.947552 0.319602 -0.972996 0.230824 43.1067 19.5985)" fill="#A3683A"/>
<ellipse opacity="0.99" cx="0.19552" cy="0.350153" rx="0.19552" ry="0.350153" transform="matrix(0.947552 0.319602 -0.972996 0.230824 47.0262 20.4292)" fill="#A3683A"/>
<ellipse opacity="0.91" cx="0.345737" cy="0.0877377" rx="0.345737" ry="0.0877377" transform="matrix(0.991175 -0.132562 0.447537 0.894265 46.2296 18.8168)" fill="#A3683A"/>
<ellipse opacity="0.91" cx="0.450917" cy="0.114429" rx="0.450917" ry="0.114429" transform="matrix(0.991175 -0.132562 0.447537 0.894265 51.0992 19.4097)" fill="#A3683A"/>
<ellipse opacity="0.75" cx="0.0756359" cy="0.298049" rx="0.0756359" ry="0.298049" transform="matrix(0.237497 -0.971388 0.995838 -0.0911412 50.0585 18.9593)" fill="#A3683A"/>
<ellipse opacity="0.75" cx="0.0986458" cy="0.388721" rx="0.0986458" ry="0.388721" transform="matrix(0.237497 -0.971388 0.995838 -0.0911412 56.0929 19.5955)" fill="#A3683A"/>
<ellipse opacity="0.7" cx="0.289519" cy="0.103601" rx="0.289519" ry="0.103601" transform="matrix(-0.984575 0.174963 -0.816931 -0.576735 56.7481 17.7759)" fill="#A3683A"/>
<ellipse opacity="0.7" cx="0.377596" cy="0.135118" rx="0.377596" ry="0.135118" transform="matrix(-0.984575 0.174963 -0.816931 -0.576735 64.8177 18.052)" fill="#A3683A"/>
<ellipse opacity="0.84" cx="0.0819413" cy="0.296378" rx="0.0819413" ry="0.296378" transform="matrix(-0.408493 0.912762 -0.99691 0.0785555 58.1353 17.6196)" fill="#A3683A"/>
<ellipse opacity="0.84" cx="0.106869" cy="0.386541" rx="0.106869" ry="0.386541" transform="matrix(-0.408493 0.912762 -0.99691 0.0785555 66.6267 17.8484)" fill="#A3683A"/>
<ellipse opacity="0.92" cx="0.289519" cy="0.103601" rx="0.289519" ry="0.103601" transform="matrix(-0.998831 0.048334 0.668246 -0.743941 36.4304 20.9)" fill="#A3683A"/>
<ellipse opacity="0.92" cx="0.377596" cy="0.135118" rx="0.377596" ry="0.135118" transform="matrix(-0.998831 0.048334 0.668246 -0.743941 38.3188 22.1266)" fill="#A3683A"/>
<ellipse opacity="0.71" cx="0.322427" cy="0.129525" rx="0.322427" ry="0.129525" transform="matrix(0.982122 -0.188246 0.867506 0.497427 43.1998 20.4249)" fill="#A3683A"/>
<ellipse opacity="0.71" cx="0.420516" cy="0.168929" rx="0.420516" ry="0.168929" transform="matrix(0.982122 -0.188246 0.867506 0.497427 47.1476 21.507)" fill="#A3683A"/>
<ellipse opacity="0.76" cx="0.298435" cy="0.0740971" rx="0.298435" ry="0.0740971" transform="matrix(-0.991721 0.128415 -0.387181 -0.922004 48.106 19.4421)" fill="#A3683A"/>
<ellipse opacity="0.76" cx="0.389225" cy="0.0966388" rx="0.389225" ry="0.0966388" transform="matrix(-0.991721 0.128415 -0.387181 -0.922004 53.5464 20.225)" fill="#A3683A"/>
<ellipse opacity="0.71" cx="0.181231" cy="0.248414" rx="0.181231" ry="0.248414" transform="matrix(0.976788 0.214211 -0.961763 0.273882 50.7299 19.5771)" fill="#A3683A"/>
<ellipse opacity="0.71" cx="0.236365" cy="0.323986" rx="0.236365" ry="0.323986" transform="matrix(0.976788 0.214211 -0.961763 0.273882 56.9686 20.4012)" fill="#A3683A"/>
<ellipse opacity="0.83" cx="0.145938" cy="0.270659" rx="0.145938" ry="0.270659" transform="matrix(0.94198 0.33567 -0.974165 0.225839 55.7 19.1608)" fill="#A3683A"/>
<ellipse opacity="0.83" cx="0.190335" cy="0.352999" rx="0.190335" ry="0.352999" transform="matrix(0.94198 0.33567 -0.974165 0.225839 63.4507 19.8585)" fill="#A3683A"/>
<ellipse opacity="0.98" cx="0.149914" cy="0.268477" rx="0.149914" ry="0.268477" transform="matrix(0.85277 -0.522287 0.999962 0.00870281 61.2167 18.2527)" fill="#A3683A"/>
<ellipse opacity="0.98" cx="0.19552" cy="0.350153" rx="0.19552" ry="0.350153" transform="matrix(0.85277 -0.522287 0.999962 0.00870281 70.6457 18.6739)" fill="#A3683A"/>
<ellipse cx="26.0582" cy="19.081" rx="0.180782" ry="0.0419863" transform="rotate(-6.42347 26.0582 19.081)" fill="#A3683A"/>
<ellipse cx="27.9321" cy="18.9551" rx="0.235779" ry="0.0547594" transform="rotate(-6.42347 27.9321 18.9551)" fill="#A3683A"/>
<ellipse cx="27.8922" cy="19.2124" rx="0.180782" ry="0.0419863" transform="rotate(-6.42347 27.8922 19.2124)" fill="#A3683A"/>
<ellipse cx="30.3239" cy="19.1265" rx="0.235779" ry="0.0547594" transform="rotate(-6.42347 30.3239 19.1265)" fill="#A3683A"/>
<ellipse cx="25.4055" cy="19.7457" rx="0.180782" ry="0.0419863" transform="rotate(-6.42347 25.4055 19.7457)" fill="#A3683A"/>
<ellipse cx="27.0808" cy="19.8223" rx="0.235779" ry="0.0547594" transform="rotate(-6.42347 27.0808 19.8223)" fill="#A3683A"/>
<ellipse cx="23.5903" cy="19.7812" rx="0.180782" ry="0.0419863" transform="rotate(-6.42347 23.5903 19.7812)" fill="#A3683A"/>
<ellipse cx="24.7133" cy="19.8684" rx="0.235779" ry="0.0547594" transform="rotate(-6.42347 24.7133 19.8684)" fill="#A3683A"/>
<ellipse cx="26.1052" cy="19.4981" rx="0.180782" ry="0.0419863" transform="rotate(-6.42347 26.1052 19.4981)" fill="#A3683A"/>
<ellipse cx="27.9934" cy="19.4991" rx="0.235779" ry="0.0547594" transform="rotate(-6.42347 27.9934 19.4991)" fill="#A3683A"/>
<ellipse cx="28.564" cy="18.7142" rx="0.180782" ry="0.0419863" transform="rotate(-6.42347 28.564 18.7142)" fill="#A3683A"/>
<ellipse cx="31.2001" cy="18.4768" rx="0.235779" ry="0.0547594" transform="rotate(-6.42347 31.2001 18.4768)" fill="#A3683A"/>
<ellipse cx="29.0076" cy="19.4248" rx="0.180782" ry="0.0419863" transform="rotate(-6.42347 29.0076 19.4248)" fill="#A3683A"/>
<ellipse cx="31.7788" cy="19.4036" rx="0.235779" ry="0.0547594" transform="rotate(-6.42347 31.7788 19.4036)" fill="#A3683A"/>
<ellipse opacity="0.82" cx="0.0955469" cy="0.159533" rx="0.0955469" ry="0.159533" transform="matrix(-0.873292 0.487198 -0.999873 -0.0159219 25.902 19.3096)" fill="#A3683A"/>
<ellipse opacity="0.82" cx="0.124614" cy="0.208066" rx="0.124614" ry="0.208066" transform="matrix(-0.873292 0.487198 -0.999873 -0.0159219 27.7285 19.2536)" fill="#A3683A"/>
<ellipse opacity="0.84" cx="0.178314" cy="0.118074" rx="0.178314" ry="0.118074" transform="matrix(-0.999488 -0.0320027 0.892489 -0.45107 26.3624 19.0887)" fill="#A3683A"/>
<ellipse opacity="0.84" cx="0.232561" cy="0.153994" rx="0.232561" ry="0.153994" transform="matrix(-0.999488 -0.0320027 0.892489 -0.45107 28.3288 18.9653)" fill="#A3683A"/>
<ellipse opacity="0.91" cx="0.042983" cy="0.180547" rx="0.042983" ry="0.180547" transform="matrix(0.109605 -0.993975 0.99501 -0.0997734 28.6191 18.6658)" fill="#A3683A"/>
<ellipse opacity="0.91" cx="0.0560593" cy="0.235473" rx="0.0560593" ry="0.235473" transform="matrix(0.109605 -0.993975 0.99501 -0.0997734 31.272 18.4136)" fill="#A3683A"/>
<ellipse opacity="0.77" cx="0.174198" cy="0.0648452" rx="0.174198" ry="0.0648452" transform="matrix(-0.984092 0.177661 -0.84262 -0.538509 31.9725 18.2881)" fill="#A3683A"/>
<ellipse opacity="0.77" cx="0.227147" cy="0.0836325" rx="0.227147" ry="0.0836325" transform="matrix(-0.984092 0.177661 -0.84262 -0.538509 35.6457 17.9212)" fill="#A3683A"/>
<ellipse opacity="0.8" cx="0.0510275" cy="0.188074" rx="0.0510275" ry="0.188074" transform="matrix(0.610185 0.792259 -0.989544 0.144235 33.9076 18.2392)" fill="#A3683A"/>
<ellipse opacity="0.8" cx="0.0665511" cy="0.245289" rx="0.0665511" ry="0.245289" transform="matrix(0.610185 0.792259 -0.989544 0.144235 38.1693 17.8576)" fill="#A3683A"/>
<ellipse opacity="0.8" cx="0.0943973" cy="0.187704" rx="0.0943973" ry="0.187704" transform="matrix(0.829313 -0.558784 0.999959 -0.00907303 38.3481 17.8238)" fill="#A3683A"/>
<ellipse opacity="0.8" cx="0.122225" cy="0.244694" rx="0.122225" ry="0.244694" transform="matrix(0.829313 -0.558784 0.999959 -0.00907303 43.9609 17.3157)" fill="#A3683A"/>
<ellipse cx="0.0907509" cy="0.162299" rx="0.0907509" ry="0.162299" transform="matrix(0.857817 -0.513955 0.999984 0.00567809 25.2195 19.7103)" fill="#A3683A"/>
<ellipse cx="0.118359" cy="0.211674" rx="0.118359" ry="0.211674" transform="matrix(0.857817 -0.513955 0.999984 0.00567809 26.8381 19.776)" fill="#A3683A"/>
<ellipse opacity="0.83" cx="0.0775955" cy="0.194837" rx="0.0775955" ry="0.194837" transform="matrix(-0.743376 0.668874 -0.999323 0.036783 26.7671 19.4518)" fill="#A3683A"/>
<ellipse opacity="0.83" cx="0.101201" cy="0.254111" rx="0.101201" ry="0.254111" transform="matrix(-0.743376 0.668874 -0.999323 0.036783 28.8565 19.439)" fill="#A3683A"/>
<ellipse opacity="0.83" cx="0.0787501" cy="0.168419" rx="0.0787501" ry="0.168419" transform="matrix(-0.91728 -0.398243 0.978924 -0.204224 29.402 19.1552)" fill="#A3683A"/>
<ellipse opacity="0.83" cx="0.101877" cy="0.219571" rx="0.101877" ry="0.219571" transform="matrix(-0.91728 -0.398243 0.978924 -0.204224 32.293 19.052)" fill="#A3683A"/>
<ellipse opacity="0.88" cx="0.0693642" cy="0.172466" rx="0.0693642" ry="0.172466" transform="matrix(-0.87349 -0.486843 0.982486 -0.186335 32.396 18.8179)" fill="#A3683A"/>
<ellipse opacity="0.88" cx="0.0895588" cy="0.224877" rx="0.0895588" ry="0.224877" transform="matrix(-0.87349 -0.486843 0.982486 -0.186335 36.1979 18.6124)" fill="#A3683A"/>
<ellipse opacity="0.82" cx="0.172466" cy="0.0693642" rx="0.172466" ry="0.0693642" transform="matrix(0.999323 -0.036783 -0.743376 0.668874 35.3901 18.481)" fill="#A3683A"/>
<ellipse opacity="0.82" cx="0.224877" cy="0.0895588" rx="0.224877" ry="0.0895588" transform="matrix(0.999323 -0.036783 -0.743376 0.668874 40.103 18.1727)" fill="#A3683A"/>
<ellipse opacity="0.75" cx="0.156808" cy="0.101195" rx="0.156808" ry="0.101195" transform="matrix(0.968723 -0.248145 0.967226 0.253916 37.3063 18.265)" fill="#A3683A"/>
<ellipse opacity="0.75" cx="0.204229" cy="0.130826" rx="0.204229" ry="0.130826" transform="matrix(0.968723 -0.248145 0.967226 0.253916 42.6021 17.8913)" fill="#A3683A"/>
<ellipse opacity="0.95" cx="0.159533" cy="0.095547" rx="0.159533" ry="0.095547" transform="matrix(-0.971304 0.237843 -0.959758 -0.280828 25.2838 20.2804)" fill="#A3683A"/>
<ellipse opacity="0.95" cx="0.208066" cy="0.124614" rx="0.208066" ry="0.124614" transform="matrix(-0.971304 0.237843 -0.959758 -0.280828 26.922 20.5198)" fill="#A3683A"/>
<ellipse opacity="0.83" cx="0.0519151" cy="0.178184" rx="0.0519151" ry="0.178184" transform="matrix(0.689996 0.723813 -0.988312 0.152443 26.8406 20.1052)" fill="#A3683A"/>
<ellipse opacity="0.83" cx="0.0677087" cy="0.232392" rx="0.0677087" ry="0.232392" transform="matrix(0.689996 0.723813 -0.988312 0.152443 28.9525 20.2911)" fill="#A3683A"/>
<ellipse opacity="0.75" cx="0.168419" cy="0.0787501" rx="0.168419" ry="0.0787501" transform="matrix(-0.999828 0.0185491 0.80577 -0.592229 29.4848 19.8919)" fill="#A3683A"/>
<ellipse opacity="0.75" cx="0.219571" cy="0.101877" rx="0.219571" ry="0.101877" transform="matrix(-0.999828 0.0185491 0.80577 -0.592229 32.4011 20.0128)" fill="#A3683A"/>
<ellipse opacity="0.88" cx="0.153725" cy="0.105838" rx="0.153725" ry="0.105838" transform="matrix(0.965924 -0.258826 0.973359 0.229289 32.4788 19.5549)" fill="#A3683A"/>
<ellipse opacity="0.88" cx="0.200169" cy="0.136971" rx="0.200169" ry="0.136971" transform="matrix(0.965924 -0.258826 0.973359 0.229289 36.3061 19.5732)" fill="#A3683A"/>
<ellipse cx="0.180678" cy="0.0424324" rx="0.180678" ry="0.0424324" transform="matrix(0.992782 -0.119932 0.258387 0.966042 34.7544 19.2988)" fill="#A3683A"/>
<ellipse cx="0.235643" cy="0.0553412" rx="0.235643" ry="0.0553412" transform="matrix(0.992782 -0.119932 0.258387 0.966042 39.2739 19.2395)" fill="#A3683A"/>
<ellipse opacity="0.72" cx="0.0883463" cy="0.163615" rx="0.0883463" ry="0.163615" transform="matrix(-0.849098 0.528236 -1 -0.000683735 39.1575 18.5497)" fill="#A3683A"/>
<ellipse opacity="0.72" cx="0.115223" cy="0.21339" rx="0.115223" ry="0.21339" transform="matrix(-0.849098 0.528236 -1 -0.000683735 45.0167 18.2623)" fill="#A3683A"/>
<ellipse opacity="0.98" cx="0.175706" cy="0.0597699" rx="0.175706" ry="0.0597699" transform="matrix(-0.985593 0.169135 -0.803386 -0.595459 26.0384 20.5197)" fill="#A3683A"/>
<ellipse opacity="0.98" cx="0.229158" cy="0.077953" rx="0.229158" ry="0.077953" transform="matrix(-0.985593 0.169135 -0.803386 -0.595459 27.9061 20.8315)" fill="#A3683A"/>
<ellipse cx="0.204059" cy="0.0844826" rx="0.204059" ry="0.0844826" transform="matrix(0.981642 -0.190735 0.886396 0.462927 27.9545 20.3039)" fill="#A3683A"/>
<ellipse cx="0.266138" cy="0.110184" rx="0.266138" ry="0.110184" transform="matrix(0.981642 -0.190735 0.886396 0.462927 30.4052 20.5502)" fill="#A3683A"/>
<ellipse opacity="0.91" cx="0.160939" cy="0.093152" rx="0.160939" ry="0.093152" transform="matrix(0.999942 0.0107558 -0.86586 0.500287 30.6082 20.1741)" fill="#A3683A"/>
<ellipse opacity="0.91" cx="0.209899" cy="0.121491" rx="0.209899" ry="0.121491" transform="matrix(0.999942 0.0107558 -0.86586 0.500287 33.8662 20.3812)" fill="#A3683A"/>
<ellipse opacity="0.74" cx="0.165915" cy="0.0993688" rx="0.165915" ry="0.0993688" transform="matrix(-0.971304 0.237843 -0.959758 -0.280828 33.2149 19.627)" fill="#A3683A"/>
<ellipse opacity="0.74" cx="0.216389" cy="0.129599" rx="0.216389" ry="0.129599" transform="matrix(-0.971304 0.237843 -0.959758 -0.280828 37.2658 19.6677)" fill="#A3683A"/>
<ellipse opacity="0.77" cx="0.0537453" cy="0.177641" rx="0.0537453" ry="0.177641" transform="matrix(-0.551997 0.833846 -0.997757 0.0669467 36.209 19.29)" fill="#A3683A"/>
<ellipse opacity="0.77" cx="0.0700957" cy="0.231683" rx="0.0700957" ry="0.231683" transform="matrix(-0.551997 0.833846 -0.997757 0.0669467 41.1706 19.2278)" fill="#A3683A"/>
<ellipse opacity="0.95" cx="0.145444" cy="0.154712" rx="0.145444" ry="0.154712" transform="matrix(0.937228 -0.348716 0.994887 0.100998 37.0565 19.2792)" fill="#A3683A"/>
<ellipse opacity="0.95" cx="0.189691" cy="0.201778" rx="0.189691" ry="0.201778" transform="matrix(0.937228 -0.348716 0.994887 0.100998 42.2764 19.2138)" fill="#A3683A"/>
<ellipse opacity="0.72" cx="0.175706" cy="0.0597699" rx="0.175706" ry="0.0597699" transform="matrix(-0.985593 0.169135 -0.803386 -0.595459 24.3154 21.3755)" fill="#A3683A"/>
<ellipse opacity="0.72" cx="0.229158" cy="0.077953" rx="0.229158" ry="0.077953" transform="matrix(-0.985593 0.169135 -0.803386 -0.595459 25.6592 21.9479)" fill="#A3683A"/>
<ellipse opacity="0.99" cx="0.0907509" cy="0.162299" rx="0.0907509" ry="0.162299" transform="matrix(0.95062 0.310356 -0.973689 0.22788 27.6782 21.0814)" fill="#A3683A"/>
<ellipse opacity="0.99" cx="0.118359" cy="0.211674" rx="0.118359" ry="0.211674" transform="matrix(0.95062 0.310356 -0.973689 0.22788 30.045 21.5643)" fill="#A3683A"/>
<ellipse opacity="0.91" cx="0.208952" cy="0.0518472" rx="0.208952" ry="0.0518472" transform="matrix(0.991244 -0.13204 0.455001 0.890491 29.5663 20.6154)" fill="#A3683A"/>
<ellipse opacity="0.91" cx="0.272519" cy="0.0676201" rx="0.272519" ry="0.0676201" transform="matrix(0.991244 -0.13204 0.455001 0.890491 32.5073 20.9565)" fill="#A3683A"/>
<ellipse opacity="0.75" cx="0.0446958" cy="0.180131" rx="0.0446958" ry="0.180131" transform="matrix(0.245613 -0.969368 0.99579 -0.0916656 31.8795 20.6928)" fill="#A3683A"/>
<ellipse opacity="0.75" cx="0.0582932" cy="0.23493" rx="0.0582932" ry="0.23493" transform="matrix(0.245613 -0.969368 0.99579 -0.0916656 35.5242 21.0574)" fill="#A3683A"/>
<ellipse opacity="0.7" cx="0.17496" cy="0.0619197" rx="0.17496" ry="0.0619197" transform="matrix(-0.984855 0.173381 -0.824185 -0.566321 35.9232 19.9841)" fill="#A3683A"/>
<ellipse opacity="0.7" cx="0.228186" cy="0.0807568" rx="0.228186" ry="0.0807568" transform="matrix(-0.984855 0.173381 -0.824185 -0.566321 40.7982 20.1332)" fill="#A3683A"/>
<ellipse opacity="0.84" cx="0.0485976" cy="0.179118" rx="0.0485976" ry="0.179118" transform="matrix(-0.418754 0.9081 -0.996843 0.0793983 36.7615 19.8897)" fill="#A3683A"/>
<ellipse opacity="0.84" cx="0.063382" cy="0.233609" rx="0.063382" ry="0.233609" transform="matrix(-0.418754 0.9081 -0.996843 0.0793983 41.8915 20.0101)" fill="#A3683A"/>
<ellipse opacity="0.92" cx="0.17496" cy="0.0619197" rx="0.17496" ry="0.0619197" transform="matrix(-0.998752 0.0499393 0.677633 -0.7354 23.6423 21.8597)" fill="#A3683A"/>
<ellipse opacity="0.92" cx="0.228186" cy="0.0807568" rx="0.228186" ry="0.0807568" transform="matrix(-0.998752 0.0499393 0.677633 -0.7354 24.7811 22.5792)" fill="#A3683A"/>
<ellipse opacity="0.71" cx="0.194837" cy="0.0775955" rx="0.194837" ry="0.0775955" transform="matrix(0.982486 -0.186335 0.87349 0.486843 27.733 21.5682)" fill="#A3683A"/>
<ellipse opacity="0.71" cx="0.254111" cy="0.101201" rx="0.254111" ry="0.101201" transform="matrix(0.982486 -0.186335 0.87349 0.486843 30.1164 22.1992)" fill="#A3683A"/>
<ellipse opacity="0.76" cx="0.180365" cy="0.0437413" rx="0.180365" ry="0.0437413" transform="matrix(-0.991775 0.127998 -0.393618 -0.919274 30.6989 20.9807)" fill="#A3683A"/>
<ellipse opacity="0.76" cx="0.235236" cy="0.0570483" rx="0.235236" ry="0.0570483" transform="matrix(-0.991775 0.127998 -0.393618 -0.919274 33.9846 21.4329)" fill="#A3683A"/>
<ellipse opacity="0.71" cx="0.109993" cy="0.150311" rx="0.109993" ry="0.150311" transform="matrix(0.978414 0.206656 -0.96288 0.269931 32.2841 21.0559)" fill="#A3683A"/>
<ellipse opacity="0.71" cx="0.143032" cy="0.195892" rx="0.143032" ry="0.195892" transform="matrix(0.978414 0.206656 -0.96288 0.269931 36.0519 21.5309)" fill="#A3683A"/>
<ellipse opacity="0.83" cx="0.0883463" cy="0.163615" rx="0.0883463" ry="0.163615" transform="matrix(0.945294 0.326218 -0.974815 0.223014 35.2876 20.802)" fill="#A3683A"/>
<ellipse opacity="0.83" cx="0.115223" cy="0.21339" rx="0.115223" ry="0.21339" transform="matrix(0.945294 0.326218 -0.974815 0.223014 39.9693 21.2)" fill="#A3683A"/>
<ellipse opacity="0.98" cx="0.0907509" cy="0.162299" rx="0.0907509" ry="0.162299" transform="matrix(0.857817 -0.513955 0.999984 0.00567809 38.6221 20.2578)" fill="#A3683A"/>
<ellipse opacity="0.98" cx="0.118359" cy="0.211674" rx="0.118359" ry="0.211674" transform="matrix(0.857817 -0.513955 0.999984 0.00567809 44.3183 20.4897)" fill="#A3683A"/>
</g>
<path d="M95.9376 13.8055C95.9864 14.2636 95.8439 14.7931 95.4065 15.4104C94.9652 16.0331 94.2519 16.7021 93.2511 17.3985C91.2503 18.7909 88.2381 20.1987 84.4048 21.5293C76.7503 24.1862 65.9894 26.4781 53.9427 27.7597C41.8961 29.0413 30.8939 29.0648 22.8517 28.0779C18.8242 27.5836 15.5833 26.841 13.3343 25.9008C12.2094 25.4306 11.3713 24.9266 10.8089 24.4107C10.2513 23.8992 10.0007 23.4115 9.95192 22.9534C9.90318 22.4953 10.0456 21.9658 10.4831 21.3485C10.9243 20.7258 11.6377 20.0567 12.6384 19.3604C14.6393 17.968 17.6515 16.5602 21.4848 15.2296C29.1393 12.5727 39.9001 10.2808 51.9468 8.99918C63.9935 7.71755 74.9957 7.69406 83.0378 8.68101C87.0653 9.17527 90.3063 9.91787 92.5553 10.8581C93.6801 11.3283 94.5183 11.8323 95.0807 12.3482C95.6382 12.8596 95.8889 13.3474 95.9376 13.8055Z" stroke="#3D3D3D" stroke-width="1.5722"/>
<g opacity="0.96" clip-path="url(#clip0_18_3157)">
<path d="M69.7629 58.415C70.0636 61.2413 68.0162 63.7762 65.19 64.0768L59.9397 64.6354L58.8508 54.4007L64.1011 53.8421C66.9273 53.5414 69.4622 55.5888 69.7629 58.415Z" stroke="white" stroke-width="2.01586"/>
<path d="M49.0276 60.621C49.3283 63.4472 51.8632 65.4946 54.6894 65.1939L59.9397 64.6353L58.8509 54.4006L53.6006 54.9592C50.7743 55.2599 48.727 57.7947 49.0276 60.621Z" stroke="white" stroke-width="2.01586"/>
<path d="M50.1164 70.8558C50.4171 73.6821 52.9519 75.7294 55.7782 75.4288L61.0285 74.8702L59.9396 64.6355L54.6893 65.194C51.8631 65.4947 49.8157 68.0296 50.1164 70.8558Z" stroke="white" stroke-width="2.01586"/>
<path d="M51.2053 81.0906C51.5059 83.9168 54.0738 85.9607 56.9001 85.66C59.763 85.3554 61.8704 82.784 61.5658 79.9211L61.0285 74.8702L55.7782 75.4288C52.9519 75.7295 50.9046 78.2643 51.2053 81.0906Z" stroke="white" stroke-width="2.01586"/>
<path d="M60.4841 69.7528C60.7848 72.579 63.3197 74.6264 66.1459 74.3257L66.2788 74.3116C69.1051 74.0109 71.1524 71.476 70.8518 68.6498C70.5511 65.8235 68.0162 63.7762 65.19 64.0769L65.057 64.091C62.2308 64.3917 60.1834 66.9265 60.4841 69.7528Z" stroke="white" stroke-width="2.01586"/>
</g>
<defs>
<filter id="filter0_d_18_3157" x="19.267" y="99.5236" width="87.6424" height="31.5421" filterUnits="userSpaceOnUse" color-interpolation-filters="sRGB">
<feFlood flood-opacity="0" result="BackgroundImageFix"/>
<feColorMatrix in="SourceAlpha" type="matrix" values="0 0 0 0 0 0 0 0 0 0 0 0 0 0 0 0 0 0 127 0" result="hardAlpha"/>
<feOffset dy="1.5722"/>
<feGaussianBlur stdDeviation="3.1444"/>
<feComposite in2="hardAlpha" operator="out"/>
<feColorMatrix type="matrix" values="0 0 0 0 0 0 0 0 0 0 0 0 0 0 0 0 0 0 0.24 0"/>
<feBlend mode="normal" in2="BackgroundImageFix" result="effect1_dropShadow_18_3157"/>
<feBlend mode="normal" in="SourceGraphic" in2="effect1_dropShadow_18_3157" result="shape"/>
</filter>
<filter id="filter1_ii_18_3157" x="80.7632" y="26.5092" width="35.9789" height="68.1355" filterUnits="userSpaceOnUse" color-interpolation-filters="sRGB">
<feFlood flood-opacity="0" result="BackgroundImageFix"/>
<feBlend mode="normal" in="SourceGraphic" in2="BackgroundImageFix" result="shape"/>
<feColorMatrix in="SourceAlpha" type="matrix" values="0 0 0 0 0 0 0 0 0 0 0 0 0 0 0 0 0 0 127 0" result="hardAlpha"/>
<feOffset dx="3.1444" dy="-0.7861"/>
<feGaussianBlur stdDeviation="0.7861"/>
<feComposite in2="hardAlpha" operator="arithmetic" k2="-1" k3="1"/>
<feColorMatrix type="matrix" values="0 0 0 0 0 0 0 0 0 0 0 0 0 0 0 0 0 0 0.25 0"/>
<feBlend mode="normal" in2="shape" result="effect1_innerShadow_18_3157"/>
<feColorMatrix in="SourceAlpha" type="matrix" values="0 0 0 0 0 0 0 0 0 0 0 0 0 0 0 0 0 0 127 0" result="hardAlpha"/>
<feOffset dy="1.5722"/>
<feGaussianBlur stdDeviation="0.7861"/>
<feComposite in2="hardAlpha" operator="arithmetic" k2="-1" k3="1"/>
<feColorMatrix type="matrix" values="0 0 0 0 1 0 0 0 0 1 0 0 0 0 1 0 0 0 0.64 0"/>
<feBlend mode="normal" in2="effect1_innerShadow_18_3157" result="effect2_innerShadow_18_3157"/>
</filter>
<filter id="filter2_f_18_3157" x="-1.60703" y="1.06418" width="104.006" height="38.4774" filterUnits="userSpaceOnUse" color-interpolation-filters="sRGB">
<feFlood flood-opacity="0" result="BackgroundImageFix"/>
<feBlend mode="normal" in="SourceGraphic" in2="BackgroundImageFix" result="shape"/>
<feGaussianBlur stdDeviation="4.7166" result="effect1_foregroundBlur_18_3157"/>
</filter>
<filter id="filter3_d_18_3157" x="16.9498" y="9.18803" width="70.1362" height="18.0456" filterUnits="userSpaceOnUse" color-interpolation-filters="sRGB">
<feFlood flood-opacity="0" result="BackgroundImageFix"/>
<feColorMatrix in="SourceAlpha" type="matrix" values="0 0 0 0 0 0 0 0 0 0 0 0 0 0 0 0 0 0 127 0" result="hardAlpha"/>
<feOffset dy="0.62888"/>
<feGaussianBlur stdDeviation="0.7861"/>
<feComposite in2="hardAlpha" operator="out"/>
<feColorMatrix type="matrix" values="0 0 0 0 1 0 0 0 0 1 0 0 0 0 1 0 0 0 0.79 0"/>
<feBlend mode="normal" in2="BackgroundImageFix" result="effect1_dropShadow_18_3157"/>
<feBlend mode="normal" in="SourceGraphic" in2="effect1_dropShadow_18_3157" result="shape"/>
</filter>
<filter id="filter4_f_18_3157" x="64.0972" y="6.52217" width="29.7969" height="16.735" filterUnits="userSpaceOnUse" color-interpolation-filters="sRGB">
<feFlood flood-opacity="0" result="BackgroundImageFix"/>
<feBlend mode="normal" in="SourceGraphic" in2="BackgroundImageFix" result="shape"/>
<feGaussianBlur stdDeviation="1.5722" result="effect1_foregroundBlur_18_3157"/>
</filter>
<filter id="filter5_f_18_3157" x="35.1279" y="5.58198" width="37.5165" height="14.3252" filterUnits="userSpaceOnUse" color-interpolation-filters="sRGB">
<feFlood flood-opacity="0" result="BackgroundImageFix"/>
<feBlend mode="normal" in="SourceGraphic" in2="BackgroundImageFix" result="shape"/>
<feGaussianBlur stdDeviation="1.5722" result="effect1_foregroundBlur_18_3157"/>
</filter>
<linearGradient id="paint0_linear_18_3157" x1="11.4695" y1="44.6489" x2="54.6294" y2="33.7231" gradientUnits="userSpaceOnUse">
<stop stop-color="white" stop-opacity="0"/>
<stop offset="1" stop-color="white"/>
</linearGradient>
<linearGradient id="paint1_linear_18_3157" x1="46.5626" y1="33.7091" x2="45.5218" y2="18.2878" gradientUnits="userSpaceOnUse">
<stop offset="0.239955" stop-color="white"/>
<stop offset="1" stop-color="#FFD5BA"/>
</linearGradient>
<linearGradient id="paint2_linear_18_3157" x1="89.8138" y1="11.18" x2="78.5874" y2="17.1176" gradientUnits="userSpaceOnUse">
<stop stop-color="white"/>
<stop offset="1" stop-color="white" stop-opacity="0"/>
</linearGradient>
<linearGradient id="paint3_linear_18_3157" x1="44.7694" y1="10.5515" x2="45.7898" y2="15.5602" gradientUnits="userSpaceOnUse">
<stop stop-color="white"/>
<stop offset="1" stop-color="white" stop-opacity="0"/>
</linearGradient>
<clipPath id="clip0_18_3157">
<rect width="22.991" height="33.0162" fill="white" transform="translate(47.3068 54.5533) rotate(-6.07281)"/>
</clipPath>
</defs>
</svg>
