<svg width="315" height="279" viewBox="0 0 315 279" fill="none" xmlns="http://www.w3.org/2000/svg">
<rect x="1.5" y="10.3611" width="14" height="14" rx="7" fill="#626262" stroke="#474747" stroke-width="3"/>
<path d="M36.644 22.8611V21.4191L39.472 18.4651C40.032 17.8771 40.4613 17.4104 40.76 17.0651C41.068 16.7104 41.2827 16.4071 41.404 16.1551C41.5253 15.9031 41.586 15.6464 41.586 15.3851C41.586 14.9464 41.446 14.6011 41.166 14.3491C40.8953 14.0971 40.5453 13.9711 40.116 13.9711C39.668 13.9711 39.2807 14.1018 38.954 14.3631C38.6273 14.6151 38.3893 14.9884 38.24 15.4831L36.574 14.9651C36.686 14.4144 36.9147 13.9384 37.26 13.5371C37.6053 13.1264 38.0253 12.8138 38.52 12.5991C39.024 12.3751 39.556 12.2631 40.116 12.2631C40.788 12.2631 41.376 12.3844 41.88 12.6271C42.3933 12.8698 42.79 13.2104 43.07 13.6491C43.3593 14.0878 43.504 14.6011 43.504 15.1891C43.504 15.5624 43.434 15.9311 43.294 16.2951C43.154 16.6591 42.944 17.0324 42.664 17.4151C42.384 17.7884 42.02 18.2084 41.572 18.6751L39.122 21.2511H43.644V22.8611H36.644ZM49.3095 23.0291C48.4788 23.0291 47.7508 22.8051 47.1255 22.3571C46.5002 21.9091 46.0102 21.2791 45.6555 20.4671C45.3102 19.6551 45.1375 18.7124 45.1375 17.6391C45.1375 16.5564 45.3102 15.6138 45.6555 14.8111C46.0008 14.0084 46.4862 13.3831 47.1115 12.9351C47.7368 12.4871 48.4648 12.2631 49.2955 12.2631C50.1448 12.2631 50.8775 12.4871 51.4935 12.9351C52.1188 13.3831 52.6088 14.0131 52.9635 14.8251C53.3182 15.6278 53.4955 16.5658 53.4955 17.6391C53.4955 18.7124 53.3182 19.6551 52.9635 20.4671C52.6182 21.2698 52.1328 21.8998 51.5075 22.3571C50.8822 22.8051 50.1495 23.0291 49.3095 23.0291ZM49.3235 21.2931C49.7995 21.2931 50.2055 21.1484 50.5415 20.8591C50.8775 20.5604 51.1342 20.1404 51.3115 19.5991C51.4982 19.0484 51.5915 18.3951 51.5915 17.6391C51.5915 16.8831 51.4982 16.2344 51.3115 15.6931C51.1342 15.1424 50.8728 14.7224 50.5275 14.4331C50.1915 14.1438 49.7808 13.9991 49.2955 13.9991C48.8288 13.9991 48.4275 14.1438 48.0915 14.4331C47.7555 14.7224 47.4942 15.1424 47.3075 15.6931C47.1302 16.2344 47.0415 16.8831 47.0415 17.6391C47.0415 18.3858 47.1302 19.0344 47.3075 19.5851C47.4942 20.1264 47.7555 20.5464 48.0915 20.8451C48.4368 21.1438 48.8475 21.2931 49.3235 21.2931ZM54.9096 22.8611V21.4191L57.7376 18.4651C58.2976 17.8771 58.727 17.4104 59.0256 17.0651C59.3336 16.7104 59.5483 16.4071 59.6696 16.1551C59.791 15.9031 59.8516 15.6464 59.8516 15.3851C59.8516 14.9464 59.7116 14.6011 59.4316 14.3491C59.161 14.0971 58.811 13.9711 58.3816 13.9711C57.9336 13.9711 57.5463 14.1018 57.2196 14.3631C56.893 14.6151 56.655 14.9884 56.5056 15.4831L54.8396 14.9651C54.9516 14.4144 55.1803 13.9384 55.5256 13.5371C55.871 13.1264 56.291 12.8138 56.7856 12.5991C57.2896 12.3751 57.8216 12.2631 58.3816 12.2631C59.0536 12.2631 59.6416 12.3844 60.1456 12.6271C60.659 12.8698 61.0556 13.2104 61.3356 13.6491C61.625 14.0878 61.7696 14.6011 61.7696 15.1891C61.7696 15.5624 61.6996 15.9311 61.5596 16.2951C61.4196 16.6591 61.2096 17.0324 60.9296 17.4151C60.6496 17.7884 60.2856 18.2084 59.8376 18.6751L57.3876 21.2511H61.9096V22.8611H54.9096ZM63.6271 22.8611L67.9671 14.0411H63.0531V12.4311H69.9691V14.0411L65.7271 22.8611H63.6271Z" fill="white"/>
<line x1="8.99957" y1="16.9666" x2="8.99958" y2="114.967" stroke="#595959" stroke-dasharray="6 6"/>
<rect x="1.6897" y="112.361" width="14" height="14" rx="7" fill="url(#paint0_linear_55_1495)" stroke="white" stroke-width="3"/>
<path d="M36.8337 124.861V123.419L39.6617 120.465C40.2217 119.877 40.651 119.41 40.9497 119.065C41.2577 118.71 41.4724 118.407 41.5937 118.155C41.715 117.903 41.7757 117.646 41.7757 117.385C41.7757 116.946 41.6357 116.601 41.3557 116.349C41.085 116.097 40.735 115.971 40.3057 115.971C39.8577 115.971 39.4704 116.102 39.1437 116.363C38.817 116.615 38.579 116.988 38.4297 117.483L36.7637 116.965C36.8757 116.414 37.1044 115.938 37.4497 115.537C37.795 115.126 38.215 114.814 38.7097 114.599C39.2137 114.375 39.7457 114.263 40.3057 114.263C40.9777 114.263 41.5657 114.384 42.0697 114.627C42.583 114.87 42.9797 115.21 43.2597 115.649C43.549 116.088 43.6937 116.601 43.6937 117.189C43.6937 117.562 43.6237 117.931 43.4837 118.295C43.3437 118.659 43.1337 119.032 42.8537 119.415C42.5737 119.788 42.2097 120.208 41.7617 120.675L39.3117 123.251H43.8337V124.861H36.8337ZM49.4992 125.029C48.6685 125.029 47.9405 124.805 47.3152 124.357C46.6899 123.909 46.1999 123.279 45.8452 122.467C45.4999 121.655 45.3272 120.712 45.3272 119.639C45.3272 118.556 45.4999 117.614 45.8452 116.811C46.1905 116.008 46.6759 115.383 47.3012 114.935C47.9265 114.487 48.6545 114.263 49.4852 114.263C50.3345 114.263 51.0672 114.487 51.6832 114.935C52.3085 115.383 52.7985 116.013 53.1532 116.825C53.5079 117.628 53.6852 118.566 53.6852 119.639C53.6852 120.712 53.5079 121.655 53.1532 122.467C52.8079 123.27 52.3225 123.9 51.6972 124.357C51.0719 124.805 50.3392 125.029 49.4992 125.029ZM49.5132 123.293C49.9892 123.293 50.3952 123.148 50.7312 122.859C51.0672 122.56 51.3239 122.14 51.5012 121.599C51.6879 121.048 51.7812 120.395 51.7812 119.639C51.7812 118.883 51.6879 118.234 51.5012 117.693C51.3239 117.142 51.0625 116.722 50.7172 116.433C50.3812 116.144 49.9705 115.999 49.4852 115.999C49.0185 115.999 48.6172 116.144 48.2812 116.433C47.9452 116.722 47.6839 117.142 47.4972 117.693C47.3199 118.234 47.2312 118.883 47.2312 119.639C47.2312 120.386 47.3199 121.034 47.4972 121.585C47.6839 122.126 47.9452 122.546 48.2812 122.845C48.6265 123.144 49.0372 123.293 49.5132 123.293ZM55.0993 124.861V123.419L57.9273 120.465C58.4873 119.877 58.9167 119.41 59.2153 119.065C59.5233 118.71 59.738 118.407 59.8593 118.155C59.9807 117.903 60.0413 117.646 60.0413 117.385C60.0413 116.946 59.9013 116.601 59.6213 116.349C59.3507 116.097 59.0007 115.971 58.5713 115.971C58.1233 115.971 57.736 116.102 57.4093 116.363C57.0827 116.615 56.8447 116.988 56.6953 117.483L55.0293 116.965C55.1413 116.414 55.37 115.938 55.7153 115.537C56.0607 115.126 56.4807 114.814 56.9753 114.599C57.4793 114.375 58.0113 114.263 58.5713 114.263C59.2433 114.263 59.8313 114.384 60.3353 114.627C60.8487 114.87 61.2453 115.21 61.5253 115.649C61.8147 116.088 61.9593 116.601 61.9593 117.189C61.9593 117.562 61.8893 117.931 61.7493 118.295C61.6093 118.659 61.3993 119.032 61.1193 119.415C60.8393 119.788 60.4753 120.208 60.0273 120.675L57.5773 123.251H62.0993V124.861H55.0993ZM66.9108 125.029C66.3415 125.029 65.8002 124.926 65.2868 124.721C64.7828 124.506 64.3488 124.208 63.9848 123.825C63.6302 123.433 63.3875 122.971 63.2568 122.439L64.9228 121.851C65.0908 122.327 65.3475 122.691 65.6928 122.943C66.0382 123.186 66.4442 123.307 66.9108 123.307C67.2842 123.307 67.6062 123.237 67.8768 123.097C68.1568 122.957 68.3762 122.756 68.5348 122.495C68.6935 122.224 68.7728 121.907 68.7728 121.543C68.7728 121.179 68.6935 120.871 68.5348 120.619C68.3855 120.358 68.1708 120.157 67.8908 120.017C67.6108 119.877 67.2795 119.807 66.8968 119.807C66.7195 119.807 66.5328 119.826 66.3368 119.863C66.1502 119.9 65.9822 119.956 65.8328 120.031L65.3988 119.121L68.1008 116.041H63.8448V114.431H70.2428V115.929L67.5268 119.107L67.5548 118.393C68.1802 118.402 68.7262 118.538 69.1928 118.799C69.6595 119.06 70.0235 119.42 70.2848 119.877C70.5462 120.334 70.6768 120.871 70.6768 121.487C70.6768 122.159 70.5135 122.766 70.1868 123.307C69.8602 123.839 69.4122 124.259 68.8428 124.567C68.2735 124.875 67.6295 125.029 66.9108 125.029Z" fill="white"/>
<g filter="url(#filter0_b_55_1495)">
<rect x="96.1897" y="5.36111" width="218" height="126" rx="8" fill="url(#paint1_linear_55_1495)" fill-opacity="0.6"/>
<path d="M113.246 40.3611V28.4411H115.726V40.3611H113.246ZM117.663 40.3611V31.6251H119.903V33.3531L119.775 32.9691C119.978 32.4464 120.303 32.0624 120.751 31.8171C121.21 31.5611 121.743 31.4331 122.351 31.4331C123.013 31.4331 123.589 31.5718 124.079 31.8491C124.581 32.1264 124.97 32.5158 125.247 33.0171C125.525 33.5078 125.663 34.0838 125.663 34.7451V40.3611H123.263V35.2571C123.263 34.9158 123.194 34.6224 123.055 34.3771C122.927 34.1318 122.741 33.9398 122.495 33.8011C122.261 33.6624 121.983 33.5931 121.663 33.5931C121.354 33.5931 121.077 33.6624 120.831 33.8011C120.586 33.9398 120.394 34.1318 120.255 34.3771C120.127 34.6224 120.063 34.9158 120.063 35.2571V40.3611H117.663ZM128.298 40.3611V33.7051H126.826V31.6251H128.298V31.4971C128.298 30.8038 128.431 30.2171 128.698 29.7371C128.975 29.2571 129.37 28.8891 129.882 28.6331C130.394 28.3771 131.012 28.2491 131.738 28.2491C131.876 28.2491 132.026 28.2598 132.186 28.2811C132.346 28.2918 132.479 28.3078 132.586 28.3291V30.3771C132.479 30.3558 132.383 30.3451 132.298 30.3451C132.223 30.3344 132.143 30.3291 132.058 30.3291C131.61 30.3291 131.268 30.4304 131.034 30.6331C130.81 30.8251 130.698 31.1131 130.698 31.4971V31.6251H132.57V33.7051H130.698V40.3611H128.298ZM137.968 40.5531C137.104 40.5531 136.315 40.3558 135.6 39.9611C134.896 39.5664 134.331 39.0278 133.904 38.3451C133.488 37.6518 133.28 36.8678 133.28 35.9931C133.28 35.1078 133.488 34.3238 133.904 33.6411C134.331 32.9584 134.896 32.4198 135.6 32.0251C136.315 31.6304 137.104 31.4331 137.968 31.4331C138.832 31.4331 139.616 31.6304 140.32 32.0251C141.024 32.4198 141.584 32.9584 142 33.6411C142.427 34.3238 142.64 35.1078 142.64 35.9931C142.64 36.8678 142.427 37.6518 142 38.3451C141.584 39.0278 141.024 39.5664 140.32 39.9611C139.616 40.3558 138.832 40.5531 137.968 40.5531ZM137.968 38.3931C138.406 38.3931 138.784 38.2918 139.104 38.0891C139.435 37.8864 139.691 37.6038 139.872 37.2411C140.064 36.8784 140.16 36.4624 140.16 35.9931C140.16 35.5238 140.064 35.1131 139.872 34.7611C139.691 34.3984 139.435 34.1158 139.104 33.9131C138.784 33.6998 138.406 33.5931 137.968 33.5931C137.531 33.5931 137.147 33.6998 136.816 33.9131C136.486 34.1158 136.224 34.3984 136.032 34.7611C135.851 35.1131 135.76 35.5238 135.76 35.9931C135.76 36.4624 135.851 36.8784 136.032 37.2411C136.224 37.6038 136.486 37.8864 136.816 38.0891C137.147 38.2918 137.531 38.3931 137.968 38.3931ZM144.054 40.3611V31.6251H146.294V33.7211L146.134 33.4171C146.326 32.6811 146.641 32.1851 147.078 31.9291C147.526 31.6624 148.054 31.5291 148.662 31.5291H149.174V33.6091H148.422C147.835 33.6091 147.361 33.7904 146.998 34.1531C146.635 34.5051 146.454 35.0064 146.454 35.6571V40.3611H144.054ZM150.226 40.3611V31.6251H152.466V33.7531L152.226 33.4011C152.354 32.7291 152.663 32.2331 153.154 31.9131C153.645 31.5931 154.231 31.4331 154.914 31.4331C155.639 31.4331 156.274 31.6198 156.818 31.9931C157.373 32.3558 157.719 32.8464 157.858 33.4651L157.17 33.5291C157.458 32.8144 157.869 32.2864 158.402 31.9451C158.935 31.6038 159.559 31.4331 160.274 31.4331C160.903 31.4331 161.458 31.5718 161.938 31.8491C162.429 32.1264 162.813 32.5158 163.09 33.0171C163.367 33.5078 163.506 34.0838 163.506 34.7451V40.3611H161.106V35.2571C161.106 34.9158 161.042 34.6224 160.914 34.3771C160.797 34.1318 160.626 33.9398 160.402 33.8011C160.178 33.6624 159.906 33.5931 159.586 33.5931C159.277 33.5931 159.005 33.6624 158.77 33.8011C158.546 33.9398 158.37 34.1318 158.242 34.3771C158.125 34.6224 158.066 34.9158 158.066 35.2571V40.3611H155.666V35.2571C155.666 34.9158 155.602 34.6224 155.474 34.3771C155.357 34.1318 155.186 33.9398 154.962 33.8011C154.738 33.6624 154.466 33.5931 154.146 33.5931C153.837 33.5931 153.565 33.6624 153.33 33.8011C153.106 33.9398 152.93 34.1318 152.802 34.3771C152.685 34.6224 152.626 34.9158 152.626 35.2571V40.3611H150.226ZM167.789 40.5531C167.16 40.5531 166.616 40.4518 166.157 40.2491C165.699 40.0464 165.347 39.7584 165.101 39.3851C164.856 39.0011 164.733 38.5478 164.733 38.0251C164.733 37.5344 164.845 37.1024 165.069 36.7291C165.293 36.3451 165.635 36.0251 166.093 35.7691C166.563 35.5131 167.144 35.3318 167.837 35.2251L170.509 34.7931V36.5531L168.269 36.9531C167.928 37.0171 167.667 37.1291 167.485 37.2891C167.304 37.4384 167.213 37.6571 167.213 37.9451C167.213 38.2118 167.315 38.4198 167.517 38.5691C167.72 38.7184 167.971 38.7931 168.269 38.7931C168.664 38.7931 169.011 38.7078 169.309 38.5371C169.608 38.3664 169.837 38.1371 169.997 37.8491C170.168 37.5504 170.253 37.2251 170.253 36.8731V34.6011C170.253 34.2704 170.12 33.9931 169.853 33.7691C169.597 33.5451 169.245 33.4331 168.797 33.4331C168.371 33.4331 167.992 33.5504 167.661 33.7851C167.341 34.0198 167.107 34.3291 166.957 34.7131L165.037 33.8011C165.208 33.3104 165.48 32.8891 165.853 32.5371C166.227 32.1851 166.675 31.9131 167.197 31.7211C167.72 31.5291 168.291 31.4331 168.909 31.4331C169.645 31.4331 170.296 31.5664 170.861 31.8331C171.427 32.0998 171.864 32.4731 172.173 32.9531C172.493 33.4224 172.653 33.9718 172.653 34.6011V40.3611H170.413V38.9531L170.957 38.8571C170.701 39.2411 170.419 39.5611 170.109 39.8171C169.8 40.0624 169.453 40.2438 169.069 40.3611C168.685 40.4891 168.259 40.5531 167.789 40.5531ZM178.465 40.4571C177.409 40.4571 176.588 40.1744 176.001 39.6091C175.425 39.0331 175.137 38.2331 175.137 37.2091V33.7051H173.665V31.6251H173.745C174.193 31.6251 174.535 31.5131 174.769 31.2891C175.015 31.0651 175.137 30.7291 175.137 30.2811V29.6411H177.537V31.6251H179.585V33.7051H177.537V37.0491C177.537 37.3478 177.591 37.5984 177.697 37.8011C177.804 37.9931 177.969 38.1371 178.193 38.2331C178.417 38.3291 178.695 38.3771 179.025 38.3771C179.1 38.3771 179.185 38.3718 179.281 38.3611C179.377 38.3504 179.479 38.3398 179.585 38.3291V40.3611C179.425 40.3824 179.244 40.4038 179.041 40.4251C178.839 40.4464 178.647 40.4571 178.465 40.4571ZM180.992 40.3611V31.6251H183.392V40.3611H180.992ZM180.992 30.8411V28.4411H183.392V30.8411H180.992ZM189.484 40.5531C188.62 40.5531 187.83 40.3558 187.116 39.9611C186.412 39.5664 185.846 39.0278 185.42 38.3451C185.004 37.6518 184.796 36.8678 184.796 35.9931C184.796 35.1078 185.004 34.3238 185.42 33.6411C185.846 32.9584 186.412 32.4198 187.116 32.0251C187.83 31.6304 188.62 31.4331 189.484 31.4331C190.348 31.4331 191.132 31.6304 191.836 32.0251C192.54 32.4198 193.1 32.9584 193.516 33.6411C193.942 34.3238 194.156 35.1078 194.156 35.9931C194.156 36.8678 193.942 37.6518 193.516 38.3451C193.1 39.0278 192.54 39.5664 191.836 39.9611C191.132 40.3558 190.348 40.5531 189.484 40.5531ZM189.484 38.3931C189.921 38.3931 190.3 38.2918 190.62 38.0891C190.95 37.8864 191.206 37.6038 191.388 37.2411C191.58 36.8784 191.676 36.4624 191.676 35.9931C191.676 35.5238 191.58 35.1131 191.388 34.7611C191.206 34.3984 190.95 34.1158 190.62 33.9131C190.3 33.6998 189.921 33.5931 189.484 33.5931C189.046 33.5931 188.662 33.6998 188.332 33.9131C188.001 34.1158 187.74 34.3984 187.548 34.7611C187.366 35.1131 187.276 35.5238 187.276 35.9931C187.276 36.4624 187.366 36.8784 187.548 37.2411C187.74 37.6038 188.001 37.8864 188.332 38.0891C188.662 38.2918 189.046 38.3931 189.484 38.3931ZM195.57 40.3611V31.6251H197.81V33.3531L197.682 32.9691C197.884 32.4464 198.21 32.0624 198.658 31.8171C199.116 31.5611 199.65 31.4331 200.258 31.4331C200.919 31.4331 201.495 31.5718 201.986 31.8491C202.487 32.1264 202.876 32.5158 203.154 33.0171C203.431 33.5078 203.57 34.0838 203.57 34.7451V40.3611H201.17V35.2571C201.17 34.9158 201.1 34.6224 200.962 34.3771C200.834 34.1318 200.647 33.9398 200.402 33.8011C200.167 33.6624 199.89 33.5931 199.57 33.5931C199.26 33.5931 198.983 33.6624 198.738 33.8011C198.492 33.9398 198.3 34.1318 198.162 34.3771C198.034 34.6224 197.97 34.9158 197.97 35.2571V40.3611H195.57ZM212.535 40.5531C211.788 40.5531 211.084 40.4198 210.423 40.1531C209.772 39.8758 209.207 39.4864 208.727 38.9851C208.257 38.4838 207.905 37.8918 207.671 37.2091L209.703 36.2971C210.001 36.9478 210.412 37.4598 210.935 37.8331C211.468 38.2064 212.055 38.3931 212.695 38.3931C213.036 38.3931 213.329 38.3398 213.575 38.2331C213.82 38.1264 214.012 37.9824 214.151 37.8011C214.289 37.6091 214.359 37.3851 214.359 37.1291C214.359 36.8518 214.273 36.6171 214.103 36.4251C213.932 36.2224 213.665 36.0624 213.303 35.9451L210.967 35.1771C210.017 34.8678 209.303 34.4304 208.823 33.8651C208.343 33.2891 208.103 32.6011 208.103 31.8011C208.103 31.0971 208.273 30.4784 208.615 29.9451C208.967 29.4118 209.452 28.9958 210.071 28.6971C210.7 28.3984 211.42 28.2491 212.231 28.2491C212.945 28.2491 213.607 28.3718 214.215 28.6171C214.823 28.8624 215.345 29.2091 215.783 29.6571C216.231 30.1051 216.567 30.6438 216.791 31.2731L214.775 32.1851C214.551 31.6304 214.215 31.1984 213.767 30.8891C213.319 30.5691 212.807 30.4091 212.231 30.4091C211.9 30.4091 211.607 30.4624 211.351 30.5691C211.095 30.6758 210.897 30.8304 210.759 31.0331C210.62 31.2251 210.551 31.4491 210.551 31.7051C210.551 31.9824 210.641 32.2278 210.823 32.4411C211.004 32.6438 211.276 32.8038 211.639 32.9211L213.927 33.6571C214.887 33.9664 215.601 34.3984 216.071 34.9531C216.551 35.5078 216.791 36.1851 216.791 36.9851C216.791 37.6784 216.609 38.2971 216.247 38.8411C215.884 39.3744 215.383 39.7958 214.743 40.1051C214.113 40.4038 213.377 40.5531 212.535 40.5531ZM219.742 43.9131C219.486 43.9131 219.236 43.8918 218.99 43.8491C218.756 43.8064 218.548 43.7371 218.366 43.6411V41.6731C218.516 41.7158 218.692 41.7531 218.894 41.7851C219.097 41.8171 219.284 41.8331 219.454 41.8331C219.924 41.8331 220.26 41.7211 220.462 41.4971C220.665 41.2731 220.83 41.0171 220.958 40.7291L221.55 39.3691L221.518 41.3691L217.678 31.6251H220.254L222.798 38.5531H221.838L224.382 31.6251H226.958L223.214 41.1771C222.98 41.7851 222.692 42.2918 222.35 42.6971C222.009 43.1024 221.62 43.4064 221.182 43.6091C220.756 43.8118 220.276 43.9131 219.742 43.9131ZM231.431 40.5531C230.471 40.5531 229.634 40.3291 228.919 39.8811C228.215 39.4224 227.735 38.8091 227.479 38.0411L229.239 37.2091C229.463 37.6784 229.767 38.0464 230.151 38.3131C230.535 38.5798 230.962 38.7131 231.431 38.7131C231.773 38.7131 232.034 38.6438 232.215 38.5051C232.397 38.3664 232.487 38.1744 232.487 37.9291C232.487 37.8011 232.455 37.6944 232.391 37.6091C232.327 37.5131 232.231 37.4278 232.103 37.3531C231.975 37.2784 231.815 37.2144 231.623 37.1611L230.135 36.7451C229.421 36.5424 228.871 36.2171 228.487 35.7691C228.103 35.3104 227.911 34.7718 227.911 34.1531C227.911 33.6091 228.05 33.1344 228.327 32.7291C228.605 32.3238 228.994 32.0091 229.495 31.7851C229.997 31.5504 230.573 31.4331 231.223 31.4331C232.077 31.4331 232.823 31.6358 233.463 32.0411C234.114 32.4358 234.573 32.9958 234.839 33.7211L233.063 34.5531C232.935 34.1904 232.701 33.9024 232.359 33.6891C232.029 33.4651 231.65 33.3531 231.223 33.3531C230.914 33.3531 230.669 33.4171 230.487 33.5451C230.317 33.6731 230.231 33.8491 230.231 34.0731C230.231 34.1904 230.263 34.2971 230.327 34.3931C230.391 34.4891 230.493 34.5744 230.631 34.6491C230.781 34.7238 230.962 34.7931 231.175 34.8571L232.567 35.2731C233.293 35.4864 233.847 35.8118 234.231 36.2491C234.615 36.6758 234.807 37.2038 234.807 37.8331C234.807 38.3771 234.663 38.8518 234.375 39.2571C234.098 39.6624 233.709 39.9824 233.207 40.2171C232.706 40.4411 232.114 40.5531 231.431 40.5531ZM240.45 40.4571C239.394 40.4571 238.572 40.1744 237.986 39.6091C237.41 39.0331 237.122 38.2331 237.122 37.2091V33.7051H235.65V31.6251H235.73C236.178 31.6251 236.519 31.5131 236.754 31.2891C236.999 31.0651 237.122 30.7291 237.122 30.2811V29.6411H239.522V31.6251H241.57V33.7051H239.522V37.0491C239.522 37.3478 239.575 37.5984 239.682 37.8011C239.788 37.9931 239.954 38.1371 240.178 38.2331C240.402 38.3291 240.679 38.3771 241.01 38.3771C241.084 38.3771 241.17 38.3718 241.266 38.3611C241.362 38.3504 241.463 38.3398 241.57 38.3291V40.3611C241.41 40.3824 241.228 40.4038 241.026 40.4251C240.823 40.4464 240.631 40.4571 240.45 40.4571ZM247.184 40.5531C246.256 40.5531 245.451 40.3504 244.768 39.9451C244.085 39.5291 243.557 38.9744 243.184 38.2811C242.811 37.5878 242.624 36.8198 242.624 35.9771C242.624 35.1024 242.816 34.3238 243.2 33.6411C243.595 32.9584 244.123 32.4198 244.784 32.0251C245.445 31.6304 246.192 31.4331 247.024 31.4331C247.717 31.4331 248.331 31.5451 248.864 31.7691C249.397 31.9824 249.845 32.2864 250.208 32.6811C250.581 33.0758 250.864 33.5344 251.056 34.0571C251.248 34.5691 251.344 35.1291 251.344 35.7371C251.344 35.9078 251.333 36.0784 251.312 36.2491C251.301 36.4091 251.275 36.5478 251.232 36.6651H244.688V34.9051H249.872L248.736 35.7371C248.843 35.2784 248.837 34.8731 248.72 34.5211C248.603 34.1584 248.395 33.8758 248.096 33.6731C247.808 33.4598 247.451 33.3531 247.024 33.3531C246.608 33.3531 246.251 33.4544 245.952 33.6571C245.653 33.8598 245.429 34.1584 245.28 34.5531C245.131 34.9478 245.072 35.4278 245.104 35.9931C245.061 36.4838 245.12 36.9158 245.28 37.2891C245.44 37.6624 245.685 37.9558 246.016 38.1691C246.347 38.3718 246.747 38.4731 247.216 38.4731C247.643 38.4731 248.005 38.3878 248.304 38.2171C248.613 38.0464 248.853 37.8118 249.024 37.5131L250.944 38.4251C250.773 38.8518 250.501 39.2251 250.128 39.5451C249.765 39.8651 249.333 40.1158 248.832 40.2971C248.331 40.4678 247.781 40.5531 247.184 40.5531ZM252.757 40.3611V31.6251H254.997V33.7531L254.757 33.4011C254.885 32.7291 255.195 32.2331 255.685 31.9131C256.176 31.5931 256.763 31.4331 257.445 31.4331C258.171 31.4331 258.805 31.6198 259.349 31.9931C259.904 32.3558 260.251 32.8464 260.389 33.4651L259.701 33.5291C259.989 32.8144 260.4 32.2864 260.933 31.9451C261.467 31.6038 262.091 31.4331 262.805 31.4331C263.435 31.4331 263.989 31.5718 264.469 31.8491C264.96 32.1264 265.344 32.5158 265.621 33.0171C265.899 33.5078 266.037 34.0838 266.037 34.7451V40.3611H263.637V35.2571C263.637 34.9158 263.573 34.6224 263.445 34.3771C263.328 34.1318 263.157 33.9398 262.933 33.8011C262.709 33.6624 262.437 33.5931 262.117 33.5931C261.808 33.5931 261.536 33.6624 261.301 33.8011C261.077 33.9398 260.901 34.1318 260.773 34.3771C260.656 34.6224 260.597 34.9158 260.597 35.2571V40.3611H258.197V35.2571C258.197 34.9158 258.133 34.6224 258.005 34.3771C257.888 34.1318 257.717 33.9398 257.493 33.8011C257.269 33.6624 256.997 33.5931 256.677 33.5931C256.368 33.5931 256.096 33.6624 255.861 33.8011C255.637 33.9398 255.461 34.1318 255.333 34.3771C255.216 34.6224 255.157 34.9158 255.157 35.2571V40.3611H252.757Z" fill="white"/>
<path d="M116.936 71.5291C116.273 71.5291 115.671 71.4031 115.13 71.1511C114.588 70.8991 114.131 70.5631 113.758 70.1431C113.384 69.7138 113.118 69.2424 112.96 68.7291L113.968 68.3511C114.21 69.0604 114.588 69.6018 115.102 69.9751C115.615 70.3391 116.226 70.5211 116.936 70.5211C117.384 70.5211 117.776 70.4511 118.112 70.3111C118.457 70.1618 118.723 69.9564 118.91 69.6951C119.096 69.4338 119.19 69.1304 119.19 68.7851C119.19 68.2718 119.05 67.8751 118.77 67.5951C118.49 67.3151 118.088 67.1004 117.566 66.9511L115.69 66.3911C114.952 66.1764 114.383 65.8171 113.982 65.3131C113.59 64.8091 113.394 64.2351 113.394 63.5911C113.394 63.0404 113.529 62.5551 113.8 62.1351C114.07 61.7058 114.439 61.3698 114.906 61.1271C115.382 60.8844 115.918 60.7631 116.516 60.7631C117.141 60.7631 117.701 60.8798 118.196 61.1131C118.7 61.3371 119.124 61.6358 119.47 62.0091C119.815 62.3824 120.062 62.7978 120.212 63.2551L119.232 63.6471C119.008 63.0311 118.658 62.5644 118.182 62.2471C117.715 61.9298 117.164 61.7711 116.53 61.7711C116.128 61.7711 115.774 61.8411 115.466 61.9811C115.167 62.1211 114.934 62.3218 114.766 62.5831C114.598 62.8444 114.514 63.1524 114.514 63.5071C114.514 63.9364 114.649 64.3238 114.92 64.6691C115.19 65.0051 115.606 65.2571 116.166 65.4251L117.818 65.9151C118.639 66.1578 119.26 66.5078 119.68 66.9651C120.1 67.4224 120.31 67.9964 120.31 68.6871C120.31 69.2471 120.165 69.7418 119.876 70.1711C119.596 70.5911 119.199 70.9224 118.686 71.1651C118.182 71.4078 117.598 71.5291 116.936 71.5291ZM125.734 71.5291C125.034 71.5291 124.4 71.3611 123.83 71.0251C123.27 70.6798 122.827 70.2084 122.5 69.6111C122.174 69.0138 122.01 68.3371 122.01 67.5811C122.01 66.8251 122.169 66.1578 122.486 65.5791C122.804 64.9911 123.233 64.5291 123.774 64.1931C124.325 63.8571 124.941 63.6891 125.622 63.6891C126.164 63.6891 126.644 63.7918 127.064 63.9971C127.494 64.1931 127.858 64.4638 128.156 64.8091C128.455 65.1451 128.684 65.5278 128.842 65.9571C129.001 66.3771 129.08 66.8111 129.08 67.2591C129.08 67.3524 129.076 67.4598 129.066 67.5811C129.057 67.6931 129.043 67.8098 129.024 67.9311H122.682V66.9511H128.422L127.918 67.3711C128.002 66.8578 127.942 66.4004 127.736 65.9991C127.54 65.5884 127.256 65.2664 126.882 65.0331C126.509 64.7904 126.089 64.6691 125.622 64.6691C125.156 64.6691 124.722 64.7904 124.32 65.0331C123.928 65.2758 123.62 65.6164 123.396 66.0551C123.172 66.4844 123.084 66.9978 123.13 67.5951C123.084 68.1924 123.177 68.7151 123.41 69.1631C123.653 69.6018 123.98 69.9424 124.39 70.1851C124.81 70.4278 125.258 70.5491 125.734 70.5491C126.285 70.5491 126.747 70.4184 127.12 70.1571C127.494 69.8958 127.797 69.5691 128.03 69.1771L128.926 69.6531C128.777 69.9891 128.548 70.3018 128.24 70.5911C127.932 70.8711 127.564 71.0998 127.134 71.2771C126.714 71.4451 126.248 71.5291 125.734 71.5291ZM130.932 74.1611V63.8571H131.982V65.5371L131.814 65.2431C132.112 64.7671 132.509 64.3891 133.004 64.1091C133.508 63.8291 134.082 63.6891 134.726 63.6891C135.435 63.6891 136.065 63.8618 136.616 64.2071C137.176 64.5431 137.614 65.0051 137.932 65.5931C138.258 66.1811 138.422 66.8531 138.422 67.6091C138.422 68.3558 138.258 69.0278 137.932 69.6251C137.614 70.2131 137.176 70.6798 136.616 71.0251C136.065 71.3611 135.435 71.5291 134.726 71.5291C134.082 71.5291 133.498 71.3844 132.976 71.0951C132.462 70.7964 132.075 70.3764 131.814 69.8351L131.982 69.6811V74.1611H130.932ZM134.67 70.4791C135.174 70.4791 135.622 70.3531 136.014 70.1011C136.415 69.8491 136.728 69.5084 136.952 69.0791C137.185 68.6404 137.302 68.1504 137.302 67.6091C137.302 67.0584 137.185 66.5684 136.952 66.1391C136.728 65.7098 136.415 65.3691 136.014 65.1171C135.622 64.8651 135.174 64.7391 134.67 64.7391C134.166 64.7391 133.708 64.8651 133.298 65.1171C132.896 65.3691 132.574 65.7144 132.332 66.1531C132.098 66.5824 131.982 67.0678 131.982 67.6091C131.982 68.1504 132.098 68.6404 132.332 69.0791C132.574 69.5084 132.896 69.8491 133.298 70.1011C133.708 70.3531 134.166 70.4791 134.67 70.4791ZM142.93 71.5291C142.407 71.5291 141.931 71.4078 141.502 71.1651C141.072 70.9131 140.732 70.5678 140.48 70.1291C140.237 69.6811 140.116 69.1678 140.116 68.5891V63.8571H141.166V68.4631C141.166 68.8644 141.245 69.2191 141.404 69.5271C141.572 69.8258 141.8 70.0591 142.09 70.2271C142.388 70.3951 142.729 70.4791 143.112 70.4791C143.494 70.4791 143.835 70.3951 144.134 70.2271C144.432 70.0498 144.666 69.8024 144.834 69.4851C145.002 69.1584 145.086 68.7711 145.086 68.3231V63.8571H146.136V71.3611H145.086V69.9051L145.324 69.9611C145.146 70.4464 144.843 70.8291 144.414 71.1091C143.984 71.3891 143.49 71.5291 142.93 71.5291ZM148.295 71.3611V60.7631H149.345V71.3611H148.295ZM154.154 71.5291C153.632 71.5291 153.156 71.4078 152.726 71.1651C152.297 70.9131 151.956 70.5678 151.704 70.1291C151.462 69.6811 151.34 69.1678 151.34 68.5891V63.8571H152.39V68.4631C152.39 68.8644 152.47 69.2191 152.628 69.5271C152.796 69.8258 153.025 70.0591 153.314 70.2271C153.613 70.3951 153.954 70.4791 154.336 70.4791C154.719 70.4791 155.06 70.3951 155.358 70.2271C155.657 70.0498 155.89 69.8024 156.058 69.4851C156.226 69.1584 156.31 68.7711 156.31 68.3231V63.8571H157.36V71.3611H156.31V69.9051L156.548 69.9611C156.371 70.4464 156.068 70.8291 155.638 71.1091C155.209 71.3891 154.714 71.5291 154.154 71.5291ZM159.52 71.3611V60.7631H160.57V65.3131L160.332 65.2571C160.518 64.7718 160.822 64.3891 161.242 64.1091C161.671 63.8291 162.166 63.6891 162.726 63.6891C163.258 63.6891 163.734 63.8104 164.154 64.0531C164.583 64.2958 164.919 64.6318 165.162 65.0611C165.414 65.4811 165.54 65.9571 165.54 66.4891V71.3611H164.49V66.8951C164.49 66.4378 164.406 66.0504 164.238 65.7331C164.07 65.4158 163.836 65.1731 163.538 65.0051C163.248 64.8278 162.917 64.7391 162.544 64.7391C162.17 64.7391 161.834 64.8278 161.536 65.0051C161.237 65.1731 160.999 65.4204 160.822 65.7471C160.654 66.0644 160.57 66.4471 160.57 66.8951V71.3611H159.52ZM170.078 71.3611V60.9311H171.058L177.176 69.7091H176.798V60.9311H177.918V71.3611H176.938L170.82 62.5271H171.198V71.3611H170.078ZM183.747 71.5291C183.037 71.5291 182.393 71.3611 181.815 71.0251C181.236 70.6798 180.774 70.2131 180.429 69.6251C180.093 69.0278 179.925 68.3511 179.925 67.5951C179.925 66.8484 180.093 66.1811 180.429 65.5931C180.765 65.0051 181.217 64.5431 181.787 64.2071C182.365 63.8618 183.019 63.6891 183.747 63.6891C184.475 63.6891 185.123 63.8571 185.693 64.1931C186.271 64.5291 186.724 64.9911 187.051 65.5791C187.387 66.1671 187.555 66.8391 187.555 67.5951C187.555 68.3604 187.382 69.0418 187.037 69.6391C186.691 70.2271 186.229 70.6891 185.651 71.0251C185.081 71.3611 184.447 71.5291 183.747 71.5291ZM183.747 70.4791C184.251 70.4791 184.703 70.3531 185.105 70.1011C185.515 69.8491 185.837 69.5038 186.071 69.0651C186.313 68.6264 186.435 68.1364 186.435 67.5951C186.435 67.0538 186.313 66.5684 186.071 66.1391C185.837 65.7098 185.515 65.3691 185.105 65.1171C184.703 64.8651 184.251 64.7391 183.747 64.7391C183.243 64.7391 182.785 64.8651 182.375 65.1171C181.973 65.3691 181.651 65.7098 181.409 66.1391C181.166 66.5684 181.045 67.0538 181.045 67.5951C181.045 68.1364 181.166 68.6264 181.409 69.0651C181.651 69.5038 181.973 69.8491 182.375 70.1011C182.785 70.3531 183.243 70.4791 183.747 70.4791ZM189.406 74.1611V63.8571H190.456V65.5371L190.288 65.2431C190.587 64.7671 190.984 64.3891 191.478 64.1091C191.982 63.8291 192.556 63.6891 193.2 63.6891C193.91 63.6891 194.54 63.8618 195.09 64.2071C195.65 64.5431 196.089 65.0051 196.406 65.5931C196.733 66.1811 196.896 66.8531 196.896 67.6091C196.896 68.3558 196.733 69.0278 196.406 69.6251C196.089 70.2131 195.65 70.6798 195.09 71.0251C194.54 71.3611 193.91 71.5291 193.2 71.5291C192.556 71.5291 191.973 71.3844 191.45 71.0951C190.937 70.7964 190.55 70.3764 190.288 69.8351L190.456 69.6811V74.1611H189.406ZM193.144 70.4791C193.648 70.4791 194.096 70.3531 194.488 70.1011C194.89 69.8491 195.202 69.5084 195.426 69.0791C195.66 68.6404 195.776 68.1504 195.776 67.6091C195.776 67.0584 195.66 66.5684 195.426 66.1391C195.202 65.7098 194.89 65.3691 194.488 65.1171C194.096 64.8651 193.648 64.7391 193.144 64.7391C192.64 64.7391 192.183 64.8651 191.772 65.1171C191.371 65.3691 191.049 65.7144 190.806 66.1531C190.573 66.5824 190.456 67.0678 190.456 67.6091C190.456 68.1504 190.573 68.6404 190.806 69.0791C191.049 69.5084 191.371 69.8491 191.772 70.1011C192.183 70.3531 192.64 70.4791 193.144 70.4791ZM202.16 71.5291C201.46 71.5291 200.826 71.3611 200.256 71.0251C199.696 70.6798 199.253 70.2084 198.926 69.6111C198.6 69.0138 198.436 68.3371 198.436 67.5811C198.436 66.8251 198.595 66.1578 198.912 65.5791C199.23 64.9911 199.659 64.5291 200.2 64.1931C200.751 63.8571 201.367 63.6891 202.048 63.6891C202.59 63.6891 203.07 63.7918 203.49 63.9971C203.92 64.1931 204.284 64.4638 204.582 64.8091C204.881 65.1451 205.11 65.5278 205.268 65.9571C205.427 66.3771 205.506 66.8111 205.506 67.2591C205.506 67.3524 205.502 67.4598 205.492 67.5811C205.483 67.6931 205.469 67.8098 205.45 67.9311H199.108V66.9511H204.848L204.344 67.3711C204.428 66.8578 204.368 66.4004 204.162 65.9991C203.966 65.5884 203.682 65.2664 203.308 65.0331C202.935 64.7904 202.515 64.6691 202.048 64.6691C201.582 64.6691 201.148 64.7904 200.746 65.0331C200.354 65.2758 200.046 65.6164 199.822 66.0551C199.598 66.4844 199.51 66.9978 199.556 67.5951C199.51 68.1924 199.603 68.7151 199.836 69.1631C200.079 69.6018 200.406 69.9424 200.816 70.1851C201.236 70.4278 201.684 70.5491 202.16 70.5491C202.711 70.5491 203.173 70.4184 203.546 70.1571C203.92 69.8958 204.223 69.5691 204.456 69.1771L205.352 69.6531C205.203 69.9891 204.974 70.3018 204.666 70.5911C204.358 70.8711 203.99 71.0998 203.56 71.2771C203.14 71.4451 202.674 71.5291 202.16 71.5291ZM207.358 71.3611V63.8571H208.408V65.2851L208.24 65.0751C208.445 64.6364 208.748 64.2958 209.15 64.0531C209.56 63.8104 210.008 63.6891 210.494 63.6891C211.072 63.6891 211.595 63.8524 212.062 64.1791C212.528 64.5058 212.86 64.9304 213.056 65.4531L212.762 65.4671C212.948 64.8884 213.27 64.4498 213.728 64.1511C214.194 63.8431 214.708 63.6891 215.268 63.6891C215.772 63.6891 216.234 63.8104 216.654 64.0531C217.083 64.2958 217.424 64.6318 217.676 65.0611C217.937 65.4811 218.068 65.9571 218.068 66.4891V71.3611H217.018V66.8951C217.018 66.4378 216.934 66.0504 216.766 65.7331C216.607 65.4158 216.388 65.1731 216.108 65.0051C215.828 64.8278 215.506 64.7391 215.142 64.7391C214.787 64.7391 214.465 64.8278 214.176 65.0051C213.886 65.1731 213.658 65.4204 213.49 65.7471C213.322 66.0644 213.238 66.4471 213.238 66.8951V71.3611H212.188V66.8951C212.188 66.4378 212.104 66.0504 211.936 65.7331C211.777 65.4158 211.558 65.1731 211.278 65.0051C210.998 64.8278 210.676 64.7391 210.312 64.7391C209.948 64.7391 209.621 64.8278 209.332 65.0051C209.052 65.1731 208.828 65.4204 208.66 65.7471C208.492 66.0644 208.408 66.4471 208.408 66.8951V71.3611H207.358ZM223.866 71.5291C223.222 71.5291 222.639 71.3844 222.116 71.0951C221.603 70.7964 221.216 70.3764 220.954 69.8351L221.122 69.6811V71.3611H220.072V60.7631H221.122V65.5371L220.954 65.2431C221.253 64.7671 221.65 64.3891 222.144 64.1091C222.648 63.8291 223.222 63.6891 223.866 63.6891C224.576 63.6891 225.206 63.8618 225.756 64.2071C226.316 64.5431 226.755 65.0051 227.072 65.5931C227.399 66.1811 227.562 66.8531 227.562 67.6091C227.562 68.3558 227.399 69.0278 227.072 69.6251C226.755 70.2131 226.316 70.6798 225.756 71.0251C225.206 71.3611 224.576 71.5291 223.866 71.5291ZM223.81 70.4791C224.314 70.4791 224.762 70.3531 225.154 70.1011C225.556 69.8491 225.868 69.5084 226.092 69.0791C226.326 68.6404 226.442 68.1504 226.442 67.6091C226.442 67.0584 226.326 66.5684 226.092 66.1391C225.868 65.7098 225.556 65.3691 225.154 65.1171C224.762 64.8651 224.314 64.7391 223.81 64.7391C223.306 64.7391 222.849 64.8651 222.438 65.1171C222.037 65.3691 221.715 65.7144 221.472 66.1531C221.239 66.5824 221.122 67.0678 221.122 67.6091C221.122 68.1504 221.239 68.6404 221.472 69.0791C221.715 69.5084 222.037 69.8491 222.438 70.1011C222.849 70.3531 223.306 70.4791 223.81 70.4791ZM232.826 71.5291C232.126 71.5291 231.492 71.3611 230.922 71.0251C230.362 70.6798 229.919 70.2084 229.592 69.6111C229.266 69.0138 229.102 68.3371 229.102 67.5811C229.102 66.8251 229.261 66.1578 229.578 65.5791C229.896 64.9911 230.325 64.5291 230.866 64.1931C231.417 63.8571 232.033 63.6891 232.714 63.6891C233.256 63.6891 233.736 63.7918 234.156 63.9971C234.586 64.1931 234.95 64.4638 235.248 64.8091C235.547 65.1451 235.776 65.5278 235.934 65.9571C236.093 66.3771 236.172 66.8111 236.172 67.2591C236.172 67.3524 236.168 67.4598 236.158 67.5811C236.149 67.6931 236.135 67.8098 236.116 67.9311H229.774V66.9511H235.514L235.01 67.3711C235.094 66.8578 235.034 66.4004 234.828 65.9991C234.632 65.5884 234.348 65.2664 233.974 65.0331C233.601 64.7904 233.181 64.6691 232.714 64.6691C232.248 64.6691 231.814 64.7904 231.412 65.0331C231.02 65.2758 230.712 65.6164 230.488 66.0551C230.264 66.4844 230.176 66.9978 230.222 67.5951C230.176 68.1924 230.269 68.7151 230.502 69.1631C230.745 69.6018 231.072 69.9424 231.482 70.1851C231.902 70.4278 232.35 70.5491 232.826 70.5491C233.377 70.5491 233.839 70.4184 234.212 70.1571C234.586 69.8958 234.889 69.5691 235.122 69.1771L236.018 69.6531C235.869 69.9891 235.64 70.3018 235.332 70.5911C235.024 70.8711 234.656 71.0998 234.226 71.2771C233.806 71.4451 233.34 71.5291 232.826 71.5291ZM238.024 71.3611V63.8571H239.074V65.0891L238.934 64.9071C239.111 64.5524 239.377 64.2724 239.732 64.0671C240.096 63.8618 240.534 63.7591 241.048 63.7591H241.524V64.8091H240.866C240.324 64.8091 239.89 64.9771 239.564 65.3131C239.237 65.6491 239.074 66.1251 239.074 66.7411V71.3611H238.024ZM113.422 89.3611V78.9311H114.542V89.3611H113.422ZM116.85 89.3611V81.8571H117.9V83.3131L117.662 83.2571C117.848 82.7718 118.152 82.3891 118.572 82.1091C119.001 81.8291 119.496 81.6891 120.056 81.6891C120.588 81.6891 121.064 81.8104 121.484 82.0531C121.913 82.2958 122.249 82.6318 122.492 83.0611C122.744 83.4811 122.87 83.9571 122.87 84.4891V89.3611H121.82V84.8951C121.82 84.4378 121.736 84.0504 121.568 83.7331C121.409 83.4158 121.18 83.1731 120.882 83.0051C120.592 82.8278 120.256 82.7391 119.874 82.7391C119.491 82.7391 119.15 82.8278 118.852 83.0051C118.553 83.1731 118.32 83.4204 118.152 83.7471C117.984 84.0644 117.9 84.4471 117.9 84.8951V89.3611H116.85ZM127.479 89.5291C126.76 89.5291 126.13 89.3471 125.589 88.9831C125.048 88.6191 124.656 88.1244 124.413 87.4991L125.295 87.0791C125.51 87.5364 125.808 87.9004 126.191 88.1711C126.583 88.4418 127.012 88.5771 127.479 88.5771C127.927 88.5771 128.305 88.4698 128.613 88.2551C128.921 88.0311 129.075 87.7418 129.075 87.3871C129.075 87.1258 129 86.9204 128.851 86.7711C128.702 86.6124 128.529 86.4911 128.333 86.4071C128.137 86.3231 127.964 86.2624 127.815 86.2251L126.737 85.9171C126.046 85.7211 125.547 85.4458 125.239 85.0911C124.931 84.7364 124.777 84.3258 124.777 83.8591C124.777 83.4204 124.889 83.0378 125.113 82.7111C125.337 82.3844 125.64 82.1324 126.023 81.9551C126.406 81.7778 126.83 81.6891 127.297 81.6891C127.932 81.6891 128.506 81.8571 129.019 82.1931C129.542 82.5198 129.91 82.9771 130.125 83.5651L129.229 83.9851C129.042 83.5651 128.772 83.2384 128.417 83.0051C128.072 82.7624 127.684 82.6411 127.255 82.6411C126.835 82.6411 126.499 82.7484 126.247 82.9631C125.995 83.1778 125.869 83.4484 125.869 83.7751C125.869 84.0271 125.934 84.2278 126.065 84.3771C126.196 84.5264 126.345 84.6384 126.513 84.7131C126.69 84.7878 126.844 84.8438 126.975 84.8811L128.221 85.2451C128.828 85.4224 129.299 85.6978 129.635 86.0711C129.98 86.4444 130.153 86.8831 130.153 87.3871C130.153 87.7978 130.036 88.1664 129.803 88.4931C129.579 88.8198 129.266 89.0764 128.865 89.2631C128.464 89.4404 128.002 89.5291 127.479 89.5291ZM134.868 89.4451C134.196 89.4451 133.678 89.2491 133.314 88.8571C132.95 88.4651 132.768 87.9051 132.768 87.1771V82.9071H131.382V81.8571H131.732C132.049 81.8571 132.301 81.7544 132.488 81.5491C132.675 81.3344 132.768 81.0684 132.768 80.7511V80.1211H133.818V81.8571H135.47V82.9071H133.818V87.1771C133.818 87.4291 133.855 87.6531 133.93 87.8491C134.005 88.0358 134.131 88.1851 134.308 88.2971C134.495 88.4091 134.742 88.4651 135.05 88.4651C135.125 88.4651 135.213 88.4604 135.316 88.4511C135.419 88.4418 135.507 88.4324 135.582 88.4231V89.3611C135.47 89.3891 135.344 89.4078 135.204 89.4171C135.064 89.4358 134.952 89.4451 134.868 89.4451ZM137.426 89.3611V81.8571H138.476V89.3611H137.426ZM137.426 80.4711V78.9311H138.476V80.4711H137.426ZM143.495 89.4451C142.823 89.4451 142.305 89.2491 141.941 88.8571C141.577 88.4651 141.395 87.9051 141.395 87.1771V82.9071H140.009V81.8571H140.359C140.676 81.8571 140.928 81.7544 141.115 81.5491C141.302 81.3344 141.395 81.0684 141.395 80.7511V80.1211H142.445V81.8571H144.097V82.9071H142.445V87.1771C142.445 87.4291 142.482 87.6531 142.557 87.8491C142.632 88.0358 142.758 88.1851 142.935 88.2971C143.122 88.4091 143.369 88.4651 143.677 88.4651C143.752 88.4651 143.84 88.4604 143.943 88.4511C144.046 88.4418 144.134 88.4324 144.209 88.4231V89.3611C144.097 89.3891 143.971 89.4078 143.831 89.4171C143.691 89.4358 143.579 89.4451 143.495 89.4451ZM148.713 89.5291C148.19 89.5291 147.714 89.4078 147.285 89.1651C146.856 88.9131 146.515 88.5678 146.263 88.1291C146.02 87.6811 145.899 87.1678 145.899 86.5891V81.8571H146.949V86.4631C146.949 86.8644 147.028 87.2191 147.187 87.5271C147.355 87.8258 147.584 88.0591 147.873 88.2271C148.172 88.3951 148.512 88.4791 148.895 88.4791C149.278 88.4791 149.618 88.3951 149.917 88.2271C150.216 88.0498 150.449 87.8024 150.617 87.4851C150.785 87.1584 150.869 86.7711 150.869 86.3231V81.8571H151.919V89.3611H150.869V87.9051L151.107 87.9611C150.93 88.4464 150.626 88.8291 150.197 89.1091C149.768 89.3891 149.273 89.5291 148.713 89.5291ZM156.948 89.4451C156.276 89.4451 155.758 89.2491 155.394 88.8571C155.03 88.4651 154.848 87.9051 154.848 87.1771V82.9071H153.462V81.8571H153.812C154.13 81.8571 154.382 81.7544 154.568 81.5491C154.755 81.3344 154.848 81.0684 154.848 80.7511V80.1211H155.898V81.8571H157.55V82.9071H155.898V87.1771C155.898 87.4291 155.936 87.6531 156.01 87.8491C156.085 88.0358 156.211 88.1851 156.388 88.2971C156.575 88.4091 156.822 88.4651 157.13 88.4651C157.205 88.4651 157.294 88.4604 157.396 88.4511C157.499 88.4418 157.588 88.4324 157.662 88.4231V89.3611C157.55 89.3891 157.424 89.4078 157.284 89.4171C157.144 89.4358 157.032 89.4451 156.948 89.4451ZM162.649 89.5291C161.949 89.5291 161.314 89.3611 160.745 89.0251C160.185 88.6798 159.741 88.2084 159.415 87.6111C159.088 87.0138 158.925 86.3371 158.925 85.5811C158.925 84.8251 159.083 84.1578 159.401 83.5791C159.718 82.9911 160.147 82.5291 160.689 82.1931C161.239 81.8571 161.855 81.6891 162.537 81.6891C163.078 81.6891 163.559 81.7918 163.979 81.9971C164.408 82.1931 164.772 82.4638 165.071 82.8091C165.369 83.1451 165.598 83.5278 165.757 83.9571C165.915 84.3771 165.995 84.8111 165.995 85.2591C165.995 85.3524 165.99 85.4598 165.981 85.5811C165.971 85.6931 165.957 85.8098 165.939 85.9311H159.597V84.9511H165.337L164.833 85.3711C164.917 84.8578 164.856 84.4004 164.651 83.9991C164.455 83.5884 164.17 83.2664 163.797 83.0331C163.423 82.7904 163.003 82.6691 162.537 82.6691C162.07 82.6691 161.636 82.7904 161.235 83.0331C160.843 83.2758 160.535 83.6164 160.311 84.0551C160.087 84.4844 159.998 84.9978 160.045 85.5951C159.998 86.1924 160.091 86.7151 160.325 87.1631C160.567 87.6018 160.894 87.9424 161.305 88.1851C161.725 88.4278 162.173 88.5491 162.649 88.5491C163.199 88.5491 163.661 88.4184 164.035 88.1571C164.408 87.8958 164.711 87.5691 164.945 87.1771L165.841 87.6531C165.691 87.9891 165.463 88.3018 165.155 88.5911C164.847 88.8711 164.478 89.0998 164.049 89.2771C163.629 89.4451 163.162 89.5291 162.649 89.5291ZM173.739 89.5291C173.029 89.5291 172.385 89.3611 171.807 89.0251C171.228 88.6798 170.766 88.2131 170.421 87.6251C170.085 87.0278 169.917 86.3511 169.917 85.5951C169.917 84.8484 170.085 84.1811 170.421 83.5931C170.757 83.0051 171.209 82.5431 171.779 82.2071C172.357 81.8618 173.011 81.6891 173.739 81.6891C174.467 81.6891 175.115 81.8571 175.685 82.1931C176.263 82.5291 176.716 82.9911 177.043 83.5791C177.379 84.1671 177.547 84.8391 177.547 85.5951C177.547 86.3604 177.374 87.0418 177.029 87.6391C176.683 88.2271 176.221 88.6891 175.643 89.0251C175.073 89.3611 174.439 89.5291 173.739 89.5291ZM173.739 88.4791C174.243 88.4791 174.695 88.3531 175.097 88.1011C175.507 87.8491 175.829 87.5038 176.063 87.0651C176.305 86.6264 176.427 86.1364 176.427 85.5951C176.427 85.0538 176.305 84.5684 176.063 84.1391C175.829 83.7098 175.507 83.3691 175.097 83.1171C174.695 82.8651 174.243 82.7391 173.739 82.7391C173.235 82.7391 172.777 82.8651 172.367 83.1171C171.965 83.3691 171.643 83.7098 171.401 84.1391C171.158 84.5684 171.037 85.0538 171.037 85.5951C171.037 86.1364 171.158 86.6264 171.401 87.0651C171.643 87.5038 171.965 87.8491 172.367 88.1011C172.777 88.3531 173.235 88.4791 173.739 88.4791ZM179.895 89.3611V82.9071H178.397V81.8571H179.895V81.1851C179.895 80.6624 180.012 80.2238 180.245 79.8691C180.478 79.5051 180.786 79.2298 181.169 79.0431C181.552 78.8564 181.962 78.7631 182.401 78.7631C182.494 78.7631 182.602 78.7724 182.723 78.7911C182.844 78.8004 182.942 78.8144 183.017 78.8331V79.7851C182.952 79.7664 182.863 79.7571 182.751 79.7571C182.639 79.7478 182.56 79.7431 182.513 79.7431C182.065 79.7431 181.692 79.8504 181.393 80.0651C181.094 80.2798 180.945 80.6531 180.945 81.1851V81.8571H182.779V82.9071H180.945V89.3611H179.895ZM188.96 89.3611V79.9811H186.076V78.9311H192.936V79.9811H190.08V89.3611H188.96ZM196.596 89.5291C195.896 89.5291 195.261 89.3611 194.692 89.0251C194.132 88.6798 193.688 88.2084 193.362 87.6111C193.035 87.0138 192.872 86.3371 192.872 85.5811C192.872 84.8251 193.03 84.1578 193.348 83.5791C193.665 82.9911 194.094 82.5291 194.636 82.1931C195.186 81.8571 195.802 81.6891 196.484 81.6891C197.025 81.6891 197.506 81.7918 197.926 81.9971C198.355 82.1931 198.719 82.4638 199.018 82.8091C199.316 83.1451 199.545 83.5278 199.704 83.9571C199.862 84.3771 199.942 84.8111 199.942 85.2591C199.942 85.3524 199.937 85.4598 199.928 85.5811C199.918 85.6931 199.904 85.8098 199.886 85.9311H193.544V84.9511H199.284L198.78 85.3711C198.864 84.8578 198.803 84.4004 198.598 83.9991C198.402 83.5884 198.117 83.2664 197.744 83.0331C197.37 82.7904 196.95 82.6691 196.484 82.6691C196.017 82.6691 195.583 82.7904 195.182 83.0331C194.79 83.2758 194.482 83.6164 194.258 84.0551C194.034 84.4844 193.945 84.9978 193.992 85.5951C193.945 86.1924 194.038 86.7151 194.272 87.1631C194.514 87.6018 194.841 87.9424 195.252 88.1851C195.672 88.4278 196.12 88.5491 196.596 88.5491C197.146 88.5491 197.608 88.4184 197.982 88.1571C198.355 87.8958 198.658 87.5691 198.892 87.1771L199.788 87.6531C199.638 87.9891 199.41 88.3018 199.102 88.5911C198.794 88.8711 198.425 89.0998 197.996 89.2771C197.576 89.4451 197.109 89.5291 196.596 89.5291ZM205.223 89.5291C204.486 89.5291 203.837 89.3564 203.277 89.0111C202.717 88.6658 202.278 88.1991 201.961 87.6111C201.644 87.0138 201.485 86.3418 201.485 85.5951C201.485 84.8484 201.644 84.1811 201.961 83.5931C202.278 83.0051 202.717 82.5431 203.277 82.2071C203.837 81.8618 204.486 81.6891 205.223 81.6891C205.69 81.6891 206.128 81.7731 206.539 81.9411C206.95 82.1091 207.314 82.3378 207.631 82.6271C207.948 82.9071 208.186 83.2338 208.345 83.6071L207.393 84.0971C207.206 83.6958 206.922 83.3691 206.539 83.1171C206.156 82.8651 205.718 82.7391 205.223 82.7391C204.728 82.7391 204.28 82.8651 203.879 83.1171C203.487 83.3598 203.174 83.7004 202.941 84.1391C202.717 84.5684 202.605 85.0584 202.605 85.6091C202.605 86.1504 202.717 86.6404 202.941 87.0791C203.174 87.5084 203.487 87.8491 203.879 88.1011C204.28 88.3531 204.728 88.4791 205.223 88.4791C205.718 88.4791 206.152 88.3531 206.525 88.1011C206.908 87.8491 207.197 87.5131 207.393 87.0931L208.345 87.6111C208.186 87.9751 207.948 88.3018 207.631 88.5911C207.314 88.8804 206.95 89.1091 206.539 89.2771C206.128 89.4451 205.69 89.5291 205.223 89.5291ZM210.188 89.3611V78.7631H211.238V83.3131L211 83.2571C211.186 82.7718 211.49 82.3891 211.91 82.1091C212.339 81.8291 212.834 81.6891 213.394 81.6891C213.926 81.6891 214.402 81.8104 214.822 82.0531C215.251 82.2958 215.587 82.6318 215.83 83.0611C216.082 83.4811 216.208 83.9571 216.208 84.4891V89.3611H215.158V84.8951C215.158 84.4378 215.074 84.0504 214.906 83.7331C214.738 83.4158 214.504 83.1731 214.206 83.0051C213.916 82.8278 213.585 82.7391 213.212 82.7391C212.838 82.7391 212.502 82.8278 212.204 83.0051C211.905 83.1731 211.667 83.4204 211.49 83.7471C211.322 84.0644 211.238 84.4471 211.238 84.8951V89.3611H210.188ZM218.213 89.3611V81.8571H219.263V83.3131L219.025 83.2571C219.212 82.7718 219.515 82.3891 219.935 82.1091C220.364 81.8291 220.859 81.6891 221.419 81.6891C221.951 81.6891 222.427 81.8104 222.847 82.0531C223.276 82.2958 223.612 82.6318 223.855 83.0611C224.107 83.4811 224.233 83.9571 224.233 84.4891V89.3611H223.183V84.8951C223.183 84.4378 223.099 84.0504 222.931 83.7331C222.772 83.4158 222.544 83.1731 222.245 83.0051C221.956 82.8278 221.62 82.7391 221.237 82.7391C220.854 82.7391 220.514 82.8278 220.215 83.0051C219.916 83.1731 219.683 83.4204 219.515 83.7471C219.347 84.0644 219.263 84.4471 219.263 84.8951V89.3611H218.213ZM229.752 89.5291C229.043 89.5291 228.399 89.3611 227.82 89.0251C227.242 88.6798 226.78 88.2131 226.434 87.6251C226.098 87.0278 225.93 86.3511 225.93 85.5951C225.93 84.8484 226.098 84.1811 226.434 83.5931C226.77 83.0051 227.223 82.5431 227.792 82.2071C228.371 81.8618 229.024 81.6891 229.752 81.6891C230.48 81.6891 231.129 81.8571 231.698 82.1931C232.277 82.5291 232.73 82.9911 233.056 83.5791C233.392 84.1671 233.56 84.8391 233.56 85.5951C233.56 86.3604 233.388 87.0418 233.042 87.6391C232.697 88.2271 232.235 88.6891 231.656 89.0251C231.087 89.3611 230.452 89.5291 229.752 89.5291ZM229.752 88.4791C230.256 88.4791 230.709 88.3531 231.11 88.1011C231.521 87.8491 231.843 87.5038 232.076 87.0651C232.319 86.6264 232.44 86.1364 232.44 85.5951C232.44 85.0538 232.319 84.5684 232.076 84.1391C231.843 83.7098 231.521 83.3691 231.11 83.1171C230.709 82.8651 230.256 82.7391 229.752 82.7391C229.248 82.7391 228.791 82.8651 228.38 83.1171C227.979 83.3691 227.657 83.7098 227.414 84.1391C227.172 84.5684 227.05 85.0538 227.05 85.5951C227.05 86.1364 227.172 86.6264 227.414 87.0651C227.657 87.5038 227.979 87.8491 228.38 88.1011C228.791 88.3531 229.248 88.4791 229.752 88.4791ZM235.412 89.3611V78.7631H236.462V89.3611H235.412ZM242.125 89.5291C241.416 89.5291 240.772 89.3611 240.193 89.0251C239.615 88.6798 239.153 88.2131 238.807 87.6251C238.471 87.0278 238.303 86.3511 238.303 85.5951C238.303 84.8484 238.471 84.1811 238.807 83.5931C239.143 83.0051 239.596 82.5431 240.165 82.2071C240.744 81.8618 241.397 81.6891 242.125 81.6891C242.853 81.6891 243.502 81.8571 244.071 82.1931C244.65 82.5291 245.103 82.9911 245.429 83.5791C245.765 84.1671 245.933 84.8391 245.933 85.5951C245.933 86.3604 245.761 87.0418 245.415 87.6391C245.07 88.2271 244.608 88.6891 244.029 89.0251C243.46 89.3611 242.825 89.5291 242.125 89.5291ZM242.125 88.4791C242.629 88.4791 243.082 88.3531 243.483 88.1011C243.894 87.8491 244.216 87.5038 244.449 87.0651C244.692 86.6264 244.813 86.1364 244.813 85.5951C244.813 85.0538 244.692 84.5684 244.449 84.1391C244.216 83.7098 243.894 83.3691 243.483 83.1171C243.082 82.8651 242.629 82.7391 242.125 82.7391C241.621 82.7391 241.164 82.8651 240.753 83.1171C240.352 83.3691 240.03 83.7098 239.787 84.1391C239.545 84.5684 239.423 85.0538 239.423 85.5951C239.423 86.1364 239.545 86.6264 239.787 87.0651C240.03 87.5038 240.352 87.8491 240.753 88.1011C241.164 88.3531 241.621 88.4791 242.125 88.4791ZM251.341 92.4411C250.828 92.4411 250.352 92.3618 249.913 92.2031C249.484 92.0444 249.111 91.8251 248.793 91.5451C248.485 91.2744 248.247 90.9571 248.079 90.5931L249.045 90.0751C249.195 90.4298 249.461 90.7378 249.843 90.9991C250.226 91.2604 250.716 91.3911 251.313 91.3911C251.771 91.3911 252.191 91.3024 252.573 91.1251C252.956 90.9478 253.264 90.6864 253.497 90.3411C253.731 89.9958 253.847 89.5711 253.847 89.0671V87.4011L254.015 87.5551C253.754 88.0964 253.367 88.5164 252.853 88.8151C252.34 89.1044 251.78 89.2491 251.173 89.2491C250.473 89.2491 249.843 89.0811 249.283 88.7451C248.723 88.4091 248.28 87.9564 247.953 87.3871C247.636 86.8084 247.477 86.1691 247.477 85.4691C247.477 84.7598 247.636 84.1204 247.953 83.5511C248.28 82.9818 248.719 82.5291 249.269 82.1931C249.829 81.8571 250.464 81.6891 251.173 81.6891C251.78 81.6891 252.331 81.8291 252.825 82.1091C253.329 82.3891 253.726 82.7671 254.015 83.2431L253.847 83.5371V81.8571H254.897V89.0671C254.897 89.7111 254.743 90.2851 254.435 90.7891C254.137 91.3024 253.717 91.7038 253.175 91.9931C252.643 92.2918 252.032 92.4411 251.341 92.4411ZM251.229 88.1991C251.715 88.1991 252.153 88.0778 252.545 87.8351C252.937 87.5831 253.25 87.2518 253.483 86.8411C253.726 86.4211 253.847 85.9638 253.847 85.4691C253.847 84.9744 253.726 84.5218 253.483 84.1111C253.25 83.6911 252.937 83.3598 252.545 83.1171C252.153 82.8651 251.715 82.7391 251.229 82.7391C250.735 82.7391 250.287 82.8651 249.885 83.1171C249.484 83.3598 249.167 83.6864 248.933 84.0971C248.709 84.5078 248.597 84.9651 248.597 85.4691C248.597 85.9638 248.709 86.4211 248.933 86.8411C249.167 87.2518 249.479 87.5831 249.871 87.8351C250.273 88.0778 250.725 88.1991 251.229 88.1991ZM257.209 92.4411C257.059 92.4411 256.905 92.4271 256.747 92.3991C256.597 92.3804 256.448 92.3431 256.299 92.2871V91.3071C256.392 91.3164 256.509 91.3304 256.649 91.3491C256.798 91.3771 256.947 91.3911 257.097 91.3911C257.554 91.3911 257.904 91.2931 258.147 91.0971C258.389 90.9104 258.627 90.5464 258.861 90.0051L259.337 88.8851L259.309 89.8091L256.131 81.8571H257.265L259.869 88.4231H259.575L262.165 81.8571H263.327L259.897 90.3131C259.747 90.6771 259.556 91.0224 259.323 91.3491C259.099 91.6758 258.814 91.9371 258.469 92.1331C258.123 92.3384 257.703 92.4411 257.209 92.4411Z" fill="white"/>
<path d="M115.842 113.481C115.328 113.481 114.878 113.371 114.492 113.151C114.105 112.931 113.802 112.628 113.582 112.241C113.368 111.848 113.262 111.398 113.262 110.891V105.911H113.912V110.911C113.912 111.298 113.992 111.641 114.152 111.941C114.318 112.234 114.545 112.464 114.832 112.631C115.125 112.798 115.462 112.881 115.842 112.881C116.222 112.881 116.555 112.798 116.842 112.631C117.135 112.464 117.362 112.234 117.522 111.941C117.682 111.641 117.762 111.298 117.762 110.911V105.911H118.412V110.891C118.412 111.398 118.305 111.848 118.092 112.241C117.878 112.628 117.578 112.931 117.192 113.151C116.805 113.371 116.355 113.481 115.842 113.481ZM120.145 113.361V108.051H120.745V109.121L120.595 109.081C120.715 108.728 120.928 108.448 121.235 108.241C121.548 108.034 121.911 107.931 122.325 107.931C122.691 107.931 123.025 108.014 123.325 108.181C123.625 108.348 123.865 108.581 124.045 108.881C124.225 109.174 124.315 109.511 124.315 109.891V113.361H123.715V110.061C123.715 109.741 123.651 109.468 123.525 109.241C123.398 109.008 123.221 108.831 122.995 108.711C122.775 108.584 122.521 108.521 122.235 108.521C121.935 108.521 121.671 108.591 121.445 108.731C121.218 108.871 121.045 109.064 120.925 109.311C120.805 109.558 120.745 109.841 120.745 110.161V113.361H120.145ZM128.257 113.481C127.764 113.481 127.317 113.361 126.917 113.121C126.524 112.874 126.214 112.541 125.987 112.121C125.761 111.701 125.647 111.228 125.647 110.701C125.647 110.174 125.761 109.701 125.987 109.281C126.214 108.861 126.524 108.531 126.917 108.291C127.317 108.051 127.764 107.931 128.257 107.931C128.744 107.931 129.177 108.048 129.557 108.281C129.937 108.508 130.224 108.814 130.417 109.201L130.317 109.391V105.791H130.917V113.361H130.317V112.011L130.417 112.151C130.231 112.564 129.944 112.891 129.557 113.131C129.177 113.364 128.744 113.481 128.257 113.481ZM128.277 112.881C128.664 112.881 129.007 112.788 129.307 112.601C129.614 112.408 129.857 112.148 130.037 111.821C130.217 111.488 130.307 111.114 130.307 110.701C130.307 110.288 130.217 109.918 130.037 109.591C129.857 109.264 129.614 109.008 129.307 108.821C129.007 108.628 128.664 108.531 128.277 108.531C127.897 108.531 127.557 108.628 127.257 108.821C126.957 109.008 126.721 109.264 126.547 109.591C126.374 109.918 126.287 110.288 126.287 110.701C126.287 111.114 126.374 111.488 126.547 111.821C126.721 112.148 126.957 112.408 127.257 112.601C127.557 112.788 127.897 112.881 128.277 112.881ZM135.006 113.481C134.506 113.481 134.056 113.361 133.656 113.121C133.256 112.874 132.94 112.541 132.706 112.121C132.473 111.694 132.356 111.218 132.356 110.691C132.356 110.164 132.47 109.694 132.696 109.281C132.923 108.861 133.23 108.531 133.616 108.291C134.003 108.051 134.436 107.931 134.916 107.931C135.283 107.931 135.613 107.998 135.906 108.131C136.206 108.264 136.463 108.451 136.676 108.691C136.896 108.924 137.063 109.194 137.176 109.501C137.296 109.801 137.356 110.118 137.356 110.451C137.356 110.518 137.353 110.588 137.346 110.661C137.34 110.734 137.33 110.811 137.316 110.891H132.706V110.341H136.976L136.706 110.551C136.746 110.164 136.69 109.818 136.536 109.511C136.383 109.198 136.163 108.951 135.876 108.771C135.596 108.584 135.276 108.491 134.916 108.491C134.556 108.491 134.226 108.588 133.926 108.781C133.626 108.968 133.39 109.228 133.216 109.561C133.043 109.888 132.963 110.268 132.976 110.701C132.963 111.134 133.046 111.518 133.226 111.851C133.406 112.184 133.653 112.448 133.966 112.641C134.28 112.828 134.626 112.921 135.006 112.921C135.393 112.921 135.73 112.831 136.016 112.651C136.303 112.464 136.536 112.218 136.716 111.911L137.226 112.181C137.106 112.428 136.936 112.651 136.716 112.851C136.496 113.044 136.24 113.198 135.946 113.311C135.66 113.424 135.346 113.481 135.006 113.481ZM138.787 113.361V108.051H139.387V109.041L139.277 108.951C139.391 108.651 139.584 108.414 139.857 108.241C140.137 108.068 140.467 107.981 140.847 107.981H141.187V108.581H140.777C140.344 108.581 140.004 108.721 139.757 109.001C139.511 109.274 139.387 109.644 139.387 110.111V113.361H138.787ZM144.656 115.561C144.303 115.561 143.976 115.504 143.676 115.391C143.376 115.278 143.116 115.124 142.896 114.931C142.676 114.738 142.503 114.518 142.376 114.271L142.916 113.981C143.063 114.268 143.283 114.504 143.576 114.691C143.876 114.878 144.233 114.971 144.646 114.971C144.979 114.971 145.289 114.904 145.576 114.771C145.863 114.644 146.096 114.444 146.276 114.171C146.463 113.904 146.556 113.568 146.556 113.161V111.811L146.666 111.951C146.479 112.364 146.196 112.691 145.816 112.931C145.436 113.164 145.013 113.281 144.546 113.281C144.053 113.281 143.609 113.161 143.216 112.921C142.823 112.681 142.513 112.358 142.286 111.951C142.066 111.544 141.956 111.094 141.956 110.601C141.956 110.108 142.066 109.661 142.286 109.261C142.513 108.854 142.819 108.531 143.206 108.291C143.599 108.051 144.046 107.931 144.546 107.931C145.013 107.931 145.433 108.048 145.806 108.281C146.179 108.508 146.466 108.814 146.666 109.201L146.556 109.391V108.051H147.156V113.161C147.156 113.621 147.049 114.031 146.836 114.391C146.623 114.758 146.326 115.044 145.946 115.251C145.573 115.458 145.143 115.561 144.656 115.561ZM144.566 112.681C144.939 112.681 145.273 112.588 145.566 112.401C145.866 112.214 146.103 111.964 146.276 111.651C146.449 111.331 146.536 110.981 146.536 110.601C146.536 110.221 146.449 109.874 146.276 109.561C146.103 109.248 145.866 108.998 145.566 108.811C145.273 108.624 144.939 108.531 144.566 108.531C144.186 108.531 143.846 108.624 143.546 108.811C143.246 108.998 143.013 109.248 142.846 109.561C142.679 109.874 142.596 110.221 142.596 110.601C142.596 110.981 142.679 111.331 142.846 111.651C143.013 111.964 143.243 112.214 143.536 112.401C143.836 112.588 144.179 112.681 144.566 112.681ZM148.807 113.361V108.051H149.407V109.041L149.297 108.951C149.41 108.651 149.603 108.414 149.877 108.241C150.157 108.068 150.487 107.981 150.867 107.981H151.207V108.581H150.797C150.363 108.581 150.023 108.721 149.777 109.001C149.53 109.274 149.407 109.644 149.407 110.111V113.361H148.807ZM153.715 113.481C153.382 113.481 153.085 113.418 152.825 113.291C152.565 113.164 152.359 112.988 152.205 112.761C152.052 112.534 151.975 112.274 151.975 111.981C151.975 111.721 152.032 111.478 152.145 111.251C152.259 111.024 152.442 110.831 152.695 110.671C152.949 110.504 153.279 110.388 153.685 110.321L155.835 109.961V110.521L153.845 110.851C153.392 110.924 153.072 111.061 152.885 111.261C152.699 111.461 152.605 111.694 152.605 111.961C152.605 112.248 152.712 112.481 152.925 112.661C153.145 112.841 153.422 112.931 153.755 112.931C154.142 112.931 154.479 112.844 154.765 112.671C155.052 112.491 155.275 112.258 155.435 111.971C155.595 111.678 155.675 111.358 155.675 111.011V109.691C155.675 109.338 155.549 109.051 155.295 108.831C155.042 108.611 154.712 108.501 154.305 108.501C153.972 108.501 153.672 108.584 153.405 108.751C153.139 108.918 152.935 109.134 152.795 109.401L152.255 109.111C152.355 108.898 152.509 108.701 152.715 108.521C152.922 108.341 153.162 108.198 153.435 108.091C153.709 107.984 153.999 107.931 154.305 107.931C154.692 107.931 155.032 108.008 155.325 108.161C155.625 108.308 155.859 108.514 156.025 108.781C156.192 109.041 156.275 109.344 156.275 109.691V113.361H155.675V112.251L155.745 112.301C155.659 112.514 155.515 112.711 155.315 112.891C155.115 113.064 154.879 113.208 154.605 113.321C154.339 113.428 154.042 113.481 153.715 113.481ZM160.318 113.481C159.825 113.481 159.378 113.361 158.978 113.121C158.585 112.874 158.275 112.541 158.048 112.121C157.821 111.701 157.708 111.228 157.708 110.701C157.708 110.174 157.821 109.701 158.048 109.281C158.275 108.861 158.585 108.531 158.978 108.291C159.378 108.051 159.825 107.931 160.318 107.931C160.805 107.931 161.238 108.048 161.618 108.281C161.998 108.508 162.285 108.814 162.478 109.201L162.378 109.391V105.791H162.978V113.361H162.378V112.011L162.478 112.151C162.291 112.564 162.005 112.891 161.618 113.131C161.238 113.364 160.805 113.481 160.318 113.481ZM160.338 112.881C160.725 112.881 161.068 112.788 161.368 112.601C161.675 112.408 161.918 112.148 162.098 111.821C162.278 111.488 162.368 111.114 162.368 110.701C162.368 110.288 162.278 109.918 162.098 109.591C161.918 109.264 161.675 109.008 161.368 108.821C161.068 108.628 160.725 108.531 160.338 108.531C159.958 108.531 159.618 108.628 159.318 108.821C159.018 109.008 158.781 109.264 158.608 109.591C158.435 109.918 158.348 110.288 158.348 110.701C158.348 111.114 158.435 111.488 158.608 111.821C158.781 112.148 159.018 112.408 159.318 112.601C159.618 112.788 159.958 112.881 160.338 112.881ZM166.517 113.481C166.157 113.481 165.824 113.398 165.517 113.231C165.217 113.064 164.977 112.831 164.797 112.531C164.617 112.224 164.527 111.861 164.527 111.441V108.051H165.127V111.391C165.127 111.704 165.19 111.974 165.317 112.201C165.45 112.421 165.627 112.591 165.847 112.711C166.074 112.831 166.327 112.891 166.607 112.891C166.914 112.891 167.177 112.821 167.397 112.681C167.624 112.541 167.797 112.348 167.917 112.101C168.037 111.848 168.097 111.561 168.097 111.241V108.051H168.697V113.361H168.097V112.281L168.247 112.331C168.127 112.678 167.914 112.958 167.607 113.171C167.3 113.378 166.937 113.481 166.517 113.481ZM171.88 113.481C171.546 113.481 171.25 113.418 170.99 113.291C170.73 113.164 170.523 112.988 170.37 112.761C170.216 112.534 170.14 112.274 170.14 111.981C170.14 111.721 170.196 111.478 170.31 111.251C170.423 111.024 170.606 110.831 170.86 110.671C171.113 110.504 171.443 110.388 171.85 110.321L174 109.961V110.521L172.01 110.851C171.556 110.924 171.236 111.061 171.05 111.261C170.863 111.461 170.77 111.694 170.77 111.961C170.77 112.248 170.876 112.481 171.09 112.661C171.31 112.841 171.586 112.931 171.92 112.931C172.306 112.931 172.643 112.844 172.93 112.671C173.216 112.491 173.44 112.258 173.6 111.971C173.76 111.678 173.84 111.358 173.84 111.011V109.691C173.84 109.338 173.713 109.051 173.46 108.831C173.206 108.611 172.876 108.501 172.47 108.501C172.136 108.501 171.836 108.584 171.57 108.751C171.303 108.918 171.1 109.134 170.96 109.401L170.42 109.111C170.52 108.898 170.673 108.701 170.88 108.521C171.086 108.341 171.326 108.198 171.6 108.091C171.873 107.984 172.163 107.931 172.47 107.931C172.856 107.931 173.196 108.008 173.49 108.161C173.79 108.308 174.023 108.514 174.19 108.781C174.356 109.041 174.44 109.344 174.44 109.691V113.361H173.84V112.251L173.91 112.301C173.823 112.514 173.68 112.711 173.48 112.891C173.28 113.064 173.043 113.208 172.77 113.321C172.503 113.428 172.206 113.481 171.88 113.481ZM177.924 113.421C177.484 113.421 177.144 113.298 176.904 113.051C176.664 112.798 176.544 112.431 176.544 111.951V108.621H175.544V108.051H175.924C176.124 108.051 176.278 107.991 176.384 107.871C176.491 107.751 176.544 107.588 176.544 107.381V106.811H177.144V108.051H178.304V108.621H177.144V111.951C177.144 112.098 177.164 112.241 177.204 112.381C177.251 112.521 177.338 112.634 177.464 112.721C177.591 112.808 177.774 112.851 178.014 112.851C178.068 112.851 178.131 112.848 178.204 112.841C178.284 112.834 178.348 112.828 178.394 112.821V113.361C178.321 113.381 178.238 113.394 178.144 113.401C178.051 113.414 177.978 113.421 177.924 113.421ZM182.067 113.481C181.567 113.481 181.117 113.361 180.717 113.121C180.317 112.874 180 112.541 179.767 112.121C179.534 111.694 179.417 111.218 179.417 110.691C179.417 110.164 179.53 109.694 179.757 109.281C179.984 108.861 180.29 108.531 180.677 108.291C181.064 108.051 181.497 107.931 181.977 107.931C182.344 107.931 182.674 107.998 182.967 108.131C183.267 108.264 183.524 108.451 183.737 108.691C183.957 108.924 184.124 109.194 184.237 109.501C184.357 109.801 184.417 110.118 184.417 110.451C184.417 110.518 184.414 110.588 184.407 110.661C184.4 110.734 184.39 110.811 184.377 110.891H179.767V110.341H184.037L183.767 110.551C183.807 110.164 183.75 109.818 183.597 109.511C183.444 109.198 183.224 108.951 182.937 108.771C182.657 108.584 182.337 108.491 181.977 108.491C181.617 108.491 181.287 108.588 180.987 108.781C180.687 108.968 180.45 109.228 180.277 109.561C180.104 109.888 180.024 110.268 180.037 110.701C180.024 111.134 180.107 111.518 180.287 111.851C180.467 112.184 180.714 112.448 181.027 112.641C181.34 112.828 181.687 112.921 182.067 112.921C182.454 112.921 182.79 112.831 183.077 112.651C183.364 112.464 183.597 112.218 183.777 111.911L184.287 112.181C184.167 112.428 183.997 112.651 183.777 112.851C183.557 113.044 183.3 113.198 183.007 113.311C182.72 113.424 182.407 113.481 182.067 113.481Z" fill="white"/>
</g>
<line x1="7.99957" y1="175.967" x2="7.99958" y2="259.967" stroke="#595959" stroke-dasharray="6 6"/>
<rect x="1.5" y="168.653" width="14" height="14" rx="7" fill="url(#paint2_linear_55_1495)" stroke="white" stroke-width="3"/>
<path d="M36.644 181.153V179.711L39.472 176.757C40.032 176.169 40.4613 175.702 40.76 175.357C41.068 175.002 41.2827 174.699 41.404 174.447C41.5253 174.195 41.586 173.938 41.586 173.677C41.586 173.238 41.446 172.893 41.166 172.641C40.8953 172.389 40.5453 172.263 40.116 172.263C39.668 172.263 39.2807 172.393 38.954 172.655C38.6273 172.907 38.3893 173.28 38.24 173.775L36.574 173.257C36.686 172.706 36.9147 172.23 37.26 171.829C37.6053 171.418 38.0253 171.105 38.52 170.891C39.024 170.667 39.556 170.555 40.116 170.555C40.788 170.555 41.376 170.676 41.88 170.919C42.3933 171.161 42.79 171.502 43.07 171.941C43.3593 172.379 43.504 172.893 43.504 173.481C43.504 173.854 43.434 174.223 43.294 174.587C43.154 174.951 42.944 175.324 42.664 175.707C42.384 176.08 42.02 176.5 41.572 176.967L39.122 179.543H43.644V181.153H36.644ZM49.3095 181.321C48.4788 181.321 47.7508 181.097 47.1255 180.649C46.5002 180.201 46.0102 179.571 45.6555 178.759C45.3102 177.947 45.1375 177.004 45.1375 175.931C45.1375 174.848 45.3102 173.905 45.6555 173.103C46.0008 172.3 46.4862 171.675 47.1115 171.227C47.7368 170.779 48.4648 170.555 49.2955 170.555C50.1448 170.555 50.8775 170.779 51.4935 171.227C52.1188 171.675 52.6088 172.305 52.9635 173.117C53.3182 173.919 53.4955 174.857 53.4955 175.931C53.4955 177.004 53.3182 177.947 52.9635 178.759C52.6182 179.561 52.1328 180.191 51.5075 180.649C50.8822 181.097 50.1495 181.321 49.3095 181.321ZM49.3235 179.585C49.7995 179.585 50.2055 179.44 50.5415 179.151C50.8775 178.852 51.1342 178.432 51.3115 177.891C51.4982 177.34 51.5915 176.687 51.5915 175.931C51.5915 175.175 51.4982 174.526 51.3115 173.985C51.1342 173.434 50.8728 173.014 50.5275 172.725C50.1915 172.435 49.7808 172.291 49.2955 172.291C48.8288 172.291 48.4275 172.435 48.0915 172.725C47.7555 173.014 47.4942 173.434 47.3075 173.985C47.1302 174.526 47.0415 175.175 47.0415 175.931C47.0415 176.677 47.1302 177.326 47.3075 177.877C47.4942 178.418 47.7555 178.838 48.0915 179.137C48.4368 179.435 48.8475 179.585 49.3235 179.585ZM54.9096 181.153V179.711L57.7376 176.757C58.2976 176.169 58.727 175.702 59.0256 175.357C59.3336 175.002 59.5483 174.699 59.6696 174.447C59.791 174.195 59.8516 173.938 59.8516 173.677C59.8516 173.238 59.7116 172.893 59.4316 172.641C59.161 172.389 58.811 172.263 58.3816 172.263C57.9336 172.263 57.5463 172.393 57.2196 172.655C56.893 172.907 56.655 173.28 56.5056 173.775L54.8396 173.257C54.9516 172.706 55.1803 172.23 55.5256 171.829C55.871 171.418 56.291 171.105 56.7856 170.891C57.2896 170.667 57.8216 170.555 58.3816 170.555C59.0536 170.555 59.6416 170.676 60.1456 170.919C60.659 171.161 61.0556 171.502 61.3356 171.941C61.625 172.379 61.7696 172.893 61.7696 173.481C61.7696 173.854 61.6996 174.223 61.5596 174.587C61.4196 174.951 61.2096 175.324 60.9296 175.707C60.6496 176.08 60.2856 176.5 59.8376 176.967L57.3876 179.543H61.9096V181.153H54.9096ZM66.7211 181.321C66.1518 181.321 65.6105 181.218 65.0971 181.013C64.5931 180.798 64.1591 180.499 63.7951 180.117C63.4405 179.725 63.1978 179.263 63.0671 178.731L64.7331 178.143C64.9011 178.619 65.1578 178.983 65.5031 179.235C65.8485 179.477 66.2545 179.599 66.7211 179.599C67.0945 179.599 67.4165 179.529 67.6871 179.389C67.9671 179.249 68.1865 179.048 68.3451 178.787C68.5038 178.516 68.5831 178.199 68.5831 177.835C68.5831 177.471 68.5038 177.163 68.3451 176.911C68.1958 176.649 67.9811 176.449 67.7011 176.309C67.4211 176.169 67.0898 176.099 66.7071 176.099C66.5298 176.099 66.3431 176.117 66.1471 176.155C65.9605 176.192 65.7925 176.248 65.6431 176.323L65.2091 175.413L67.9111 172.333H63.6551V170.723H70.0531V172.221L67.3371 175.399L67.3651 174.685C67.9905 174.694 68.5365 174.829 69.0031 175.091C69.4698 175.352 69.8338 175.711 70.0951 176.169C70.3565 176.626 70.4871 177.163 70.4871 177.779C70.4871 178.451 70.3238 179.057 69.9971 179.599C69.6705 180.131 69.2225 180.551 68.6531 180.859C68.0838 181.167 67.4398 181.321 66.7211 181.321Z" fill="white"/>
<rect x="1.59521" y="257.003" width="14" height="14" rx="7" fill="url(#paint3_linear_55_1495)" stroke="white" stroke-width="3"/>
<path d="M36.7392 269.503V268.061L39.5672 265.107C40.1272 264.519 40.5565 264.052 40.8552 263.707C41.1632 263.352 41.3779 263.049 41.4992 262.797C41.6205 262.545 41.6812 262.288 41.6812 262.027C41.6812 261.588 41.5412 261.243 41.2612 260.991C40.9905 260.739 40.6405 260.613 40.2112 260.613C39.7632 260.613 39.3759 260.743 39.0492 261.005C38.7225 261.257 38.4845 261.63 38.3352 262.125L36.6692 261.607C36.7812 261.056 37.0099 260.58 37.3552 260.179C37.7005 259.768 38.1205 259.455 38.6152 259.241C39.1192 259.017 39.6512 258.905 40.2112 258.905C40.8832 258.905 41.4712 259.026 41.9752 259.269C42.4885 259.511 42.8852 259.852 43.1652 260.291C43.4545 260.729 43.5992 261.243 43.5992 261.831C43.5992 262.204 43.5292 262.573 43.3892 262.937C43.2492 263.301 43.0392 263.674 42.7592 264.057C42.4792 264.43 42.1152 264.85 41.6672 265.317L39.2172 267.893H43.7392V269.503H36.7392ZM49.4047 269.671C48.5741 269.671 47.8461 269.447 47.2207 268.999C46.5954 268.551 46.1054 267.921 45.7507 267.109C45.4054 266.297 45.2327 265.354 45.2327 264.281C45.2327 263.198 45.4054 262.255 45.7507 261.453C46.0961 260.65 46.5814 260.025 47.2067 259.577C47.8321 259.129 48.5601 258.905 49.3907 258.905C50.2401 258.905 50.9727 259.129 51.5887 259.577C52.2141 260.025 52.7041 260.655 53.0587 261.467C53.4134 262.269 53.5907 263.207 53.5907 264.281C53.5907 265.354 53.4134 266.297 53.0587 267.109C52.7134 267.911 52.2281 268.541 51.6027 268.999C50.9774 269.447 50.2447 269.671 49.4047 269.671ZM49.4187 267.935C49.8947 267.935 50.3007 267.79 50.6367 267.501C50.9727 267.202 51.2294 266.782 51.4067 266.241C51.5934 265.69 51.6867 265.037 51.6867 264.281C51.6867 263.525 51.5934 262.876 51.4067 262.335C51.2294 261.784 50.9681 261.364 50.6227 261.075C50.2867 260.785 49.8761 260.641 49.3907 260.641C48.9241 260.641 48.5227 260.785 48.1867 261.075C47.8507 261.364 47.5894 261.784 47.4027 262.335C47.2254 262.876 47.1367 263.525 47.1367 264.281C47.1367 265.027 47.2254 265.676 47.4027 266.227C47.5894 266.768 47.8507 267.188 48.1867 267.487C48.5321 267.785 48.9427 267.935 49.4187 267.935ZM55.0048 269.503V268.061L57.8328 265.107C58.3928 264.519 58.8222 264.052 59.1208 263.707C59.4288 263.352 59.6435 263.049 59.7648 262.797C59.8862 262.545 59.9468 262.288 59.9468 262.027C59.9468 261.588 59.8068 261.243 59.5268 260.991C59.2562 260.739 58.9062 260.613 58.4768 260.613C58.0288 260.613 57.6415 260.743 57.3148 261.005C56.9882 261.257 56.7502 261.63 56.6008 262.125L54.9348 261.607C55.0468 261.056 55.2755 260.58 55.6208 260.179C55.9662 259.768 56.3862 259.455 56.8808 259.241C57.3848 259.017 57.9168 258.905 58.4768 258.905C59.1488 258.905 59.7368 259.026 60.2408 259.269C60.7542 259.511 61.1508 259.852 61.4308 260.291C61.7202 260.729 61.8648 261.243 61.8648 261.831C61.8648 262.204 61.7948 262.573 61.6548 262.937C61.5148 263.301 61.3048 263.674 61.0248 264.057C60.7448 264.43 60.3808 264.85 59.9328 265.317L57.4828 267.893H62.0048V269.503H55.0048ZM67.6704 269.671C66.8397 269.671 66.1117 269.447 65.4864 268.999C64.861 268.551 64.371 267.921 64.0164 267.109C63.671 266.297 63.4984 265.354 63.4984 264.281C63.4984 263.198 63.671 262.255 64.0164 261.453C64.3617 260.65 64.847 260.025 65.4724 259.577C66.0977 259.129 66.8257 258.905 67.6564 258.905C68.5057 258.905 69.2384 259.129 69.8544 259.577C70.4797 260.025 70.9697 260.655 71.3244 261.467C71.679 262.269 71.8564 263.207 71.8564 264.281C71.8564 265.354 71.679 266.297 71.3244 267.109C70.979 267.911 70.4937 268.541 69.8684 268.999C69.243 269.447 68.5104 269.671 67.6704 269.671ZM67.6844 267.935C68.1604 267.935 68.5664 267.79 68.9024 267.501C69.2384 267.202 69.495 266.782 69.6724 266.241C69.859 265.69 69.9524 265.037 69.9524 264.281C69.9524 263.525 69.859 262.876 69.6724 262.335C69.495 261.784 69.2337 261.364 68.8884 261.075C68.5524 260.785 68.1417 260.641 67.6564 260.641C67.1897 260.641 66.7884 260.785 66.4524 261.075C66.1164 261.364 65.855 261.784 65.6684 262.335C65.491 262.876 65.4024 263.525 65.4024 264.281C65.4024 265.027 65.491 265.676 65.6684 266.227C65.855 266.768 66.1164 267.188 66.4524 267.487C66.7977 267.785 67.2084 267.935 67.6844 267.935Z" fill="white"/>
<g filter="url(#filter1_b_55_1495)">
<rect x="97.0952" y="165.828" width="217.094" height="108" rx="8" fill="url(#paint4_linear_55_1495)" fill-opacity="0.6"/>
<path d="M114.247 200.828V188.908H115.943L122.503 197.74L121.623 197.916V188.908H123.799V200.828H122.087L115.623 191.932L116.423 191.756V200.828H114.247ZM128.571 201.02C127.963 201.02 127.435 200.918 126.987 200.716C126.539 200.513 126.192 200.225 125.947 199.852C125.701 199.468 125.579 199.025 125.579 198.524C125.579 198.044 125.685 197.617 125.899 197.244C126.112 196.86 126.443 196.54 126.891 196.284C127.339 196.028 127.904 195.846 128.587 195.74L131.435 195.276V196.876L128.987 197.292C128.571 197.366 128.261 197.5 128.059 197.692C127.856 197.884 127.755 198.134 127.755 198.444C127.755 198.742 127.867 198.982 128.091 199.164C128.325 199.334 128.613 199.42 128.955 199.42C129.392 199.42 129.776 199.329 130.107 199.148C130.448 198.956 130.709 198.694 130.891 198.364C131.083 198.033 131.179 197.67 131.179 197.276V195.036C131.179 194.662 131.029 194.353 130.731 194.108C130.443 193.852 130.059 193.724 129.579 193.724C129.131 193.724 128.731 193.846 128.379 194.092C128.037 194.326 127.787 194.641 127.627 195.036L125.915 194.204C126.085 193.745 126.352 193.35 126.715 193.02C127.088 192.678 127.525 192.412 128.027 192.22C128.528 192.028 129.072 191.932 129.659 191.932C130.373 191.932 131.003 192.065 131.547 192.332C132.091 192.588 132.512 192.95 132.811 193.42C133.12 193.878 133.275 194.417 133.275 195.036V200.828H131.291V199.34L131.739 199.308C131.515 199.681 131.248 199.996 130.939 200.252C130.629 200.497 130.277 200.689 129.883 200.828C129.488 200.956 129.051 201.02 128.571 201.02ZM139.024 200.924C138.042 200.924 137.28 200.657 136.736 200.124C136.202 199.58 135.936 198.817 135.936 197.836V193.996H134.432V192.124H134.592C135.018 192.124 135.349 192.012 135.584 191.788C135.818 191.564 135.936 191.238 135.936 190.812V190.14H138.032V192.124H140.032V193.996H138.032V197.724C138.032 198.012 138.08 198.257 138.176 198.46C138.282 198.662 138.442 198.817 138.656 198.924C138.88 199.03 139.162 199.084 139.504 199.084C139.578 199.084 139.664 199.078 139.76 199.068C139.866 199.057 139.968 199.046 140.064 199.036V200.828C139.914 200.849 139.744 200.87 139.552 200.892C139.36 200.913 139.184 200.924 139.024 200.924ZM144.769 201.02C144.097 201.02 143.51 200.87 143.009 200.572C142.518 200.273 142.14 199.857 141.873 199.324C141.617 198.79 141.489 198.166 141.489 197.452V192.124H143.585V197.276C143.585 197.638 143.654 197.958 143.793 198.236C143.942 198.502 144.15 198.716 144.417 198.876C144.694 199.025 145.004 199.1 145.345 199.1C145.686 199.1 145.99 199.025 146.257 198.876C146.524 198.716 146.732 198.497 146.881 198.22C147.03 197.942 147.105 197.612 147.105 197.228V192.124H149.201V200.828H147.217V199.116L147.393 199.42C147.19 199.953 146.854 200.353 146.385 200.62C145.926 200.886 145.388 201.02 144.769 201.02ZM151.149 200.828V192.124H153.117V194.06L152.957 193.772C153.16 193.121 153.475 192.668 153.901 192.412C154.339 192.156 154.861 192.028 155.469 192.028H155.981V193.884H155.229C154.632 193.884 154.152 194.07 153.789 194.444C153.427 194.806 153.245 195.318 153.245 195.98V200.828H151.149ZM159.774 201.02C159.166 201.02 158.638 200.918 158.19 200.716C157.742 200.513 157.395 200.225 157.15 199.852C156.904 199.468 156.782 199.025 156.782 198.524C156.782 198.044 156.888 197.617 157.102 197.244C157.315 196.86 157.646 196.54 158.094 196.284C158.542 196.028 159.107 195.846 159.79 195.74L162.638 195.276V196.876L160.19 197.292C159.774 197.366 159.464 197.5 159.262 197.692C159.059 197.884 158.958 198.134 158.958 198.444C158.958 198.742 159.07 198.982 159.294 199.164C159.528 199.334 159.816 199.42 160.158 199.42C160.595 199.42 160.979 199.329 161.31 199.148C161.651 198.956 161.912 198.694 162.094 198.364C162.286 198.033 162.382 197.67 162.382 197.276V195.036C162.382 194.662 162.232 194.353 161.934 194.108C161.646 193.852 161.262 193.724 160.782 193.724C160.334 193.724 159.934 193.846 159.582 194.092C159.24 194.326 158.99 194.641 158.83 195.036L157.118 194.204C157.288 193.745 157.555 193.35 157.918 193.02C158.291 192.678 158.728 192.412 159.23 192.22C159.731 192.028 160.275 191.932 160.862 191.932C161.576 191.932 162.206 192.065 162.75 192.332C163.294 192.588 163.715 192.95 164.014 193.42C164.323 193.878 164.478 194.417 164.478 195.036V200.828H162.494V199.34L162.942 199.308C162.718 199.681 162.451 199.996 162.142 200.252C161.832 200.497 161.48 200.689 161.086 200.828C160.691 200.956 160.254 201.02 159.774 201.02ZM166.415 200.828V188.716H168.511V200.828H166.415ZM177.722 201.02C176.965 201.02 176.261 200.881 175.61 200.604C174.97 200.326 174.415 199.942 173.946 199.452C173.487 198.95 173.151 198.369 172.938 197.708L174.746 196.924C175.034 197.606 175.45 198.145 175.994 198.54C176.538 198.924 177.151 199.116 177.834 199.116C178.218 199.116 178.549 199.057 178.826 198.94C179.114 198.812 179.333 198.641 179.482 198.428C179.642 198.214 179.722 197.958 179.722 197.66C179.722 197.308 179.615 197.02 179.402 196.796C179.199 196.561 178.89 196.38 178.474 196.252L176.186 195.516C175.258 195.228 174.559 194.796 174.09 194.22C173.621 193.644 173.386 192.966 173.386 192.188C173.386 191.505 173.551 190.902 173.882 190.38C174.223 189.857 174.693 189.452 175.29 189.164C175.898 188.865 176.591 188.716 177.37 188.716C178.085 188.716 178.741 188.844 179.338 189.1C179.935 189.345 180.447 189.692 180.874 190.14C181.311 190.577 181.637 191.094 181.85 191.692L180.058 192.492C179.823 191.894 179.471 191.436 179.002 191.116C178.533 190.785 177.989 190.62 177.37 190.62C177.007 190.62 176.687 190.684 176.41 190.812C176.133 190.929 175.914 191.1 175.754 191.324C175.605 191.537 175.53 191.793 175.53 192.092C175.53 192.422 175.637 192.716 175.85 192.972C176.063 193.217 176.389 193.409 176.826 193.548L179.018 194.236C179.967 194.545 180.677 194.972 181.146 195.516C181.626 196.06 181.866 196.732 181.866 197.532C181.866 198.214 181.69 198.817 181.338 199.34C180.986 199.862 180.501 200.273 179.882 200.572C179.263 200.87 178.543 201.02 177.722 201.02ZM187.841 201.02C186.977 201.02 186.199 200.822 185.505 200.428C184.823 200.022 184.284 199.478 183.889 198.796C183.495 198.102 183.297 197.324 183.297 196.46C183.297 195.596 183.495 194.822 183.889 194.14C184.284 193.457 184.823 192.918 185.505 192.524C186.199 192.129 186.977 191.932 187.841 191.932C188.46 191.932 189.036 192.044 189.569 192.268C190.103 192.481 190.561 192.78 190.945 193.164C191.34 193.537 191.623 193.985 191.793 194.508L189.953 195.308C189.793 194.87 189.521 194.518 189.137 194.252C188.764 193.985 188.332 193.852 187.841 193.852C187.383 193.852 186.972 193.964 186.609 194.188C186.257 194.412 185.98 194.721 185.777 195.116C185.575 195.51 185.473 195.964 185.473 196.476C185.473 196.988 185.575 197.441 185.777 197.836C185.98 198.23 186.257 198.54 186.609 198.764C186.972 198.988 187.383 199.1 187.841 199.1C188.343 199.1 188.78 198.966 189.153 198.7C189.527 198.433 189.793 198.076 189.953 197.628L191.793 198.46C191.623 198.95 191.345 199.393 190.961 199.788C190.577 200.172 190.119 200.476 189.585 200.7C189.052 200.913 188.471 201.02 187.841 201.02ZM193.384 200.828V192.124H195.48V200.828H193.384ZM193.384 191.148V188.908H195.48V191.148H193.384ZM201.543 201.02C200.647 201.02 199.863 200.817 199.191 200.412C198.519 200.006 197.996 199.457 197.623 198.764C197.25 198.07 197.063 197.302 197.063 196.46C197.063 195.585 197.25 194.812 197.623 194.14C198.007 193.457 198.524 192.918 199.175 192.524C199.836 192.129 200.572 191.932 201.383 191.932C202.066 191.932 202.663 192.044 203.175 192.268C203.698 192.492 204.14 192.801 204.503 193.196C204.866 193.59 205.143 194.044 205.335 194.556C205.527 195.057 205.623 195.601 205.623 196.188C205.623 196.337 205.612 196.492 205.591 196.652C205.58 196.812 205.554 196.95 205.511 197.068H198.791V195.468H204.327L203.335 196.22C203.431 195.729 203.404 195.292 203.255 194.908C203.116 194.524 202.882 194.22 202.551 193.996C202.231 193.772 201.842 193.66 201.383 193.66C200.946 193.66 200.556 193.772 200.215 193.996C199.874 194.209 199.612 194.529 199.431 194.956C199.26 195.372 199.196 195.878 199.239 196.476C199.196 197.009 199.266 197.484 199.447 197.9C199.639 198.305 199.916 198.62 200.279 198.844C200.652 199.068 201.079 199.18 201.559 199.18C202.039 199.18 202.444 199.078 202.775 198.876C203.116 198.673 203.383 198.401 203.575 198.06L205.271 198.892C205.1 199.308 204.834 199.676 204.471 199.996C204.108 200.316 203.676 200.566 203.175 200.748C202.684 200.929 202.14 201.02 201.543 201.02ZM207.212 200.828V192.124H209.18V193.836L209.02 193.532C209.223 193.009 209.553 192.614 210.012 192.348C210.481 192.07 211.025 191.932 211.644 191.932C212.284 191.932 212.849 192.07 213.34 192.348C213.841 192.625 214.231 193.014 214.508 193.516C214.785 194.006 214.924 194.577 214.924 195.228V200.828H212.828V195.724C212.828 195.34 212.753 195.009 212.604 194.732C212.455 194.454 212.247 194.241 211.98 194.092C211.724 193.932 211.42 193.852 211.068 193.852C210.727 193.852 210.423 193.932 210.156 194.092C209.889 194.241 209.681 194.454 209.532 194.732C209.383 195.009 209.308 195.34 209.308 195.724V200.828H207.212ZM220.888 201.02C220.024 201.02 219.246 200.822 218.552 200.428C217.87 200.022 217.331 199.478 216.936 198.796C216.542 198.102 216.344 197.324 216.344 196.46C216.344 195.596 216.542 194.822 216.936 194.14C217.331 193.457 217.87 192.918 218.552 192.524C219.246 192.129 220.024 191.932 220.888 191.932C221.507 191.932 222.083 192.044 222.616 192.268C223.15 192.481 223.608 192.78 223.992 193.164C224.387 193.537 224.67 193.985 224.84 194.508L223 195.308C222.84 194.87 222.568 194.518 222.184 194.252C221.811 193.985 221.379 193.852 220.888 193.852C220.43 193.852 220.019 193.964 219.656 194.188C219.304 194.412 219.027 194.721 218.824 195.116C218.622 195.51 218.52 195.964 218.52 196.476C218.52 196.988 218.622 197.441 218.824 197.836C219.027 198.23 219.304 198.54 219.656 198.764C220.019 198.988 220.43 199.1 220.888 199.1C221.39 199.1 221.827 198.966 222.2 198.7C222.574 198.433 222.84 198.076 223 197.628L224.84 198.46C224.67 198.95 224.392 199.393 224.008 199.788C223.624 200.172 223.166 200.476 222.632 200.7C222.099 200.913 221.518 201.02 220.888 201.02ZM230.559 201.02C229.663 201.02 228.879 200.817 228.207 200.412C227.535 200.006 227.012 199.457 226.639 198.764C226.265 198.07 226.079 197.302 226.079 196.46C226.079 195.585 226.265 194.812 226.639 194.14C227.023 193.457 227.54 192.918 228.191 192.524C228.852 192.129 229.588 191.932 230.399 191.932C231.081 191.932 231.679 192.044 232.191 192.268C232.713 192.492 233.156 192.801 233.519 193.196C233.881 193.59 234.159 194.044 234.351 194.556C234.543 195.057 234.639 195.601 234.639 196.188C234.639 196.337 234.628 196.492 234.607 196.652C234.596 196.812 234.569 196.95 234.527 197.068H227.807V195.468H233.343L232.351 196.22C232.447 195.729 232.42 195.292 232.271 194.908C232.132 194.524 231.897 194.22 231.567 193.996C231.247 193.772 230.857 193.66 230.399 193.66C229.961 193.66 229.572 193.772 229.231 193.996C228.889 194.209 228.628 194.529 228.447 194.956C228.276 195.372 228.212 195.878 228.255 196.476C228.212 197.009 228.281 197.484 228.463 197.9C228.655 198.305 228.932 198.62 229.295 198.844C229.668 199.068 230.095 199.18 230.575 199.18C231.055 199.18 231.46 199.078 231.791 198.876C232.132 198.673 232.399 198.401 232.591 198.06L234.287 198.892C234.116 199.308 233.849 199.676 233.487 199.996C233.124 200.316 232.692 200.566 232.191 200.748C231.7 200.929 231.156 201.02 230.559 201.02Z" fill="white"/>
<path d="M117.799 231.996C117.137 231.996 116.539 231.87 116.007 231.618C115.485 231.366 115.046 231.034 114.691 230.624C114.346 230.213 114.099 229.77 113.949 229.294L114.761 229C115.023 229.709 115.41 230.25 115.923 230.624C116.446 230.997 117.067 231.184 117.785 231.184C118.261 231.184 118.677 231.104 119.031 230.946C119.395 230.787 119.68 230.563 119.885 230.274C120.091 229.984 120.193 229.644 120.193 229.252C120.193 228.71 120.039 228.29 119.731 227.992C119.433 227.693 119.041 227.478 118.555 227.348L116.651 226.788C115.877 226.564 115.303 226.204 114.929 225.71C114.565 225.206 114.383 224.636 114.383 224.002C114.383 223.451 114.514 222.97 114.775 222.56C115.046 222.14 115.41 221.813 115.867 221.58C116.325 221.346 116.843 221.23 117.421 221.23C118.028 221.23 118.569 221.346 119.045 221.58C119.531 221.804 119.937 222.102 120.263 222.476C120.599 222.84 120.837 223.246 120.977 223.694L120.179 223.988C119.946 223.344 119.587 222.858 119.101 222.532C118.616 222.196 118.061 222.028 117.435 222.028C117.025 222.028 116.656 222.107 116.329 222.266C116.003 222.424 115.746 222.648 115.559 222.938C115.373 223.227 115.279 223.568 115.279 223.96C115.279 224.436 115.415 224.842 115.685 225.178C115.956 225.514 116.409 225.78 117.043 225.976L118.751 226.48C119.498 226.704 120.072 227.049 120.473 227.516C120.884 227.973 121.089 228.538 121.089 229.21C121.089 229.76 120.949 230.246 120.669 230.666C120.389 231.076 119.997 231.403 119.493 231.646C118.999 231.879 118.434 231.996 117.799 231.996ZM123.407 231.828V221.398H124.177L128.069 227.194H127.691L131.597 221.398H132.367V231.828H131.457V222.728L131.681 222.854L127.901 228.496H127.859L124.079 222.854L124.317 222.728V231.828H123.407ZM133.909 231.828L137.745 221.398H138.683L142.519 231.828H141.539L140.587 229.168H135.841L134.875 231.828H133.909ZM136.135 228.328H140.279L138.039 222.098H138.375L136.135 228.328ZM144.066 231.828V221.398H144.836L151.15 230.456H150.856V221.398H151.766V231.828H150.996L144.654 222.714H144.976V231.828H144.066ZM156.18 231.828V231.268L159.106 228.048C159.685 227.413 160.161 226.886 160.534 226.466C160.917 226.036 161.202 225.64 161.388 225.276C161.584 224.912 161.682 224.515 161.682 224.086C161.682 223.432 161.486 222.928 161.094 222.574C160.712 222.21 160.18 222.028 159.498 222.028C158.836 222.028 158.28 222.219 157.832 222.602C157.384 222.984 157.081 223.516 156.922 224.198L156.096 224.016C156.227 223.428 156.451 222.928 156.768 222.518C157.086 222.098 157.478 221.78 157.944 221.566C158.411 221.342 158.929 221.23 159.498 221.23C160.096 221.23 160.623 221.351 161.08 221.594C161.547 221.827 161.916 222.158 162.186 222.588C162.457 223.017 162.592 223.516 162.592 224.086C162.592 224.506 162.499 224.912 162.312 225.304C162.135 225.696 161.874 226.106 161.528 226.536C161.192 226.965 160.768 227.455 160.254 228.006L157.51 231.016H162.816V231.828H156.18ZM167.253 231.828V221.398H168.163V227.656L167.897 227.53L173.385 221.398H174.561L170.333 226.144L170.375 225.5L174.841 231.828H173.735L169.969 226.522L168.163 228.566V231.828H167.253ZM179.374 231.996C178.674 231.996 178.044 231.828 177.484 231.492C176.924 231.146 176.481 230.68 176.154 230.092C175.827 229.494 175.664 228.827 175.664 228.09C175.664 227.352 175.823 226.694 176.14 226.116C176.457 225.528 176.887 225.066 177.428 224.73C177.969 224.394 178.576 224.226 179.248 224.226C179.761 224.226 180.223 224.319 180.634 224.506C181.054 224.692 181.413 224.954 181.712 225.29C182.02 225.616 182.253 225.994 182.412 226.424C182.58 226.844 182.664 227.287 182.664 227.754C182.664 227.847 182.659 227.945 182.65 228.048C182.641 228.15 182.627 228.258 182.608 228.37H176.154V227.6H182.132L181.754 227.894C181.81 227.352 181.731 226.867 181.516 226.438C181.301 225.999 180.993 225.654 180.592 225.402C180.2 225.14 179.752 225.01 179.248 225.01C178.744 225.01 178.282 225.145 177.862 225.416C177.442 225.677 177.111 226.041 176.868 226.508C176.625 226.965 176.513 227.497 176.532 228.104C176.513 228.71 176.63 229.247 176.882 229.714C177.134 230.18 177.479 230.549 177.918 230.82C178.357 231.081 178.842 231.212 179.374 231.212C179.915 231.212 180.387 231.086 180.788 230.834C181.189 230.572 181.516 230.227 181.768 229.798L182.482 230.176C182.314 230.521 182.076 230.834 181.768 231.114C181.46 231.384 181.101 231.599 180.69 231.758C180.289 231.916 179.85 231.996 179.374 231.996ZM188.013 231.996C187.323 231.996 186.697 231.828 186.137 231.492C185.587 231.146 185.153 230.68 184.835 230.092C184.518 229.504 184.359 228.841 184.359 228.104C184.359 227.366 184.518 226.704 184.835 226.116C185.153 225.528 185.587 225.066 186.137 224.73C186.697 224.394 187.323 224.226 188.013 224.226C188.695 224.226 189.301 224.389 189.833 224.716C190.365 225.033 190.767 225.462 191.037 226.004L190.897 226.27V221.23H191.737V231.828H190.897V229.938L191.037 230.134C190.776 230.712 190.375 231.17 189.833 231.506C189.301 231.832 188.695 231.996 188.013 231.996ZM188.041 231.156C188.583 231.156 189.063 231.025 189.483 230.764C189.913 230.493 190.253 230.129 190.505 229.672C190.757 229.205 190.883 228.682 190.883 228.104C190.883 227.525 190.757 227.007 190.505 226.55C190.253 226.092 189.913 225.733 189.483 225.472C189.063 225.201 188.583 225.066 188.041 225.066C187.509 225.066 187.033 225.201 186.613 225.472C186.193 225.733 185.862 226.092 185.619 226.55C185.377 227.007 185.255 227.525 185.255 228.104C185.255 228.682 185.377 229.205 185.619 229.672C185.862 230.129 186.193 230.493 186.613 230.764C187.033 231.025 187.509 231.156 188.041 231.156ZM194.06 231.828V224.394H194.9V231.828H194.06ZM194.06 222.938V221.398H194.9V222.938H194.06ZM197.204 231.828V224.394H198.044V225.78L197.89 225.654C198.049 225.234 198.32 224.902 198.702 224.66C199.094 224.417 199.556 224.296 200.088 224.296H200.564V225.136H199.99C199.384 225.136 198.908 225.332 198.562 225.724C198.217 226.106 198.044 226.624 198.044 227.278V231.828H197.204ZM201.949 231.828V224.394H202.789V231.828H201.949ZM201.949 222.938V221.398H202.789V222.938H201.949Z" fill="white"/>
<path d="M114.417 255.828V248.378H115.067V251.768H119.267V248.378H119.917V255.828H119.267V252.368H115.067V255.828H114.417ZM121.68 255.828V250.518H122.28V255.828H121.68ZM121.68 249.478V248.378H122.28V249.478H121.68ZM126.406 258.028C126.053 258.028 125.726 257.971 125.426 257.858C125.126 257.744 124.866 257.591 124.646 257.398C124.426 257.204 124.253 256.984 124.126 256.738L124.666 256.448C124.813 256.734 125.033 256.971 125.326 257.158C125.626 257.344 125.983 257.438 126.396 257.438C126.73 257.438 127.04 257.371 127.326 257.238C127.613 257.111 127.846 256.911 128.026 256.638C128.213 256.371 128.306 256.034 128.306 255.628V254.278L128.416 254.418C128.23 254.831 127.946 255.158 127.566 255.398C127.186 255.631 126.763 255.748 126.296 255.748C125.803 255.748 125.36 255.628 124.966 255.388C124.573 255.148 124.263 254.824 124.036 254.418C123.816 254.011 123.706 253.561 123.706 253.068C123.706 252.574 123.816 252.128 124.036 251.728C124.263 251.321 124.57 250.998 124.956 250.758C125.35 250.518 125.796 250.398 126.296 250.398C126.763 250.398 127.183 250.514 127.556 250.748C127.93 250.974 128.216 251.281 128.416 251.668L128.306 251.858V250.518H128.906V255.628C128.906 256.088 128.8 256.498 128.586 256.858C128.373 257.224 128.076 257.511 127.696 257.718C127.323 257.924 126.893 258.028 126.406 258.028ZM126.316 255.148C126.69 255.148 127.023 255.054 127.316 254.868C127.616 254.681 127.853 254.431 128.026 254.118C128.2 253.798 128.286 253.448 128.286 253.068C128.286 252.688 128.2 252.341 128.026 252.028C127.853 251.714 127.616 251.464 127.316 251.278C127.023 251.091 126.69 250.998 126.316 250.998C125.936 250.998 125.596 251.091 125.296 251.278C124.996 251.464 124.763 251.714 124.596 252.028C124.43 252.341 124.346 252.688 124.346 253.068C124.346 253.448 124.43 253.798 124.596 254.118C124.763 254.431 124.993 254.681 125.286 254.868C125.586 255.054 125.93 255.148 126.316 255.148ZM130.557 255.828V248.258H131.157V251.588L131.007 251.548C131.127 251.194 131.34 250.914 131.647 250.708C131.96 250.501 132.324 250.398 132.737 250.398C133.104 250.398 133.437 250.481 133.737 250.648C134.037 250.814 134.277 251.048 134.457 251.348C134.637 251.641 134.727 251.978 134.727 252.358V255.828H134.127V252.528C134.127 252.208 134.06 251.934 133.927 251.708C133.8 251.474 133.624 251.298 133.397 251.178C133.177 251.051 132.927 250.988 132.647 250.988C132.347 250.988 132.084 251.058 131.857 251.198C131.637 251.338 131.464 251.531 131.337 251.778C131.217 252.024 131.157 252.308 131.157 252.628V255.828H130.557ZM140.46 255.948C139.987 255.948 139.56 255.858 139.18 255.678C138.807 255.498 138.493 255.261 138.24 254.968C137.993 254.674 137.817 254.358 137.71 254.018L138.29 253.808C138.477 254.314 138.753 254.701 139.12 254.968C139.493 255.234 139.937 255.368 140.45 255.368C140.79 255.368 141.087 255.311 141.34 255.198C141.6 255.084 141.803 254.924 141.95 254.718C142.097 254.511 142.17 254.268 142.17 253.988C142.17 253.601 142.06 253.301 141.84 253.088C141.627 252.874 141.347 252.721 141 252.628L139.64 252.228C139.087 252.068 138.677 251.811 138.41 251.458C138.15 251.098 138.02 250.691 138.02 250.238C138.02 249.844 138.113 249.501 138.3 249.208C138.493 248.908 138.753 248.674 139.08 248.508C139.407 248.341 139.777 248.258 140.19 248.258C140.623 248.258 141.01 248.341 141.35 248.508C141.697 248.668 141.987 248.881 142.22 249.148C142.46 249.408 142.63 249.698 142.73 250.018L142.16 250.228C141.993 249.768 141.737 249.421 141.39 249.188C141.043 248.948 140.647 248.828 140.2 248.828C139.907 248.828 139.643 248.884 139.41 248.998C139.177 249.111 138.993 249.271 138.86 249.478C138.727 249.684 138.66 249.928 138.66 250.208C138.66 250.548 138.757 250.838 138.95 251.078C139.143 251.318 139.467 251.508 139.92 251.648L141.14 252.008C141.673 252.168 142.083 252.414 142.37 252.748C142.663 253.074 142.81 253.478 142.81 253.958C142.81 254.351 142.71 254.698 142.51 254.998C142.31 255.291 142.03 255.524 141.67 255.698C141.317 255.864 140.913 255.948 140.46 255.948ZM146.776 255.948C146.269 255.948 145.816 255.828 145.416 255.588C145.023 255.341 144.709 255.008 144.476 254.588C144.249 254.168 144.136 253.694 144.136 253.168C144.136 252.634 144.249 252.161 144.476 251.748C144.709 251.328 145.023 250.998 145.416 250.758C145.816 250.518 146.269 250.398 146.776 250.398C147.109 250.398 147.416 250.454 147.696 250.568C147.983 250.681 148.236 250.834 148.456 251.028C148.676 251.221 148.843 251.444 148.956 251.698L148.426 251.978C148.266 251.671 148.043 251.428 147.756 251.248C147.469 251.068 147.143 250.978 146.776 250.978C146.396 250.978 146.053 251.071 145.746 251.258C145.446 251.444 145.206 251.704 145.026 252.038C144.846 252.364 144.756 252.741 144.756 253.168C144.756 253.594 144.846 253.974 145.026 254.308C145.206 254.634 145.446 254.891 145.746 255.078C146.053 255.264 146.396 255.358 146.776 255.358C147.143 255.358 147.469 255.268 147.756 255.088C148.043 254.908 148.266 254.661 148.426 254.348L148.956 254.638C148.843 254.884 148.676 255.108 148.456 255.308C148.236 255.501 147.983 255.658 147.696 255.778C147.416 255.891 147.109 255.948 146.776 255.948ZM150.391 255.828V248.258H150.991V251.588L150.841 251.548C150.961 251.194 151.174 250.914 151.481 250.708C151.794 250.501 152.158 250.398 152.571 250.398C152.938 250.398 153.271 250.481 153.571 250.648C153.871 250.814 154.111 251.048 154.291 251.348C154.471 251.641 154.561 251.978 154.561 252.358V255.828H153.961V252.528C153.961 252.208 153.894 251.934 153.761 251.708C153.634 251.474 153.458 251.298 153.231 251.178C153.011 251.051 152.761 250.988 152.481 250.988C152.181 250.988 151.918 251.058 151.691 251.198C151.471 251.338 151.298 251.531 151.171 251.778C151.051 252.024 150.991 252.308 150.991 252.628V255.828H150.391ZM158.584 255.948C158.077 255.948 157.62 255.828 157.214 255.588C156.807 255.348 156.484 255.018 156.244 254.598C156.01 254.171 155.894 253.694 155.894 253.168C155.894 252.641 156.01 252.168 156.244 251.748C156.484 251.328 156.804 250.998 157.204 250.758C157.61 250.518 158.07 250.398 158.584 250.398C159.09 250.398 159.547 250.518 159.954 250.758C160.36 250.998 160.68 251.328 160.914 251.748C161.147 252.161 161.264 252.634 161.264 253.168C161.264 253.701 161.144 254.178 160.904 254.598C160.664 255.018 160.34 255.348 159.934 255.588C159.534 255.828 159.084 255.948 158.584 255.948ZM158.584 255.358C158.964 255.358 159.307 255.264 159.614 255.078C159.927 254.884 160.174 254.621 160.354 254.288C160.534 253.954 160.624 253.581 160.624 253.168C160.624 252.754 160.534 252.384 160.354 252.058C160.174 251.731 159.93 251.471 159.624 251.278C159.317 251.084 158.97 250.988 158.584 250.988C158.197 250.988 157.847 251.084 157.534 251.278C157.227 251.464 156.984 251.724 156.804 252.058C156.624 252.384 156.534 252.754 156.534 253.168C156.534 253.581 156.624 253.954 156.804 254.288C156.99 254.621 157.237 254.884 157.544 255.078C157.85 255.264 158.197 255.358 158.584 255.358ZM165.175 255.948C164.669 255.948 164.212 255.828 163.805 255.588C163.399 255.348 163.075 255.018 162.835 254.598C162.602 254.171 162.485 253.694 162.485 253.168C162.485 252.641 162.602 252.168 162.835 251.748C163.075 251.328 163.395 250.998 163.795 250.758C164.202 250.518 164.662 250.398 165.175 250.398C165.682 250.398 166.139 250.518 166.545 250.758C166.952 250.998 167.272 251.328 167.505 251.748C167.739 252.161 167.855 252.634 167.855 253.168C167.855 253.701 167.735 254.178 167.495 254.598C167.255 255.018 166.932 255.348 166.525 255.588C166.125 255.828 165.675 255.948 165.175 255.948ZM165.175 255.358C165.555 255.358 165.899 255.264 166.205 255.078C166.519 254.884 166.765 254.621 166.945 254.288C167.125 253.954 167.215 253.581 167.215 253.168C167.215 252.754 167.125 252.384 166.945 252.058C166.765 251.731 166.522 251.471 166.215 251.278C165.909 251.084 165.562 250.988 165.175 250.988C164.789 250.988 164.439 251.084 164.125 251.278C163.819 251.464 163.575 251.724 163.395 252.058C163.215 252.384 163.125 252.754 163.125 253.168C163.125 253.581 163.215 253.954 163.395 254.288C163.582 254.621 163.829 254.884 164.135 255.078C164.442 255.264 164.789 255.358 165.175 255.358ZM169.297 255.828V248.258H169.897V255.828H169.297Z" fill="white"/>
</g>
<defs>
<filter id="filter0_b_55_1495" x="56.1897" y="-34.6389" width="298" height="206" filterUnits="userSpaceOnUse" color-interpolation-filters="sRGB">
<feFlood flood-opacity="0" result="BackgroundImageFix"/>
<feGaussianBlur in="BackgroundImageFix" stdDeviation="20"/>
<feComposite in2="SourceAlpha" operator="in" result="effect1_backgroundBlur_55_1495"/>
<feBlend mode="normal" in="SourceGraphic" in2="effect1_backgroundBlur_55_1495" result="shape"/>
</filter>
<filter id="filter1_b_55_1495" x="57.0952" y="125.828" width="297.094" height="188" filterUnits="userSpaceOnUse" color-interpolation-filters="sRGB">
<feFlood flood-opacity="0" result="BackgroundImageFix"/>
<feGaussianBlur in="BackgroundImageFix" stdDeviation="20"/>
<feComposite in2="SourceAlpha" operator="in" result="effect1_backgroundBlur_55_1495"/>
<feBlend mode="normal" in="SourceGraphic" in2="effect1_backgroundBlur_55_1495" result="shape"/>
</filter>
<linearGradient id="paint0_linear_55_1495" x1="8.6897" y1="110.861" x2="8.6897" y2="127.861" gradientUnits="userSpaceOnUse">
<stop stop-color="#725CFF"/>
<stop offset="1" stop-color="#7BC0FF"/>
</linearGradient>
<linearGradient id="paint1_linear_55_1495" x1="56.6785" y1="551.361" x2="329.104" y2="542.531" gradientUnits="userSpaceOnUse">
<stop stop-color="#F6F6F6" stop-opacity="0.1"/>
<stop offset="1" stop-color="white" stop-opacity="0.2"/>
</linearGradient>
<linearGradient id="paint2_linear_55_1495" x1="8.5" y1="167.153" x2="8.5" y2="184.153" gradientUnits="userSpaceOnUse">
<stop stop-color="#725CFF"/>
<stop offset="1" stop-color="#7BC0FF"/>
</linearGradient>
<linearGradient id="paint3_linear_55_1495" x1="8.59521" y1="255.503" x2="8.59521" y2="272.503" gradientUnits="userSpaceOnUse">
<stop stop-color="#725CFF"/>
<stop offset="1" stop-color="#7BC0FF"/>
</linearGradient>
<linearGradient id="paint4_linear_55_1495" x1="57.7481" y1="633.828" x2="328.942" y2="623.616" gradientUnits="userSpaceOnUse">
<stop stop-color="#F6F6F6" stop-opacity="0.1"/>
<stop offset="1" stop-color="white" stop-opacity="0.2"/>
</linearGradient>
</defs>
</svg>
