<svg width="20" height="21" viewBox="0 0 20 21" xmlns="http://www.w3.org/2000/svg">
<path d="M10.7937 10.3015C10.6429 10.3015 10.4921 10.2459 10.373 10.1268C10.1428 9.89668 10.1428 9.51571 10.373 9.28555L16.8812 2.77736C17.1114 2.54719 17.4923 2.54719 17.7225 2.77736C17.9527 3.00753 17.9527 3.3885 17.7225 3.61866L11.2143 10.1268C11.0953 10.2459 10.9445 10.3015 10.7937 10.3015Z" fill="#ABABAB"/>
<path d="M17.9368 6.96821C17.6114 6.96821 17.3415 6.69836 17.3415 6.37295V3.15854H14.1271C13.8017 3.15854 13.5319 2.88869 13.5319 2.56328C13.5319 2.23787 13.8017 1.96802 14.1271 1.96802H17.9368C18.2622 1.96802 18.532 2.23787 18.532 2.56328V6.37295C18.532 6.69836 18.2622 6.96821 17.9368 6.96821Z" fill="#ABABAB"/>
<path d="M12.381 19.0322H7.61895C3.30927 19.0322 1.46793 17.1908 1.46793 12.8811V8.11904C1.46793 3.80936 3.30927 1.96802 7.61895 1.96802H9.20631C9.53172 1.96802 9.80157 2.23787 9.80157 2.56328C9.80157 2.88869 9.53172 3.15854 9.20631 3.15854H7.61895C3.96008 3.15854 2.65845 4.46018 2.65845 8.11904V12.8811C2.65845 16.54 3.96008 17.8416 7.61895 17.8416H12.381C16.0399 17.8416 17.3415 16.54 17.3415 12.8811V11.2938C17.3415 10.9684 17.6114 10.6985 17.9368 10.6985C18.2622 10.6985 18.5321 10.9684 18.5321 11.2938V12.8811C18.5321 17.1908 16.6907 19.0322 12.381 19.0322Z" fill="#ABABAB"/>
</svg>
