<svg width="30" height="30" viewBox="0 0 30 30" fill="none" xmlns="http://www.w3.org/2000/svg">
<path d="M0.409054 13.2002V7.9586H1.75305V9.23539L1.60905 9.02419C1.68585 8.62099 1.87145 8.32339 2.16585 8.1314C2.46025 7.93939 2.81225 7.84339 3.22185 7.84339C3.65705 7.84339 4.03785 7.95539 4.36425 8.1794C4.69705 8.39699 4.90505 8.69139 4.98825 9.06259L4.57545 9.10099C4.74825 8.67219 4.99465 8.35539 5.31465 8.15059C5.63465 7.94579 6.00905 7.84339 6.43785 7.84339C6.81545 7.84339 7.14825 7.92659 7.43625 8.093C7.73065 8.25939 7.96105 8.49299 8.12745 8.79379C8.29385 9.08819 8.37705 9.4338 8.37705 9.8306V13.2002H6.93705V10.1378C6.93705 9.933 6.89865 9.757 6.82185 9.6098C6.75145 9.4626 6.64905 9.34739 6.51465 9.26419C6.38025 9.181 6.21705 9.1394 6.02505 9.1394C5.83945 9.1394 5.67625 9.181 5.53545 9.26419C5.40105 9.34739 5.29545 9.4626 5.21865 9.6098C5.14825 9.757 5.11305 9.933 5.11305 10.1378V13.2002H3.67305V10.1378C3.67305 9.933 3.63465 9.757 3.55785 9.6098C3.48745 9.4626 3.38505 9.34739 3.25065 9.26419C3.11625 9.181 2.95305 9.1394 2.76105 9.1394C2.57545 9.1394 2.41225 9.181 2.27145 9.26419C2.13705 9.34739 2.03145 9.4626 1.95465 9.6098C1.88425 9.757 1.84905 9.933 1.84905 10.1378V13.2002H0.409054ZM9.32468 13.2002V5.93299H10.7647V8.99539L10.5919 8.765C10.7135 8.45139 10.9087 8.22099 11.1775 8.07379C11.4527 7.92019 11.7727 7.84339 12.1375 7.84339C12.5343 7.84339 12.8799 7.92659 13.1743 8.093C13.4751 8.25939 13.7087 8.49299 13.8751 8.79379C14.0415 9.08819 14.1247 9.4338 14.1247 9.8306V13.2002H12.6847V10.1378C12.6847 9.933 12.6431 9.757 12.5599 9.6098C12.4831 9.4626 12.3711 9.34739 12.2239 9.26419C12.0831 9.181 11.9167 9.1394 11.7247 9.1394C11.5391 9.1394 11.3727 9.181 11.2255 9.26419C11.0783 9.34739 10.9631 9.4626 10.8799 9.6098C10.8031 9.757 10.7647 9.933 10.7647 10.1378V13.2002H9.32468ZM15.0716 13.2002V7.9586H16.4156V9.23539L16.2716 9.02419C16.3484 8.62099 16.534 8.32339 16.8284 8.1314C17.1228 7.93939 17.4748 7.84339 17.8844 7.84339C18.3196 7.84339 18.7004 7.95539 19.0268 8.1794C19.3596 8.39699 19.5676 8.69139 19.6508 9.06259L19.238 9.10099C19.4108 8.67219 19.6572 8.35539 19.9772 8.15059C20.2972 7.94579 20.6716 7.84339 21.1004 7.84339C21.478 7.84339 21.8108 7.92659 22.0988 8.093C22.3932 8.25939 22.6236 8.49299 22.79 8.79379C22.9564 9.08819 23.0396 9.4338 23.0396 9.8306V13.2002H21.5996V10.1378C21.5996 9.933 21.5612 9.757 21.4844 9.6098C21.414 9.4626 21.3116 9.34739 21.1772 9.26419C21.0428 9.181 20.8796 9.1394 20.6876 9.1394C20.502 9.1394 20.3388 9.181 20.198 9.26419C20.0636 9.34739 19.958 9.4626 19.8812 9.6098C19.8108 9.757 19.7756 9.933 19.7756 10.1378V13.2002H18.3356V10.1378C18.3356 9.933 18.2972 9.757 18.2204 9.6098C18.15 9.4626 18.0476 9.34739 17.9132 9.26419C17.7788 9.181 17.6156 9.1394 17.4236 9.1394C17.238 9.1394 17.0748 9.181 16.934 9.26419C16.7996 9.34739 16.694 9.4626 16.6172 9.6098C16.5468 9.757 16.5116 9.933 16.5116 10.1378V13.2002H15.0716ZM26.4544 13.3154C25.9424 13.3154 25.4848 13.1938 25.0816 12.9506C24.6784 12.7074 24.3584 12.3778 24.1216 11.9618C23.8912 11.5458 23.776 11.085 23.776 10.5794C23.776 10.0674 23.8944 9.60659 24.1312 9.19699C24.368 8.78099 24.688 8.45139 25.0912 8.20819C25.4944 7.96499 25.9456 7.84339 26.4448 7.84339C26.8288 7.84339 27.168 7.91699 27.4624 8.06419C27.7632 8.20499 28 8.40659 28.1728 8.66899L27.952 8.95699V5.93299H29.392V13.2002H28.048V12.2402L28.1824 12.5378C28.0032 12.7938 27.76 12.989 27.4528 13.1234C27.1456 13.2514 26.8128 13.3154 26.4544 13.3154ZM26.6272 12.0194C26.8896 12.0194 27.12 11.9586 27.3184 11.837C27.5168 11.7154 27.6704 11.5458 27.7792 11.3282C27.8944 11.1106 27.952 10.861 27.952 10.5794C27.952 10.2978 27.8944 10.0482 27.7792 9.8306C27.6704 9.613 27.5168 9.44339 27.3184 9.3218C27.12 9.2002 26.8896 9.1394 26.6272 9.1394C26.3648 9.1394 26.128 9.2034 25.9168 9.33139C25.712 9.453 25.552 9.6226 25.4368 9.84019C25.3216 10.0514 25.264 10.2978 25.264 10.5794C25.264 10.861 25.3216 11.1106 25.4368 11.3282C25.552 11.5458 25.712 11.7154 25.9168 11.837C26.128 11.9586 26.3648 12.0194 26.6272 12.0194Z" fill="white"/>
<path d="M0.862898 24.2002V16.3378H2.8789V18.2242L2.7349 17.9506C2.9077 17.2882 3.1909 16.8418 3.5845 16.6114C3.9877 16.3714 4.4629 16.2514 5.0101 16.2514H5.4709V18.1234H4.7941C4.2661 18.1234 3.8389 18.2866 3.5125 18.613C3.1861 18.9298 3.0229 19.381 3.0229 19.9666V24.2002H0.862898ZM8.85119 24.373C8.28479 24.373 7.79519 24.2818 7.38239 24.0994C6.96959 23.917 6.65279 23.6578 6.43199 23.3218C6.21119 22.9762 6.10079 22.5682 6.10079 22.0978C6.10079 21.6562 6.20159 21.2674 6.40319 20.9314C6.60479 20.5858 6.91199 20.2978 7.32479 20.0674C7.74719 19.837 8.27039 19.6738 8.89439 19.5778L11.2992 19.189V20.773L9.28319 21.133C8.97599 21.1906 8.74079 21.2914 8.57759 21.4354C8.41439 21.5698 8.33279 21.7666 8.33279 22.0258C8.33279 22.2658 8.42399 22.453 8.60639 22.5874C8.78879 22.7218 9.01439 22.789 9.28319 22.789C9.63839 22.789 9.95039 22.7122 10.2192 22.5586C10.488 22.405 10.6944 22.1986 10.8384 21.9394C10.992 21.6706 11.0688 21.3778 11.0688 21.061V19.0162C11.0688 18.7186 10.9488 18.469 10.7088 18.2674C10.4784 18.0658 10.1616 17.965 9.75839 17.965C9.37439 17.965 9.03359 18.0706 8.73599 18.2818C8.44799 18.493 8.23679 18.7714 8.10239 19.117L6.37439 18.2962C6.52799 17.8546 6.77279 17.4754 7.10879 17.1586C7.44479 16.8418 7.84799 16.597 8.31839 16.4242C8.78879 16.2514 9.30239 16.165 9.85919 16.165C10.5216 16.165 11.1072 16.285 11.616 16.525C12.1248 16.765 12.5184 17.101 12.7968 17.533C13.0848 17.9554 13.2288 18.4498 13.2288 19.0162V24.2002H11.2128V22.933L11.7024 22.8466C11.472 23.1922 11.2176 23.4802 10.9392 23.7106C10.6608 23.9314 10.3488 24.0946 10.0032 24.2002C9.65759 24.3154 9.27359 24.373 8.85119 24.373ZM14.1793 24.2002V22.4722L18.7009 17.4898L19.0177 18.2098H14.3665V16.3378H20.9329V18.0658L16.5265 23.0626L16.2097 22.3282H20.9473V24.2002H14.1793ZM21.9004 24.2002V16.3378H23.9164V17.893L23.8012 17.5474C23.9836 17.077 24.2764 16.7314 24.6796 16.5106C25.0924 16.2802 25.5724 16.165 26.1196 16.165C26.7148 16.165 27.2332 16.2898 27.6748 16.5394C28.126 16.789 28.4764 17.1394 28.726 17.5906C28.9756 18.0322 29.1004 18.5506 29.1004 19.1458V24.2002H26.9404V19.6066C26.9404 19.2994 26.878 19.0354 26.7532 18.8146C26.638 18.5938 26.47 18.421 26.2492 18.2962C26.038 18.1714 25.7884 18.109 25.5004 18.109C25.222 18.109 24.9724 18.1714 24.7516 18.2962C24.5308 18.421 24.358 18.5938 24.2332 18.8146C24.118 19.0354 24.0604 19.2994 24.0604 19.6066V24.2002H21.9004Z" fill="url(#paint0_linear_201_3064)"/>
<defs>
<linearGradient id="paint0_linear_201_3064" x1="5.0998" y1="18.9002" x2="29.1998" y2="23.3002" gradientUnits="userSpaceOnUse">
<stop stop-color="#78A1FF"/>
<stop offset="1" stop-color="#725CFF"/>
</linearGradient>
</defs>
</svg>
