<svg width="188" height="189" viewBox="0 0 188 189" fill="none" xmlns="http://www.w3.org/2000/svg">
<path d="M135.706 52.2789L124.794 43.7032C120.637 40.4362 115.586 41.3364 113.479 45.623L108.958 55.03L128.444 70.3439L136.516 63.7274C140.009 60.8872 139.604 55.3417 135.706 52.2789Z" stroke="white" stroke-width="4.40601" stroke-linecap="round" stroke-linejoin="round"/>
<path d="M108.923 55.0743L96.0742 56.004C88.8821 56.5099 86.6214 59.0299 86.5814 65.944L86.3265 93.4539C86.2802 99.2174 90.827 102.791 96.4162 101.383L123.086 94.632C129.795 92.9587 131.987 90.1697 130.5 83.0585L128.366 70.3542" stroke="white" stroke-width="4.40601" stroke-linecap="round" stroke-linejoin="round"/>
<path d="M90.6623 98.3653L99.4636 87.166" stroke="white" stroke-width="4.40601" stroke-linecap="round" stroke-linejoin="round"/>
<path d="M73.7577 127.541L74.4219 133.649C74.8221 137.328 72.1785 140.692 68.5082 141.173L62.4171 141.972C58.7469 142.453 55.4558 139.867 55.0556 136.187L54.3914 130.079C53.9911 126.4 56.6348 123.036 60.305 122.555L66.3962 121.756C70.0664 121.275 73.3575 123.861 73.7577 127.541Z" stroke="white" stroke-width="4.40601" stroke-linecap="round" stroke-linejoin="round"/>
<path d="M53.8876 78.8451L49.1242 75.1017C46.2662 72.8557 45.8064 68.6276 48.1023 65.7061L51.9288 60.837C54.2248 57.9155 58.4419 57.3625 61.2999 59.6085L66.0633 63.3519C68.9213 65.598 69.3809 69.8263 67.085 72.7478L63.2585 77.6169C60.9625 80.5384 56.7456 81.0912 53.8876 78.8451Z" stroke="white" stroke-width="4.40601" stroke-linecap="round" stroke-linejoin="round"/>
<path d="M118.409 129.551L123.173 133.295C126.031 135.541 130.248 134.988 132.544 132.066L136.37 127.197C138.666 124.276 138.207 120.047 135.348 117.801L130.585 114.058C127.727 111.812 123.51 112.365 121.214 115.286L117.388 120.155C115.092 123.077 115.551 127.305 118.409 129.551Z" stroke="white" stroke-width="4.40601" stroke-linecap="round" stroke-linejoin="round"/>
<path d="M58.8369 80.6583L63.3506 122.155" stroke="white" stroke-width="4.40601" stroke-linecap="round" stroke-linejoin="round"/>
<path d="M115.478 125.171L74.0898 130.595" stroke="white" stroke-width="4.40601" stroke-linecap="round" stroke-linejoin="round"/>
</svg>
