<svg width="100" height="176" viewBox="0 0 100 176" fill="none" xmlns="http://www.w3.org/2000/svg">
<g filter="url(#filter0_d_18_1906)">
<ellipse cx="40.6414" cy="158.341" rx="34.8337" ry="7.98272" transform="rotate(9.25987 40.6414 158.341)" fill="black"/>
</g>
<path fill-rule="evenodd" clip-rule="evenodd" d="M92.7709 55.0767L24.0114 43.8663L6.26164 152.736C5.55223 157.087 20.3695 163.124 39.3569 166.219C58.3443 169.315 74.3118 168.297 75.0212 163.946C75.0216 163.943 75.022 163.941 75.0224 163.939L92.7709 55.0767Z" fill="#202020"/>
<path opacity="0.4" fill-rule="evenodd" clip-rule="evenodd" d="M92.7709 55.0767L24.0114 43.8663L6.26164 152.736C5.55223 157.087 20.3695 163.124 39.3569 166.219C58.3443 169.315 74.3118 168.297 75.0212 163.946C75.0216 163.943 75.022 163.941 75.0224 163.939L92.7709 55.0767Z" fill="url(#paint0_linear_18_1906)"/>
<ellipse cx="58.3912" cy="49.4715" rx="34.8337" ry="7.98272" transform="rotate(9.25987 58.3912 49.4715)" fill="#161616"/>
<path opacity="0.4" d="M92.5905 55.0473C92.5111 55.5342 92.2167 55.9893 91.6986 56.4085C91.1793 56.8287 90.4447 57.2047 89.5091 57.5303C87.6383 58.1814 85.0012 58.6183 81.7814 58.8236C75.3448 59.2339 66.6203 58.7161 57.136 57.1698C47.6517 55.6235 39.2146 53.3434 33.2417 50.9098C30.2538 49.6925 27.8921 48.4406 26.3249 47.2289C25.5413 46.623 24.9641 46.0331 24.6052 45.4698C24.247 44.9077 24.1124 44.3827 24.1918 43.8957C24.2712 43.4088 24.5656 42.9537 25.0837 42.5345C25.603 42.1143 26.3376 41.7383 27.2732 41.4127C29.1441 40.7616 31.7811 40.3246 35.0009 40.1194C41.4375 39.7091 50.162 40.2269 59.6463 41.7732C69.1306 43.3195 77.5677 45.5996 83.5406 48.0332C86.5285 49.2505 88.8902 50.5024 90.4574 51.7141C91.2411 52.32 91.8182 52.9099 92.1772 53.4732C92.5353 54.0353 92.6699 54.5603 92.5905 55.0473Z" stroke="url(#paint1_linear_18_1906)" stroke-width="0.365621"/>
<path fill-rule="evenodd" clip-rule="evenodd" d="M94.7561 42.9006L25.9966 31.6902L24.1296 43.1415C24.1291 43.1443 24.1287 43.1472 24.1282 43.1501C23.4188 47.5014 38.236 53.5383 57.2235 56.6339C76.2109 59.7296 92.1783 58.7117 92.8878 54.3605L94.7561 42.9006Z" fill="#202020"/>
<path opacity="0.4" fill-rule="evenodd" clip-rule="evenodd" d="M94.7562 42.9006L25.9966 31.6902L24.1296 43.1415C24.1291 43.1443 24.1287 43.1472 24.1282 43.1501C23.4188 47.5014 38.236 53.5383 57.2235 56.6339C76.2109 59.7296 92.1783 58.7117 92.8878 54.3605L94.7562 42.9006Z" fill="url(#paint2_linear_18_1906)"/>
<ellipse cx="60.3763" cy="37.2953" rx="34.8337" ry="7.98272" transform="rotate(9.25987 60.3763 37.2953)" fill="#161616"/>
<path opacity="0.24" d="M94.5757 42.8711C94.4963 43.3581 94.2019 43.8132 93.6838 44.2324C93.1645 44.6525 92.4298 45.0285 91.4943 45.3541C89.6234 46.0053 86.9864 46.4422 83.7666 46.6474C77.33 47.0578 68.6055 46.5399 59.1212 44.9936C49.6369 43.4473 41.1998 41.1672 35.2268 38.7337C32.239 37.5163 29.8773 36.2644 28.3101 35.0528C27.5264 34.4469 26.9492 33.857 26.5903 33.2936C26.2322 32.7316 26.0976 32.2065 26.177 31.7196C26.2564 31.2326 26.5508 30.7775 27.0689 30.3583C27.5881 29.9382 28.3228 29.5622 29.2584 29.2366C31.1292 28.5854 33.7663 28.1485 36.9861 27.9432C43.4227 27.5329 52.1471 28.0508 61.6314 29.5971C71.1157 31.1434 79.5529 33.4235 85.5258 35.857C88.5137 37.0744 90.8754 38.3263 92.4425 39.5379C93.2262 40.1438 93.8034 40.7337 94.1623 41.297C94.5204 41.8591 94.6551 42.3842 94.5757 42.8711Z" stroke="url(#paint3_linear_18_1906)" stroke-width="0.365621"/>
<ellipse opacity="0.64" cx="60.3763" cy="37.2953" rx="34.8337" ry="7.98272" transform="rotate(9.25987 60.3763 37.2953)" fill="url(#paint4_radial_18_1906)"/>
<path fill-rule="evenodd" clip-rule="evenodd" d="M93.7595 30.9735L30.73 20.6973C30.73 20.6973 26.6662 29.331 26.0619 31.4185C26.0334 31.5075 26.0116 31.598 25.9966 31.69C25.2872 36.0413 40.1044 42.0783 59.0918 45.1739C78.0793 48.2696 94.0467 47.2517 94.7561 42.9005C94.7567 42.897 94.7573 42.8934 94.7578 42.8898C94.7685 42.8203 94.7759 42.7307 94.7804 42.6232C94.8708 40.454 93.7595 30.9735 93.7595 30.9735Z" fill="#202020"/>
<path opacity="0.64" fill-rule="evenodd" clip-rule="evenodd" d="M93.7595 30.9735L30.73 20.6973C30.73 20.6973 26.6662 29.331 26.0619 31.4185C26.0334 31.5075 26.0116 31.598 25.9966 31.69C25.2872 36.0413 40.1044 42.0783 59.0918 45.1739C78.0793 48.2696 94.0467 47.2517 94.7561 42.9005C94.7567 42.897 94.7573 42.8934 94.7578 42.8898C94.7685 42.8203 94.7759 42.7307 94.7804 42.6232C94.8708 40.454 93.7595 30.9735 93.7595 30.9735Z" fill="url(#paint5_linear_18_1906)"/>
<ellipse cx="62.2447" cy="25.8354" rx="31.9309" ry="7.25702" transform="rotate(9.25987 62.2447 25.8354)" fill="#161616"/>
<ellipse opacity="0.64" cx="62.2447" cy="25.8354" rx="31.9309" ry="7.25702" transform="rotate(9.25987 62.2447 25.8354)" fill="url(#paint6_radial_18_1906)"/>
<path opacity="0.4" d="M93.5791 30.9441C93.5078 31.3811 93.2418 31.791 92.7695 32.17C92.2961 32.5498 91.625 32.8901 90.7689 33.1848C89.0569 33.774 86.6421 34.168 83.692 34.3507C77.7949 34.716 69.7996 34.2347 61.1064 32.8174C52.4132 31.4001 44.6791 29.3169 39.2033 27.0974C36.4641 25.9871 34.2995 24.8465 32.8633 23.744C32.1451 23.1927 31.6169 22.6569 31.2886 22.1463C30.9612 21.637 30.8391 21.1637 30.9104 20.7267C30.9816 20.2897 31.2477 19.8797 31.7199 19.5008C32.1934 19.121 32.8644 18.7806 33.7205 18.486C35.4326 17.8968 37.8473 17.5028 40.7974 17.3201C46.6946 16.9548 54.6898 17.436 63.3831 18.8534C72.0763 20.2707 79.8104 22.3539 85.2861 24.5734C88.0254 25.6837 90.1899 26.8243 91.6262 27.9268C92.3444 28.4781 92.8726 29.0139 93.2008 29.5245C93.5283 30.0338 93.6503 30.507 93.5791 30.9441Z" stroke="url(#paint7_linear_18_1906)" stroke-width="0.365621"/>
<path fill-rule="evenodd" clip-rule="evenodd" d="M98.563 19.5509L29.8034 8.34045C29.5783 9.72108 30.7046 19.6556 30.7863 20.3723C30.3945 24.3199 43.8951 29.7553 61.1471 32.568C78.3995 35.3808 92.9277 34.515 93.8094 30.6471C94.1157 29.9911 98.3379 20.9313 98.563 19.5509Z" fill="#202020"/>
<path opacity="0.4" fill-rule="evenodd" clip-rule="evenodd" d="M98.563 19.5508L29.8034 8.34045C29.5783 9.72107 30.7046 19.6555 30.7863 20.3723C30.3945 24.3199 43.8951 29.7553 61.1471 32.568C78.3995 35.3808 92.9277 34.515 93.8094 30.6471C94.1157 29.9911 98.3379 20.9312 98.563 19.5508Z" fill="url(#paint8_linear_18_1906)"/>
<ellipse cx="64.1832" cy="13.9456" rx="34.8337" ry="7.98272" transform="rotate(9.25987 64.1832 13.9456)" fill="#161616"/>
<path opacity="0.24" d="M98.3826 19.5214C98.3032 20.0083 98.0087 20.4634 97.4906 20.8826C96.9714 21.3028 96.2367 21.6788 95.3012 22.0044C93.4303 22.6555 90.7933 23.0925 87.5735 23.2977C81.1368 23.708 72.4124 23.1902 62.9281 21.6439C53.4438 20.0976 45.0067 17.8175 39.0337 15.3839C36.0458 14.1666 33.6842 12.9147 32.117 11.703C31.3333 11.0971 30.7561 10.5072 30.3972 9.94391C30.0391 9.38185 29.9045 8.8568 29.9839 8.36985C30.0633 7.88289 30.3577 7.4278 30.8758 7.00859C31.395 6.58845 32.1297 6.21242 33.0652 5.88682C34.9361 5.2357 37.5731 4.79876 40.793 4.59351C47.2296 4.18319 55.954 4.70105 65.4383 6.24734C74.9226 7.79363 83.3597 10.0737 89.3327 12.5073C92.3206 13.7246 94.6823 14.9765 96.2494 16.1882C97.0331 16.7941 97.6103 17.384 97.9692 17.9473C98.3273 18.5094 98.4619 19.0344 98.3826 19.5214Z" stroke="url(#paint9_linear_18_1906)" stroke-width="0.365621"/>
<ellipse opacity="0.64" cx="64.1832" cy="13.9456" rx="34.8337" ry="7.98272" transform="rotate(9.25987 64.1832 13.9456)" fill="url(#paint10_radial_18_1906)"/>
<g opacity="0.96" clip-path="url(#clip0_18_1906)">
<path d="M57.9552 114.772C57.533 117.362 55.0914 119.119 52.5018 118.697L47.691 117.912L49.22 108.535L54.0307 109.319C56.6203 109.741 58.3774 112.183 57.9552 114.772Z" stroke="white" stroke-width="1.86098"/>
<path d="M38.9559 111.675C38.5337 114.264 40.2907 116.706 42.8804 117.128L47.6911 117.912L49.22 108.535L44.4093 107.75C41.8197 107.328 39.3781 109.085 38.9559 111.675Z" stroke="white" stroke-width="1.86098"/>
<path d="M37.4268 121.053C37.0046 123.642 38.7617 126.084 41.3513 126.506L46.162 127.29L47.691 117.913L42.8803 117.128C40.2906 116.706 37.8491 118.463 37.4268 121.053Z" stroke="white" stroke-width="1.86098"/>
<path d="M35.8979 130.431C35.4757 133.02 37.263 135.467 39.8526 135.889C42.4759 136.317 44.9798 134.542 45.4075 131.918L46.162 127.29L41.3513 126.506C38.7617 126.084 36.3201 127.841 35.8979 130.431Z" stroke="white" stroke-width="1.86098"/>
<path d="M46.9265 122.601C46.5043 125.191 48.2614 127.633 50.851 128.055L50.9728 128.075C53.5624 128.497 56.004 126.74 56.4262 124.15C56.8484 121.561 55.0914 119.119 52.5017 118.697L52.38 118.677C49.7903 118.255 47.3487 120.012 46.9265 122.601Z" stroke="white" stroke-width="1.86098"/>
</g>
<defs>
<filter id="filter0_d_18_1906" x="0.431595" y="144.317" width="80.4197" height="30.951" filterUnits="userSpaceOnUse" color-interpolation-filters="sRGB">
<feFlood flood-opacity="0" result="BackgroundImageFix"/>
<feColorMatrix in="SourceAlpha" type="matrix" values="0 0 0 0 0 0 0 0 0 0 0 0 0 0 0 0 0 0 127 0" result="hardAlpha"/>
<feOffset dy="1.4514"/>
<feGaussianBlur stdDeviation="2.90281"/>
<feComposite in2="hardAlpha" operator="out"/>
<feColorMatrix type="matrix" values="0 0 0 0 0 0 0 0 0 0 0 0 0 0 0 0 0 0 0.24 0"/>
<feBlend mode="normal" in2="BackgroundImageFix" result="effect1_dropShadow_18_1906"/>
<feBlend mode="normal" in="SourceGraphic" in2="effect1_dropShadow_18_1906" result="shape"/>
</filter>
<linearGradient id="paint0_linear_18_1906" x1="22.0321" y1="65.0264" x2="114.914" y2="70.9664" gradientUnits="userSpaceOnUse">
<stop stop-color="white" stop-opacity="0"/>
<stop offset="0.640962" stop-color="white" stop-opacity="0.4"/>
<stop offset="1" stop-color="white" stop-opacity="0.96"/>
</linearGradient>
<linearGradient id="paint1_linear_18_1906" x1="88.5156" y1="48.3781" x2="22.3071" y2="44.7172" gradientUnits="userSpaceOnUse">
<stop stop-color="white"/>
<stop offset="1" stop-color="white" stop-opacity="0"/>
</linearGradient>
<linearGradient id="paint2_linear_18_1906" x1="26.8639" y1="35.3901" x2="101.806" y2="6.07193" gradientUnits="userSpaceOnUse">
<stop stop-color="white" stop-opacity="0"/>
<stop offset="0.640962" stop-color="white" stop-opacity="0.4"/>
<stop offset="1" stop-color="white" stop-opacity="0.96"/>
</linearGradient>
<linearGradient id="paint3_linear_18_1906" x1="90.5007" y1="36.2019" x2="24.2923" y2="32.541" gradientUnits="userSpaceOnUse">
<stop stop-color="white"/>
<stop offset="1" stop-color="white" stop-opacity="0"/>
</linearGradient>
<radialGradient id="paint4_radial_18_1906" cx="0" cy="0" r="1" gradientUnits="userSpaceOnUse" gradientTransform="translate(48.2373 51.9303) rotate(-82.555) scale(28.5125 66.8959)">
<stop stop-color="white" stop-opacity="0"/>
<stop offset="0.640962" stop-color="white" stop-opacity="0.24"/>
<stop offset="1" stop-color="white" stop-opacity="0.56"/>
</radialGradient>
<linearGradient id="paint5_linear_18_1906" x1="28.7323" y1="23.9301" x2="103.675" y2="-5.38809" gradientUnits="userSpaceOnUse">
<stop stop-color="white" stop-opacity="0"/>
<stop offset="0.640962" stop-color="white" stop-opacity="0.4"/>
<stop offset="1" stop-color="white" stop-opacity="0.96"/>
</linearGradient>
<radialGradient id="paint6_radial_18_1906" cx="0" cy="0" r="1" gradientUnits="userSpaceOnUse" gradientTransform="translate(51.1173 39.1399) rotate(-82.4937) scale(25.9241 61.3126)">
<stop stop-color="white" stop-opacity="0"/>
<stop offset="0.640962" stop-color="white" stop-opacity="0.24"/>
<stop offset="1" stop-color="white" stop-opacity="0.56"/>
</radialGradient>
<linearGradient id="paint7_linear_18_1906" x1="89.8515" y1="24.8774" x2="29.1633" y2="21.5753" gradientUnits="userSpaceOnUse">
<stop stop-opacity="0"/>
<stop offset="1"/>
</linearGradient>
<linearGradient id="paint8_linear_18_1906" x1="30.6708" y1="12.0404" x2="105.613" y2="-17.2778" gradientUnits="userSpaceOnUse">
<stop stop-color="white" stop-opacity="0"/>
<stop offset="0.640962" stop-color="white" stop-opacity="0.4"/>
<stop offset="1" stop-color="white" stop-opacity="0.96"/>
</linearGradient>
<linearGradient id="paint9_linear_18_1906" x1="94.3076" y1="12.8522" x2="28.0992" y2="9.19128" gradientUnits="userSpaceOnUse">
<stop stop-color="white"/>
<stop offset="1" stop-color="white" stop-opacity="0"/>
</linearGradient>
<radialGradient id="paint10_radial_18_1906" cx="0" cy="0" r="1" gradientUnits="userSpaceOnUse" gradientTransform="translate(52.0442 28.5806) rotate(-82.555) scale(28.5125 66.8959)">
<stop stop-color="white" stop-opacity="0"/>
<stop offset="0.640962" stop-color="white" stop-opacity="0.24"/>
<stop offset="1" stop-color="white" stop-opacity="0.56"/>
</radialGradient>
<clipPath id="clip0_18_1906">
<rect width="21.2246" height="30.4795" fill="white" transform="translate(38.905 105.853) rotate(9.25987)"/>
</clipPath>
</defs>
</svg>
