<svg width="31" height="30" viewBox="0 0 31 30" fill="none" xmlns="http://www.w3.org/2000/svg">
<path d="M10.9492 30C13.7092 30 15.9492 27.76 15.9492 25V20H10.9492C8.18922 20 5.94922 22.24 5.94922 25C5.94922 27.76 8.18922 30 10.9492 30Z" fill="#0ACF83"/>
<path d="M5.94922 15C5.94922 12.24 8.18922 10 10.9492 10H15.9492V20H10.9492C8.18922 20 5.94922 17.76 5.94922 15Z" fill="#A259FF"/>
<path d="M5.94922 5C5.94922 2.24 8.18922 0 10.9492 0H15.9492V9.99999H10.9492C8.18922 9.99999 5.94922 7.76 5.94922 5Z" fill="#F24E1E"/>
<path d="M15.9492 0H20.9492C23.7092 0 25.9492 2.24 25.9492 5C25.9492 7.76 23.7092 9.99999 20.9492 9.99999H15.9492V0Z" fill="#FF7262"/>
<path d="M25.9492 15C25.9492 17.76 23.7092 20 20.9492 20C18.1892 20 15.9492 17.76 15.9492 15C15.9492 12.24 18.1892 10 20.9492 10C23.7092 10 25.9492 12.24 25.9492 15Z" fill="#1ABCFE"/>
</svg>
