<svg width="30" height="30" viewBox="0 0 30 30" fill="none" xmlns="http://www.w3.org/2000/svg">
<path d="M24.2463 19.4465C24.5613 19.7615 24.3379 20.2998 23.8929 20.2998H15.5996C15.3229 20.2998 15.0996 20.5231 15.0996 20.7998V29.0931C15.0996 29.5381 14.5613 29.7615 14.2463 29.4465L5.29461 20.4948C5.16961 20.3698 5.09961 20.1998 5.09961 20.0231V10.7998C5.09961 10.5231 5.32294 10.2998 5.59961 10.2998H15.0996L24.2463 19.4465Z" fill="white"/>
<path d="M15.0997 10.2998L5.95308 1.15314C5.63808 0.838138 5.86141 0.299805 6.30641 0.299805H24.5997C24.8764 0.299805 25.0997 0.523138 25.0997 0.799805V9.7998C25.0997 10.0765 24.8764 10.2998 24.5997 10.2998H15.0997Z" fill="white"/>
</svg>
