<svg width="31" height="30" viewBox="0 0 31 30" fill="none" xmlns="http://www.w3.org/2000/svg">
<path d="M30.1881 13.6633L17.0898 0.565752C16.336 -0.188584 15.1125 -0.188584 14.3577 0.565752L11.6378 3.28567L15.0882 6.73602C15.89 6.46509 16.8094 6.64685 17.4486 7.28599C18.0907 7.92923 18.2712 8.85653 17.9937 9.66091L21.3189 12.9862C22.1234 12.7091 23.0516 12.8884 23.6942 13.532C24.5922 14.4296 24.5922 15.8845 23.6942 16.7827C22.7959 17.6811 21.341 17.6811 20.4423 16.7827C19.7669 16.1066 19.6 15.1146 19.9419 14.2824L16.8409 11.1814L16.8406 19.342C17.0654 19.4532 17.2707 19.6 17.4486 19.7768C18.3466 20.6744 18.3466 22.1294 17.4486 23.0284C16.5503 23.9263 15.0947 23.9263 14.1978 23.0284C13.2998 22.1294 13.2998 20.6745 14.1978 19.7769C14.413 19.5616 14.6687 19.3911 14.9502 19.2752V11.0386C14.6683 10.9235 14.4124 10.7529 14.1978 10.5369C13.5174 9.85743 13.3538 8.85911 13.7024 8.02368L10.3012 4.62208L1.31992 13.6027C0.565234 14.3578 0.565234 15.5813 1.31992 16.3358L14.4184 29.4336C15.1725 30.1881 16.3957 30.1881 17.1508 29.4336L30.188 16.3966C30.9425 15.6419 30.9426 14.4177 30.1881 13.6633Z" fill="#DE4C36"/>
</svg>
