<svg width="31" height="30" viewBox="0 0 31 30" fill="none" xmlns="http://www.w3.org/2000/svg">
<path d="M15.5596 0.300293C7.27639 0.300293 0.55957 7.01594 0.55957 15.3003C0.55957 21.9279 4.85754 27.5505 10.8176 29.534C11.5672 29.6728 11.8425 29.2086 11.8425 28.8123C11.8425 28.4547 11.8285 27.273 11.8221 26.0196C7.64897 26.927 6.76841 24.2498 6.76841 24.2498C6.08608 22.516 5.10294 22.055 5.10294 22.055C3.74205 21.124 5.20552 21.1431 5.20552 21.1431C6.71182 21.249 7.50497 22.6889 7.50497 22.6889C8.84281 24.9821 11.014 24.3191 11.87 23.9359C12.0046 22.9663 12.3934 22.3047 12.8223 21.9301C9.49067 21.5507 5.9882 20.2645 5.9882 14.517C5.9882 12.8794 6.57418 11.5412 7.53379 10.4908C7.37803 10.1129 6.86464 8.58729 7.67908 6.52113C7.67908 6.52113 8.93869 6.11797 11.8052 8.05872C13.0016 7.72626 14.2848 7.55968 15.5596 7.55404C16.8344 7.55968 18.1186 7.72626 19.3174 8.05872C22.1805 6.11797 23.4383 6.52113 23.4383 6.52113C24.2547 8.58729 23.7411 10.1129 23.5853 10.4908C24.5471 11.5412 25.1291 12.8793 25.1291 14.517C25.1291 20.2782 21.62 21.5468 18.2799 21.9181C18.8179 22.3836 19.2973 23.2965 19.2973 24.6959C19.2973 26.7029 19.2798 28.3182 19.2798 28.8123C19.2798 29.2115 19.5498 29.6792 20.3103 29.532C26.267 27.5463 30.5596 21.9256 30.5596 15.3003C30.5596 7.01594 23.8437 0.300293 15.5596 0.300293Z" fill="white"/>
<path d="M6.17715 21.6679C6.14421 21.7424 6.0268 21.7648 5.9201 21.7137C5.81128 21.6648 5.7501 21.5631 5.7854 21.4883C5.81775 21.4116 5.93516 21.3902 6.04374 21.4417C6.1528 21.4905 6.21491 21.5931 6.17715 21.6679V21.6679ZM6.91501 22.3263C6.84348 22.3926 6.7036 22.3618 6.60866 22.257C6.51055 22.1524 6.4922 22.0126 6.56478 21.9452C6.63854 21.879 6.77419 21.9099 6.87254 22.0146C6.97065 22.1204 6.98971 22.2593 6.91489 22.3264L6.91501 22.3263ZM7.42122 23.1686C7.32923 23.2325 7.17888 23.1726 7.08606 23.0392C6.99418 22.9059 6.99418 22.7459 7.08806 22.6818C7.18123 22.6177 7.32923 22.6753 7.42334 22.8077C7.5151 22.9433 7.5151 23.1033 7.42111 23.1687L7.42122 23.1686ZM8.2772 24.1442C8.19496 24.2348 8.01991 24.2106 7.89168 24.0868C7.76062 23.9659 7.72404 23.7942 7.80651 23.7035C7.88968 23.6127 8.06579 23.6382 8.19496 23.7609C8.32519 23.8816 8.36496 24.0546 8.27731 24.1442H8.2772ZM9.38351 24.4736C9.34739 24.591 9.17869 24.6444 9.00882 24.5945C8.83918 24.5431 8.72812 24.4055 8.76236 24.2868C8.79765 24.1686 8.96705 24.1129 9.13823 24.1663C9.30763 24.2175 9.41892 24.3541 9.38363 24.4736H9.38351ZM10.6428 24.6132C10.647 24.737 10.5029 24.8396 10.3245 24.8418C10.1451 24.8457 10.0001 24.7456 9.9982 24.6239C9.9982 24.499 10.139 24.3974 10.3183 24.3944C10.4967 24.3909 10.6428 24.4903 10.6428 24.6132V24.6132ZM11.8797 24.5658C11.9011 24.6865 11.7771 24.8105 11.6 24.8435C11.4259 24.8752 11.2647 24.8008 11.2425 24.6811C11.2209 24.5574 11.3472 24.4335 11.521 24.4014C11.6984 24.3705 11.8571 24.4431 11.8797 24.5658" fill="white"/>
</svg>
