<svg width="31" height="30" viewBox="0 0 31 30" fill="none" xmlns="http://www.w3.org/2000/svg">
<path d="M11.1956 23.201C11.1956 23.201 10.0492 23.8677 12.0114 24.0933C14.3887 24.3644 15.6037 24.3256 18.2235 23.8297C18.2235 23.8297 18.9123 24.2616 19.8741 24.6357C14.0013 27.1526 6.58273 24.4899 11.1956 23.201V23.201ZM10.4779 19.9165C10.4779 19.9165 9.19211 20.8683 11.1559 21.0714C13.6953 21.3334 15.7008 21.3548 19.171 20.6866C19.171 20.6866 19.651 21.1732 20.4057 21.4393C13.3051 23.5156 5.39638 21.6031 10.4779 19.9165" fill="#5382A1"/>
<path d="M16.5275 14.3445C17.9746 16.0105 16.1473 17.5098 16.1473 17.5098C16.1473 17.5098 19.8216 15.613 18.1341 13.2377C16.5581 11.0227 15.3495 9.92204 21.8924 6.12744C21.8924 6.12744 11.6222 8.69244 16.5275 14.3445" fill="#E76F00"/>
<path d="M24.2946 25.6301C24.2946 25.6301 25.143 26.329 23.3602 26.8698C19.9704 27.8968 9.25128 28.2069 6.27353 26.9107C5.20315 26.4452 7.21049 25.7989 7.84188 25.6633C8.50037 25.5205 8.87674 25.5471 8.87674 25.5471C7.68632 24.7085 1.18237 27.1937 5.57308 27.9054C17.5471 29.8473 27.4005 27.0311 24.2946 25.6301ZM11.7464 16.513C11.7464 16.513 6.29403 17.8081 9.81562 18.2782C11.3025 18.4773 14.2666 18.4323 17.0277 18.2009C19.2841 18.0107 21.5499 17.6059 21.5499 17.6059C21.5499 17.6059 20.7542 17.9467 20.1786 18.3397C14.6418 19.796 3.94558 19.1185 7.02487 17.629C9.62904 16.3702 11.7464 16.513 11.7464 16.513H11.7464ZM21.5274 21.9802C27.1559 19.0554 24.5535 16.2447 22.7371 16.6235C22.2918 16.7161 22.0934 16.7963 22.0934 16.7963C22.0934 16.7963 22.2587 16.5375 22.5743 16.4254C26.1677 15.162 28.9314 20.1515 21.4143 22.1276C21.4143 22.1277 21.5014 22.0498 21.5274 21.9802" fill="#5382A1"/>
<path d="M18.134 8.68595e-05C18.134 8.68595e-05 21.2512 3.11838 15.1775 7.91317C10.3072 11.7595 14.0669 13.9526 15.1755 16.4583C12.3326 13.8933 10.2462 11.6352 11.6459 9.53373C13.7003 6.4487 19.3917 4.95305 18.134 0" fill="#E76F00"/>
<path d="M12.2989 29.906C17.7016 30.2518 25.9979 29.7141 26.1944 27.1577C26.1944 27.1577 25.8167 28.1269 21.7294 28.8965C17.1181 29.7642 11.4309 29.6629 8.05762 29.1068C8.0577 29.1068 8.74816 29.6783 12.299 29.906" fill="#5382A1"/>
</svg>
