<svg width="31" height="30" viewBox="0 0 31 30" fill="none" xmlns="http://www.w3.org/2000/svg">
<path d="M30.1953 0H0.195312V30H30.1953V0Z" fill="#F7DF1E"/>
<path d="M20.3481 23.4376C20.9523 24.4242 21.7385 25.1495 23.129 25.1495C24.2971 25.1495 25.0433 24.5657 25.0433 23.759C25.0433 22.7923 24.2766 22.45 22.9909 21.8876L22.2862 21.5852C20.2519 20.7185 18.9004 19.6328 18.9004 17.3376C18.9004 15.2233 20.5114 13.6138 23.029 13.6138C24.8214 13.6138 26.11 14.2376 27.0385 15.8709L24.8433 17.2804C24.36 16.4138 23.8385 16.0723 23.029 16.0723C22.2033 16.0723 21.68 16.5962 21.68 17.2804C21.68 18.1261 22.2038 18.4685 23.4133 18.9923L24.1181 19.2942C26.5133 20.3214 27.8657 21.3685 27.8657 23.7228C27.8657 26.2609 25.8719 27.6514 23.1942 27.6514C20.5762 27.6514 18.8847 26.4038 18.0571 24.7685L20.3481 23.4376ZM10.3895 23.6819C10.8323 24.4676 11.2352 25.1319 12.2038 25.1319C13.13 25.1319 13.7142 24.7695 13.7142 23.3604V13.7747H16.5333V23.3985C16.5333 26.3176 14.8219 27.6461 12.3238 27.6461C10.0666 27.6461 8.75949 26.4781 8.09473 25.0711L10.3895 23.6819Z" fill="black"/>
</svg>
