<svg width="30" height="30" viewBox="0 0 30 30" fill="none" xmlns="http://www.w3.org/2000/svg">
<g clip-path="url(#clip0_308_1393)">
<path d="M23.4568 23.3693C24.4922 22.9314 25.7267 22.772 27.3195 22.8117C27.2747 22.5137 26.7055 22.1597 26.2885 21.9004C26.1485 21.8133 26.0257 21.7369 25.9456 21.6769C25.3085 21.219 24.6315 20.741 23.9546 20.323C23.7365 20.1898 23.4225 20.0786 23.1204 19.9716C22.9261 19.9028 22.7366 19.8357 22.5807 19.7655C22.4214 19.7006 22.2045 19.6357 21.9703 19.5656C21.4139 19.3992 20.7601 19.2035 20.5498 18.9094C20.0084 18.2056 19.6306 17.3545 19.2533 16.5046C19.2143 16.4168 19.1754 16.329 19.1362 16.2414C18.9387 15.7899 18.719 15.3296 18.4981 14.8666C18.2513 14.3496 18.003 13.8293 17.7823 13.3145C17.6862 13.1048 17.6131 12.9066 17.5411 12.7115C17.4491 12.462 17.359 12.2175 17.2249 11.9606C15.7713 9.15328 13.6211 6.80375 11.0128 5.15121C10.1565 4.6136 9.20097 4.11571 8.14561 3.77734C7.82334 3.68069 7.46631 3.66514 7.10577 3.64943C6.79806 3.63602 6.4878 3.6225 6.19441 3.55837H5.77622C5.53481 3.49131 5.32049 3.29773 5.12113 3.11765C5.02455 3.03041 4.93147 2.94634 4.84053 2.88137C4.22323 2.4633 3.60605 2.18437 2.86934 1.88584C2.61054 1.76643 1.87382 1.48763 1.61501 1.70672C1.45563 1.74657 1.37606 1.80628 1.33622 1.96553C1.17696 2.20449 1.31648 2.56285 1.41591 2.78181C1.61326 3.20284 1.86281 3.51087 2.11853 3.82651C2.2498 3.98853 2.38269 4.15257 2.51099 4.33493C2.57226 4.42142 2.63615 4.50987 2.70111 4.5998C2.99498 5.00666 3.31082 5.44391 3.50651 5.86794C3.78265 6.46281 3.97949 7.09167 4.1756 7.71823C4.34709 8.26613 4.51804 8.81228 4.74098 9.33241C4.9201 9.7506 5.1989 10.2284 5.45771 10.6067C5.53888 10.7174 5.6447 10.8172 5.75183 10.9182C5.93367 11.0896 6.11927 11.2646 6.19442 11.5027C6.38805 11.8254 6.03256 12.7494 5.81657 13.3109C5.76601 13.4423 5.7231 13.5538 5.69666 13.6331C5.17891 15.2657 5.27846 17.5355 5.87578 18.9491C5.89713 18.999 5.91832 19.0496 5.93966 19.1005C6.15722 19.6201 6.39074 20.1779 6.97086 20.323C6.9889 20.305 6.99063 20.2992 6.9945 20.2964C6.99919 20.2931 7.00701 20.2941 7.05055 20.2832C7.07968 20.0543 7.10447 19.8272 7.12892 19.6032C7.22143 18.7557 7.30894 17.9539 7.60802 17.2767C7.75052 16.9271 7.98561 16.6448 8.21474 16.3696C8.33788 16.2217 8.45929 16.0759 8.56369 15.9228C8.69006 15.9986 8.73622 16.1706 8.78365 16.3473C8.81095 16.449 8.83866 16.5522 8.88234 16.6396C8.90113 16.6844 8.92003 16.7295 8.93905 16.7749C9.18185 17.3548 9.44308 17.9786 9.73846 18.5509C10.3955 19.8252 11.1323 21.0596 11.9685 22.1747C12.2471 22.5729 12.6455 23.0109 13.0038 23.3693C13.0583 23.417 13.1151 23.4577 13.1711 23.4978C13.2787 23.5748 13.3831 23.6496 13.4617 23.7675H13.5016V23.8273C13.1236 23.6887 12.8333 23.3905 12.55 23.0995C12.3856 22.9307 12.2235 22.7642 12.048 22.6327C11.1521 21.9557 10.077 20.9402 9.45966 19.9646C9.26524 19.5459 9.05962 19.1383 8.85115 18.7251C8.7821 18.5883 8.71275 18.4508 8.64339 18.3121C8.64339 18.3121 8.64349 18.2921 8.64339 18.2723C8.5673 18.3737 8.55587 18.4752 8.54211 18.5972C8.53428 18.6668 8.5257 18.743 8.50399 18.8297C8.43019 19.1136 8.39362 19.4088 8.35828 19.6941C8.26969 20.4093 8.1888 21.0624 7.54831 21.3185C6.53292 21.7367 5.77623 20.6414 5.45771 20.1438C4.44233 18.4912 4.16353 15.7038 4.88026 13.4539C4.93571 13.2807 4.97428 13.0955 5.01275 12.9108C5.08486 12.5646 5.15658 12.2203 5.3383 11.9606C5.29835 11.7213 5.16084 11.5974 5.02645 11.4763C4.95957 11.416 4.89346 11.3564 4.84054 11.2836C4.56174 10.9054 4.32292 10.4673 4.10382 10.0493C3.78548 9.42778 3.53647 8.71394 3.29516 8.02213C3.21947 7.80515 3.14453 7.59033 3.06846 7.38121C3.00049 7.20649 2.95622 7.03171 2.91254 6.85926C2.86663 6.678 2.82137 6.49932 2.74994 6.32598C2.56172 5.91816 2.25005 5.51042 1.9607 5.13187C1.8827 5.02983 1.80633 4.92992 1.73443 4.83269C1.65687 4.72138 1.55416 4.59236 1.43968 4.44855C0.878289 3.74331 0.0335551 2.68214 0.4801 1.60717C1.31636 -0.443581 4.24335 1.10929 5.37802 1.82614C5.49149 1.89909 5.61156 2.005 5.73553 2.11435C5.91617 2.27369 6.1051 2.44034 6.29398 2.523C6.54291 2.533 6.79187 2.54793 7.04082 2.56286C7.28967 2.57778 7.5385 2.59271 7.78727 2.6027C7.86878 2.62177 7.94984 2.64054 8.03039 2.65919C8.87463 2.8547 9.66324 3.03732 10.3358 3.41897C13.7604 5.43001 15.9904 7.48076 18.0412 10.8655C18.3196 11.3211 18.5095 11.8007 18.703 12.2892C18.8139 12.5694 18.926 12.8524 19.0565 13.1354C19.5543 14.2902 20.112 15.5045 20.6892 16.5997C20.7618 16.7449 20.8297 16.8948 20.8977 17.0449C21.0722 17.4303 21.2477 17.8176 21.5056 18.1329C21.5983 18.2654 21.8058 18.3361 22.0046 18.4039C22.1045 18.4379 22.2022 18.4712 22.2821 18.5112C22.5396 18.6438 22.8185 18.7643 23.0997 18.8856C23.5359 19.074 23.9774 19.2646 24.3528 19.5067C25.5076 20.2235 26.6226 21.0795 27.638 21.9557C27.8433 22.1393 28.0134 22.364 28.1833 22.5883C28.3265 22.7775 28.4697 22.9665 28.6335 23.1305V23.3096C28.315 23.4091 27.9964 23.5087 27.6779 23.5884C27.3313 23.6775 27.0044 23.7124 26.6801 23.747C26.3523 23.7821 26.0271 23.8168 25.6868 23.9069C25.6439 23.9192 25.6 23.9318 25.5552 23.9448C25.1632 24.0579 24.7061 24.1898 24.3129 24.2255C24.3328 24.2454 24.3528 24.2653 24.3528 24.2653C24.5447 24.8115 25.3607 25.2812 26.0295 25.6661C26.2626 25.8002 26.4778 25.9241 26.6425 26.0373C27.419 26.5948 28.1358 27.2718 28.7132 28.0482C28.8125 28.1475 28.9118 28.2418 29.0111 28.3361C29.1109 28.431 29.2108 28.5259 29.3105 28.6257C29.378 28.7221 29.4221 28.8325 29.4655 28.9411C29.5117 29.0568 29.5572 29.1704 29.6291 29.2629V29.3226C29.4549 29.2604 29.3351 29.1359 29.2164 29.0125C29.1451 28.9384 29.0741 28.8646 28.9919 28.8049C28.8044 28.6771 28.6169 28.5382 28.4294 28.3994C28.1789 28.2139 27.9285 28.0284 27.6779 27.8691C27.2926 27.6258 26.8763 27.4341 26.458 27.2414C26.0548 27.0558 25.6497 26.8692 25.2686 26.6347C24.8307 26.3559 24.4125 26.0373 23.9944 25.7188C23.6161 25.44 23.1981 24.9023 22.959 24.5042C22.8988 24.4096 22.8609 24.3075 22.8244 24.2092C22.7764 24.0801 22.7309 23.9575 22.6404 23.867C22.6702 23.5842 22.945 23.5128 23.2066 23.4448C23.2948 23.4219 23.3815 23.3994 23.4568 23.3693Z" fill="#00546B"/>
<path d="M6.19433 5.60912C6.43328 5.54942 6.6721 5.50944 7.0106 5.50944C7.07371 5.5726 7.15246 5.62634 7.23198 5.6806C7.35315 5.76329 7.47611 5.84719 7.54821 5.96749C7.59244 6.02942 7.62094 6.09135 7.64944 6.15328C7.68509 6.23075 7.72073 6.30821 7.78716 6.38568C7.78716 6.86346 7.64789 7.18197 7.36897 7.3812C7.36897 7.3812 7.34911 7.40106 7.32925 7.42105C7.24967 7.26196 7.17511 7.10287 7.10056 6.9438C7.02578 6.78426 6.95102 6.62474 6.87121 6.46525C6.79367 6.35673 6.7041 6.25725 6.6142 6.15742C6.47324 6.00087 6.33149 5.84346 6.23417 5.64897H6.19433V5.60912Z" fill="#00546B"/>
</g>
<defs>
<clipPath id="clip0_308_1393">
<rect width="30" height="30" fill="white"/>
</clipPath>
</defs>
</svg>
