<svg width="31" height="30" viewBox="0 0 31 30" fill="none" xmlns="http://www.w3.org/2000/svg">
<path d="M14.2732 0.320058C15.0171 -0.105724 15.9859 -0.107647 16.7292 0.320058C20.4682 2.43283 24.2085 4.54229 27.9469 6.65635C28.6501 7.05243 29.1204 7.83497 29.1133 8.64518V21.3564C29.1185 22.2002 28.6017 23.0014 27.8598 23.3885C24.1331 25.4897 20.4082 27.5934 16.682 29.6945C15.9228 30.1286 14.9345 30.0952 14.1989 29.6255C13.0817 28.9778 11.9624 28.3333 10.845 27.6862C10.6167 27.5501 10.3593 27.4418 10.1981 27.2204C10.3406 27.0283 10.5955 27.0043 10.8025 26.9204C11.2689 26.7721 11.6972 26.5341 12.1257 26.3031C12.234 26.2289 12.3663 26.2574 12.4702 26.3237C13.4256 26.8715 14.3726 27.4352 15.3312 27.9778C15.5357 28.0959 15.7428 27.9391 15.9176 27.8417C19.5747 25.7747 23.2363 23.7156 26.8928 21.648C27.0283 21.5828 27.1032 21.439 27.0922 21.2906C27.0947 17.0975 27.0928 12.9035 27.0934 8.71036C27.1089 8.54197 27.0115 8.38715 26.8592 8.31823C23.1454 6.22672 19.4334 4.132 15.7202 2.03996C15.6559 1.99573 15.5797 1.972 15.5016 1.97188C15.4235 1.97177 15.3473 1.99528 15.2828 2.03932C11.5696 4.132 7.85827 6.22864 4.14505 8.32005C3.99333 8.38907 3.8915 8.54133 3.90956 8.71036C3.9102 12.9035 3.90956 17.0975 3.90956 21.2913C3.90312 21.3637 3.91902 21.4363 3.95513 21.4994C3.99123 21.5625 4.04581 21.613 4.1115 21.6442C5.10239 22.2061 6.09456 22.764 7.08609 23.324C7.64468 23.6247 8.33053 23.8033 8.94596 23.573C9.48906 23.3782 9.86975 22.824 9.85939 22.2473C9.86452 18.0786 9.85682 13.9093 9.86323 9.74121C9.84966 9.55615 10.0252 9.40325 10.2051 9.42067C10.6812 9.41746 11.158 9.41426 11.6341 9.42195C11.8328 9.41746 11.9696 9.61673 11.945 9.80318C11.9431 13.9983 11.9502 18.1935 11.9418 22.3886C11.9431 23.5066 11.4838 24.7232 10.4496 25.2702C9.17557 25.9302 7.60088 25.7902 6.34223 25.1574C5.25261 24.6135 4.21279 23.9717 3.14251 23.3891C2.39876 23.0041 1.8845 22.1997 1.88974 21.3565V8.64518C1.88194 7.81819 2.37098 7.02144 3.09603 6.63113C6.82218 4.5283 10.5477 2.42386 14.2732 0.320058Z" fill="#8CC84B"/>
<path d="M17.524 9.12493C19.1491 9.02033 20.8889 9.06296 22.3513 9.86356C23.4835 10.4771 24.1112 11.7647 24.1312 13.0226C24.0996 13.1922 23.9222 13.2858 23.7603 13.2742C23.2887 13.2735 22.8171 13.2806 22.3456 13.271C22.1456 13.2787 22.0294 13.0943 22.0042 12.9174C21.8688 12.3156 21.5405 11.7195 20.974 11.4292C20.1044 10.9938 19.0961 11.0157 18.1478 11.0248C17.4556 11.0615 16.7112 11.1215 16.1247 11.5285C15.6745 11.8369 15.5377 12.4594 15.6984 12.9607C15.8499 13.3207 16.2654 13.4368 16.6054 13.5439C18.5639 14.0561 20.6393 14.0051 22.5604 14.6792C23.3557 14.954 24.1338 15.4883 24.406 16.321C24.7622 17.4371 24.6061 18.7712 23.812 19.6672C23.168 20.4046 22.2301 20.8059 21.2947 21.0238C20.0502 21.3013 18.7588 21.3084 17.495 21.1852C16.3067 21.0497 15.07 20.7375 14.1527 19.9278C13.3682 19.2467 12.985 18.1854 13.0231 17.161C13.0322 16.988 13.2044 16.8674 13.3701 16.8816C13.8449 16.8778 14.3198 16.8765 14.7946 16.8823C14.9842 16.8687 15.1249 17.0326 15.1346 17.2114C15.2222 17.7848 15.4377 18.3867 15.9377 18.7266C16.9028 19.3492 18.1137 19.3066 19.2187 19.324C20.1341 19.2834 21.1618 19.2711 21.9088 18.6661C22.303 18.321 22.4198 17.7436 22.3132 17.2468C22.1978 16.8275 21.7591 16.632 21.3824 16.5042C19.449 15.8927 17.3505 16.1146 15.4358 15.423C14.6585 15.1483 13.9068 14.6289 13.6082 13.8303C13.1915 12.7001 13.3824 11.3021 14.2597 10.4364C15.1151 9.57518 16.35 9.24353 17.524 9.12482V9.12493Z" fill="#8CC84B"/>
</svg>
