<svg width="32" height="31" viewBox="0 0 32 31" fill="none" xmlns="http://www.w3.org/2000/svg">
<path d="M15.8916 0.740234C8.23594 0.740234 8.71395 4.06019 8.71395 4.06019L8.72245 7.49977H16.0281V8.53242H5.82075C5.82075 8.53242 0.921875 7.97683 0.921875 15.7014C0.921875 23.4261 5.19773 23.1522 5.19773 23.1522H7.74955V19.5676C7.74955 19.5676 7.61198 15.2917 11.9572 15.2917H19.2031C19.2031 15.2917 23.2741 15.3575 23.2741 11.3572V4.74308C23.2741 4.74308 23.8924 0.740234 15.8916 0.740234ZM11.8633 3.05328C12.0359 3.05313 12.2069 3.08701 12.3664 3.15301C12.5259 3.219 12.6709 3.31581 12.793 3.43788C12.915 3.55995 13.0118 3.7049 13.0778 3.86443C13.1438 4.02395 13.1777 4.19493 13.1776 4.36757C13.1777 4.5402 13.1438 4.71118 13.0778 4.87071C13.0118 5.03023 12.915 5.17518 12.793 5.29725C12.6709 5.41933 12.5259 5.51613 12.3664 5.58212C12.2069 5.64812 12.0359 5.68201 11.8633 5.68185C11.6906 5.68201 11.5197 5.64812 11.3601 5.58212C11.2006 5.51613 11.0557 5.41933 10.9336 5.29725C10.8115 5.17518 10.7147 5.03023 10.6487 4.87071C10.5827 4.71118 10.5488 4.5402 10.549 4.36757C10.5488 4.19493 10.5827 4.02395 10.6487 3.86443C10.7147 3.7049 10.8115 3.55995 10.9336 3.43788C11.0557 3.31581 11.2006 3.219 11.3601 3.15301C11.5197 3.08701 11.6906 3.05313 11.8633 3.05328V3.05328Z" fill="url(#paint0_linear_257_3132)"/>
<path d="M16.1085 30.7403C23.7642 30.7403 23.2862 27.4204 23.2862 27.4204L23.2776 23.9809H15.9718V22.9482H26.1792C26.1792 22.9482 31.0781 23.5038 31.0781 15.779C31.0781 8.05439 26.8023 8.32835 26.8023 8.32835H24.2504V11.9128C24.2504 11.9128 24.388 16.1887 20.0428 16.1887H12.7969C12.7969 16.1887 8.72592 16.1229 8.72592 20.1233V26.7376C8.72592 26.7376 8.10774 30.7403 16.1084 30.7403H16.1085ZM20.1368 28.4275C19.9642 28.4277 19.7932 28.3938 19.6337 28.3278C19.4742 28.2618 19.3292 28.165 19.2071 28.0429C19.0851 27.9208 18.9883 27.7759 18.9223 27.6164C18.8563 27.4568 18.8224 27.2859 18.8225 27.1132C18.8224 26.9406 18.8562 26.7696 18.9222 26.61C18.9882 26.4505 19.085 26.3055 19.2071 26.1834C19.3292 26.0614 19.4741 25.9645 19.6337 25.8985C19.7932 25.8325 19.9642 25.7987 20.1368 25.7988C20.3095 25.7987 20.4804 25.8325 20.64 25.8985C20.7995 25.9645 20.9444 26.0613 21.0665 26.1834C21.1886 26.3055 21.2854 26.4504 21.3514 26.61C21.4174 26.7695 21.4513 26.9405 21.4511 27.1131C21.4513 27.2857 21.4174 27.4567 21.3514 27.6162C21.2854 27.7758 21.1886 27.9207 21.0665 28.0428C20.9444 28.1649 20.7995 28.2617 20.64 28.3277C20.4804 28.3936 20.3095 28.4275 20.1368 28.4274V28.4275Z" fill="url(#paint1_linear_257_3132)"/>
<defs>
<linearGradient id="paint0_linear_257_3132" x1="3.81993" y1="3.43855" x2="18.7647" y2="18.2342" gradientUnits="userSpaceOnUse">
<stop stop-color="#387EB8"/>
<stop offset="1" stop-color="#366994"/>
</linearGradient>
<linearGradient id="paint1_linear_257_3132" x1="12.9925" y1="12.9396" x2="29.0415" y2="28.1112" gradientUnits="userSpaceOnUse">
<stop stop-color="#FFE052"/>
<stop offset="1" stop-color="#FFC331"/>
</linearGradient>
</defs>
</svg>
