<svg width="30" height="30" viewBox="0 0 30 30" fill="none" xmlns="http://www.w3.org/2000/svg">
<path d="M17.5 21.25C11.25 21.25 5.93836 18.1195 5.93836 14.3695C5.93836 10.6195 10.625 7.5 16.875 7.5C24.7684 7.5 28.4264 10.5364 28.4264 14.2864C28.4264 18.0364 24.3943 21.25 17.5 21.25ZM15 3.75C6.87504 3.75 0 8.12496 0 13.75C0 19.0625 6.83344 23.4729 14.9585 23.4729C23.0835 23.4729 30 19.375 30 13.75C30 8.12496 23.125 3.75 15 3.75Z" fill="url(#paint0_linear_102_1533)"/>
<path d="M12.4155 9.8237V26.3599H17.4128V19.9292C18.6621 19.9292 19.4062 19.6564 20.2236 21.1541C21.4729 23.2977 23.0346 26.3599 23.0346 26.3599H28.9687C28.9687 26.3599 25.2208 20.2355 24.9085 19.9292C24.3326 19.3167 23.6592 19.3167 22.7223 19.0105C24.5962 18.7043 26.3433 17.9267 26.9506 16.2608C27.4816 14.7298 27.4192 12.7821 26.281 11.476C25.2954 10.4426 24.2839 9.8237 21.7853 9.8237H12.4155ZM17.4128 13.2676H20.6921C21.4698 13.2676 22.0976 14.0332 22.0976 14.7987C22.0976 15.5642 21.4729 16.3298 20.6921 16.3298H17.4128V13.2676Z" fill="#2165B6"/>
<defs>
<linearGradient id="paint0_linear_102_1533" x1="11.3918" y1="7.10267" x2="20.6147" y2="22.7624" gradientUnits="userSpaceOnUse">
<stop stop-color="#C9CBCE"/>
<stop offset="1" stop-color="#7B7A81"/>
</linearGradient>
</defs>
</svg>
