<svg width="31" height="30" viewBox="0 0 31 30" fill="none" xmlns="http://www.w3.org/2000/svg">
<path d="M15.307 17.6447C16.7677 17.6447 17.9518 16.4606 17.9518 14.9999C17.9518 13.5391 16.7677 12.355 15.307 12.355C13.8463 12.355 12.6621 13.5391 12.6621 14.9999C12.6621 16.4606 13.8463 17.6447 15.307 17.6447Z" fill="#61DAFB"/>
<path d="M15.3062 20.4186C23.1443 20.4186 29.4982 17.9925 29.4982 14.9998C29.4982 12.0071 23.1443 9.58105 15.3062 9.58105C7.46823 9.58105 1.11426 12.0071 1.11426 14.9998C1.11426 17.9925 7.46823 20.4186 15.3062 20.4186Z" stroke="#61DAFB" stroke-width="1.5"/>
<path d="M10.6137 17.7094C14.5328 24.4973 19.8108 28.787 22.4025 27.2906C24.9943 25.7943 23.9183 19.0785 19.9993 12.2906C16.0803 5.5027 10.8023 1.21303 8.21054 2.70938C5.61879 4.20573 6.69474 10.9215 10.6137 17.7094Z" stroke="#61DAFB" stroke-width="1.5"/>
<path d="M10.6141 12.2908C6.69514 19.0787 5.61919 25.7945 8.21094 27.2908C10.8027 28.7872 16.0807 24.4975 19.9997 17.7096C23.9187 10.9216 24.9947 4.20592 22.4029 2.70957C19.8112 1.21322 14.5332 5.50289 10.6141 12.2908Z" stroke="#61DAFB" stroke-width="1.5"/>
</svg>
