<svg width="31" height="30" viewBox="0 0 31 30" fill="none" xmlns="http://www.w3.org/2000/svg">
<path d="M15.9746 6C11.9745 6 9.47455 7.9995 8.47442 11.9981C9.97461 9.99862 11.7246 9.24909 13.7245 9.74877C14.8657 10.0339 15.6812 10.8618 16.5842 11.7779C18.0548 13.2702 19.7568 14.9974 23.4748 14.9974C27.4745 14.9974 29.9749 12.9979 30.9746 8.99887C29.4748 10.9984 27.7248 11.7483 25.7245 11.2486C24.5837 10.9635 23.7682 10.1355 22.8652 9.21945C21.3946 7.72714 19.6923 6 15.9746 6V6ZM8.47442 14.9974C4.47467 14.9974 1.97436 16.9969 0.974609 20.9958C2.47442 18.9964 4.22445 18.2464 6.2247 18.7465C7.36551 19.032 8.18106 19.8595 9.08403 20.7753C10.5546 22.2676 12.257 23.9951 15.9746 23.9951C19.9747 23.9951 22.4747 21.9956 23.4748 17.9966C21.9746 19.9961 20.2246 20.746 18.2247 20.2459C17.0835 19.9612 16.268 19.1329 15.365 18.2172C13.8945 16.7249 12.1924 14.9974 8.47442 14.9974V14.9974Z" fill="#06B6D4"/>
</svg>
