<svg width="31" height="30" viewBox="0 0 31 30" fill="none" xmlns="http://www.w3.org/2000/svg">
<path d="M0.779297 0H30.7793V30H0.779297V0Z" fill="#017ACB"/>
<path d="M15.184 11.1096H16.6231V13.5939H12.7324V24.6471L12.6293 24.6752C12.4887 24.7127 10.6371 24.7127 10.2387 24.6705L9.91993 24.6424V13.5939H6.0293V11.1096L7.26211 11.0955C7.93711 11.0861 9.67149 11.0861 11.1152 11.0955C12.559 11.1049 14.3871 11.1096 15.184 11.1096V11.1096ZM26.1668 23.4752C25.595 24.0799 24.9809 24.4174 23.959 24.6939C23.5137 24.8158 23.4387 24.8205 22.4356 24.8158C21.4324 24.8111 21.3528 24.8111 20.8653 24.6846C19.6043 24.3611 18.5871 23.7283 17.8934 22.833C17.6965 22.5799 17.3731 22.0549 17.3731 21.9893C17.3731 21.9705 17.4199 21.9283 17.4809 21.9002C17.5418 21.8721 17.6684 21.7924 17.7715 21.7314C17.8746 21.6705 18.0621 21.558 18.1887 21.4924C18.3153 21.4268 18.6809 21.2111 18.9996 21.0189C19.3184 20.8268 19.609 20.6721 19.6418 20.6721C19.6746 20.6721 19.7356 20.7377 19.7824 20.8174C20.0637 21.2908 20.7199 21.8955 21.184 22.1018C21.4699 22.2236 22.1028 22.3596 22.4074 22.3596C22.6887 22.3596 23.2043 22.2377 23.4809 22.1111C23.7762 21.9752 23.9262 21.8393 24.1043 21.5674C24.2262 21.3752 24.2403 21.3236 24.2356 20.958C24.2356 20.6205 24.2168 20.5268 24.1231 20.3721C23.8606 19.9408 23.5043 19.7158 22.0606 19.0783C20.5699 18.4174 19.8996 18.0236 19.3559 17.4939C18.9528 17.1002 18.8731 16.9924 18.6199 16.5002C18.2918 15.8674 18.2496 15.6611 18.2449 14.7189C18.2403 14.058 18.2543 13.8424 18.3246 13.6174C18.4231 13.2799 18.7418 12.6283 18.8871 12.4643C19.1871 12.1127 19.2949 12.0049 19.5059 11.8314C20.1434 11.3064 21.1371 10.9596 22.0887 10.9268C22.1965 10.9268 22.5528 10.9455 22.8856 10.9689C23.8418 11.0486 24.4934 11.283 25.1215 11.7846C25.595 12.1596 26.3121 13.0408 26.2418 13.158C26.195 13.2283 24.3246 14.4752 24.2028 14.5127C24.1278 14.5361 24.0762 14.508 23.9731 14.3861C23.3356 13.6221 23.0778 13.458 22.459 13.4205C22.0184 13.3924 21.784 13.4439 21.4887 13.6408C21.1793 13.8471 21.0293 14.1611 21.0293 14.5971C21.034 15.2346 21.2778 15.5346 22.1778 15.9799C22.759 16.2658 23.2559 16.5002 23.2934 16.5002C23.3496 16.5002 24.5543 17.1002 24.8684 17.2877C26.3309 18.1455 26.9262 19.0268 27.0809 20.5455C27.1934 21.6893 26.87 22.7346 26.1668 23.4752V23.4752Z" fill="white"/>
</svg>
