<svg width="31" height="30" viewBox="0 0 31 30" fill="none" xmlns="http://www.w3.org/2000/svg">
<path d="M0.648706 10.6495C0.648706 10.6495 -0.0819815 10.1228 0.794844 9.41954L2.83772 7.59282C2.83772 7.59282 3.42227 6.97782 4.04031 7.51366L22.8921 21.7864V28.6305C22.8921 28.6305 22.8829 29.7053 21.5037 29.5865L0.648706 10.6495Z" fill="#2489CA"/>
<path d="M5.50872 15.0615L0.649647 19.4791C0.649647 19.4791 0.150343 19.8506 0.649647 20.5143L2.90565 22.5663C2.90565 22.5663 3.44149 23.1417 4.23306 22.4871L9.38442 18.581L5.50872 15.0615Z" fill="#1070B3"/>
<path d="M14.0389 15.0979L22.9502 8.29336L22.8924 1.48577C22.8924 1.48577 22.5118 2.96781e-05 21.2423 0.773343L9.38379 11.5662L14.0389 15.0979Z" fill="#0877B9"/>
<path d="M21.504 29.596C22.0216 30.1257 22.6488 29.9522 22.6488 29.9522L29.5933 26.5301C30.4823 25.9243 30.3575 25.1723 30.3575 25.1723V4.73735C30.3575 3.83921 29.4381 3.52867 29.4381 3.52867L23.419 0.627228C22.1038 -0.185663 21.2422 0.773366 21.2422 0.773366C21.2422 0.773366 22.3504 -0.0243027 22.8923 1.48579V28.5061C22.8923 28.6918 22.8527 28.8744 22.7736 29.0388C22.6153 29.3585 22.2712 29.6569 21.4462 29.5321L21.504 29.596Z" fill="#3C99D4"/>
</svg>
