<svg width="480" height="321" viewBox="0 0 480 321" fill="none" xmlns="http://www.w3.org/2000/svg">
<g clip-path="url(#clip0_4865_1694)">
<rect width="480" height="320" transform="translate(0 0.6875)" fill="#ECEFF4"/>
<path d="M169.055 143.162V119.695H177.812C179.408 119.695 180.815 119.989 182.033 120.577C183.272 121.144 184.238 121.984 184.931 123.097C185.624 124.189 185.971 125.522 185.971 127.097C185.971 128.651 185.614 129.985 184.9 131.098C184.207 132.19 183.251 133.03 182.033 133.618C180.815 134.206 179.408 134.5 177.812 134.5H173.339V143.162H169.055ZM173.339 130.72H177.875C178.652 130.72 179.324 130.573 179.891 130.279C180.458 129.964 180.899 129.533 181.214 128.987C181.529 128.441 181.687 127.811 181.687 127.097C181.687 126.362 181.529 125.732 181.214 125.207C180.899 124.661 180.458 124.241 179.891 123.947C179.324 123.632 178.652 123.475 177.875 123.475H173.339V130.72ZM189.134 143.162V126.026H193.009V129.838L192.694 129.271C193.093 127.99 193.712 127.097 194.552 126.593C195.413 126.089 196.442 125.837 197.639 125.837H198.647V129.491H197.167C195.991 129.491 195.046 129.859 194.332 130.594C193.618 131.308 193.261 132.316 193.261 133.618V143.162H189.134ZM209.295 143.54C207.615 143.54 206.082 143.152 204.696 142.375C203.331 141.598 202.239 140.537 201.42 139.193C200.622 137.849 200.223 136.316 200.223 134.594C200.223 132.872 200.622 131.339 201.42 129.995C202.239 128.651 203.331 127.591 204.696 126.814C206.061 126.037 207.594 125.648 209.295 125.648C210.975 125.648 212.498 126.037 213.863 126.814C215.228 127.591 216.309 128.651 217.107 129.995C217.926 131.318 218.336 132.851 218.336 134.594C218.336 136.316 217.926 137.849 217.107 139.193C216.288 140.537 215.196 141.598 213.831 142.375C212.466 143.152 210.954 143.54 209.295 143.54ZM209.295 139.76C210.219 139.76 211.028 139.54 211.721 139.099C212.435 138.658 212.991 138.049 213.39 137.272C213.81 136.474 214.02 135.581 214.02 134.594C214.02 133.586 213.81 132.704 213.39 131.948C212.991 131.171 212.435 130.562 211.721 130.121C211.028 129.659 210.219 129.428 209.295 129.428C208.35 129.428 207.521 129.659 206.807 130.121C206.093 130.562 205.526 131.171 205.106 131.948C204.707 132.704 204.507 133.586 204.507 134.594C204.507 135.581 204.707 136.474 205.106 137.272C205.526 138.049 206.093 138.658 206.807 139.099C207.521 139.54 208.35 139.76 209.295 139.76ZM221.465 143.162V126.026H225.339V129.995L224.898 129.334C225.213 128.095 225.843 127.171 226.788 126.562C227.733 125.953 228.846 125.648 230.127 125.648C231.534 125.648 232.773 126.016 233.844 126.751C234.915 127.486 235.608 128.452 235.923 129.649L234.758 129.743C235.283 128.378 236.07 127.36 237.12 126.688C238.17 125.995 239.378 125.648 240.743 125.648C241.961 125.648 243.042 125.921 243.987 126.467C244.953 127.013 245.709 127.78 246.255 128.767C246.801 129.733 247.074 130.856 247.074 132.137V143.162H242.948V133.114C242.948 132.358 242.811 131.707 242.538 131.161C242.265 130.615 241.887 130.195 241.404 129.901C240.921 129.586 240.333 129.428 239.64 129.428C238.989 129.428 238.412 129.586 237.908 129.901C237.404 130.195 237.015 130.615 236.742 131.161C236.469 131.707 236.333 132.358 236.333 133.114V143.162H232.206V133.114C232.206 132.358 232.07 131.707 231.797 131.161C231.524 130.615 231.135 130.195 230.631 129.901C230.148 129.586 229.571 129.428 228.899 129.428C228.248 129.428 227.67 129.586 227.166 129.901C226.662 130.195 226.274 130.615 226.001 131.161C225.728 131.707 225.591 132.358 225.591 133.114V143.162H221.465ZM250.566 143.162V126.026H254.692V143.162H250.566ZM250.566 124.105V119.695H254.692V124.105H250.566ZM265.023 143.54C263.196 143.54 261.6 143.11 260.235 142.249C258.891 141.367 257.967 140.18 257.463 138.689L260.55 137.209C260.991 138.175 261.6 138.931 262.377 139.477C263.175 140.023 264.057 140.296 265.023 140.296C265.779 140.296 266.377 140.128 266.818 139.792C267.259 139.456 267.48 139.015 267.48 138.469C267.48 138.133 267.385 137.86 267.196 137.65C267.028 137.419 266.787 137.23 266.472 137.083C266.178 136.915 265.852 136.778 265.495 136.673L262.692 135.886C261.243 135.466 260.14 134.825 259.384 133.964C258.649 133.103 258.282 132.085 258.282 130.909C258.282 129.859 258.544 128.945 259.069 128.168C259.615 127.37 260.361 126.751 261.306 126.31C262.272 125.869 263.374 125.648 264.613 125.648C266.23 125.648 267.658 126.037 268.897 126.814C270.136 127.591 271.018 128.683 271.543 130.09L268.393 131.57C268.099 130.793 267.606 130.174 266.913 129.712C266.22 129.25 265.443 129.019 264.582 129.019C263.889 129.019 263.343 129.176 262.944 129.491C262.545 129.806 262.345 130.216 262.345 130.72C262.345 131.035 262.429 131.308 262.597 131.539C262.765 131.77 262.996 131.959 263.29 132.106C263.605 132.253 263.962 132.389 264.361 132.515L267.102 133.334C268.509 133.754 269.59 134.384 270.346 135.224C271.123 136.064 271.512 137.093 271.512 138.311C271.512 139.34 271.239 140.254 270.693 141.052C270.147 141.829 269.391 142.438 268.425 142.879C267.459 143.32 266.325 143.54 265.023 143.54ZM282.81 143.54C281.046 143.54 279.502 143.141 278.179 142.343C276.856 141.545 275.827 140.464 275.092 139.099C274.357 137.734 273.99 136.222 273.99 134.563C273.99 132.841 274.357 131.318 275.092 129.995C275.848 128.651 276.867 127.591 278.148 126.814C279.45 126.037 280.899 125.648 282.495 125.648C283.839 125.648 285.015 125.869 286.023 126.31C287.052 126.751 287.923 127.36 288.637 128.137C289.351 128.914 289.897 129.806 290.275 130.814C290.653 131.801 290.842 132.872 290.842 134.027C290.842 134.321 290.821 134.626 290.779 134.941C290.758 135.256 290.706 135.529 290.622 135.76H277.392V132.61H288.291L286.338 134.09C286.527 133.124 286.474 132.263 286.18 131.507C285.907 130.751 285.445 130.153 284.794 129.712C284.164 129.271 283.398 129.05 282.495 129.05C281.634 129.05 280.867 129.271 280.195 129.712C279.523 130.132 279.009 130.762 278.652 131.602C278.316 132.421 278.19 133.418 278.274 134.594C278.19 135.644 278.326 136.579 278.683 137.398C279.061 138.196 279.607 138.815 280.321 139.256C281.056 139.697 281.896 139.918 282.841 139.918C283.786 139.918 284.584 139.718 285.235 139.319C285.907 138.92 286.432 138.385 286.81 137.713L290.149 139.351C289.813 140.17 289.288 140.894 288.574 141.524C287.86 142.154 287.01 142.648 286.023 143.005C285.057 143.362 283.986 143.54 282.81 143.54ZM301.94 143.54C300.281 143.54 298.8 143.152 297.498 142.375C296.196 141.577 295.167 140.495 294.411 139.13C293.655 137.765 293.277 136.253 293.277 134.594C293.277 132.914 293.655 131.402 294.411 130.058C295.167 128.714 296.196 127.643 297.498 126.845C298.821 126.047 300.291 125.648 301.908 125.648C303.21 125.648 304.365 125.911 305.373 126.436C306.402 126.94 307.211 127.654 307.799 128.578L307.169 129.428V119.317H311.295V143.162H307.389V139.855L307.83 140.674C307.242 141.598 306.423 142.312 305.373 142.816C304.323 143.299 303.179 143.54 301.94 143.54ZM302.381 139.76C303.326 139.76 304.155 139.54 304.869 139.099C305.583 138.658 306.14 138.049 306.539 137.272C306.959 136.495 307.169 135.602 307.169 134.594C307.169 133.607 306.959 132.725 306.539 131.948C306.14 131.15 305.583 130.531 304.869 130.09C304.155 129.649 303.326 129.428 302.381 129.428C301.457 129.428 300.627 129.659 299.892 130.121C299.157 130.562 298.58 131.171 298.16 131.948C297.761 132.704 297.561 133.586 297.561 134.594C297.561 135.602 297.761 136.495 298.16 137.272C298.58 138.049 299.157 138.658 299.892 139.099C300.627 139.54 301.457 139.76 302.381 139.76Z" fill="#141414"/>
<path d="M151.49 175.562V152.095H160.247C161.843 152.095 163.25 152.389 164.468 152.977C165.707 153.544 166.673 154.384 167.366 155.497C168.059 156.589 168.406 157.922 168.406 159.497C168.406 161.051 168.049 162.385 167.335 163.498C166.642 164.59 165.686 165.43 164.468 166.018C163.25 166.606 161.843 166.9 160.247 166.9H155.774V175.562H151.49ZM155.774 163.12H160.31C161.087 163.12 161.759 162.973 162.326 162.679C162.893 162.364 163.334 161.933 163.649 161.387C163.964 160.841 164.122 160.211 164.122 159.497C164.122 158.762 163.964 158.132 163.649 157.607C163.334 157.061 162.893 156.641 162.326 156.347C161.759 156.032 161.087 155.875 160.31 155.875H155.774V163.12ZM175.752 175.941C174.555 175.941 173.515 175.741 172.633 175.342C171.751 174.943 171.069 174.376 170.586 173.641C170.103 172.885 169.861 172.013 169.861 171.026C169.861 170.081 170.071 169.241 170.491 168.506C170.911 167.75 171.562 167.12 172.444 166.616C173.326 166.112 174.439 165.755 175.783 165.545L181.39 164.632V167.782L176.571 168.601C175.752 168.748 175.143 169.01 174.744 169.388C174.345 169.766 174.145 170.26 174.145 170.869C174.145 171.457 174.366 171.929 174.807 172.286C175.269 172.622 175.836 172.79 176.508 172.79C177.369 172.79 178.125 172.612 178.776 172.255C179.448 171.877 179.962 171.362 180.319 170.711C180.697 170.06 180.886 169.346 180.886 168.569V164.159C180.886 163.424 180.592 162.815 180.004 162.332C179.437 161.828 178.681 161.576 177.736 161.576C176.854 161.576 176.067 161.818 175.374 162.301C174.702 162.763 174.208 163.382 173.893 164.159L170.523 162.521C170.859 161.618 171.384 160.841 172.098 160.19C172.833 159.518 173.694 158.993 174.681 158.615C175.668 158.237 176.739 158.048 177.894 158.048C179.301 158.048 180.54 158.311 181.611 158.836C182.682 159.34 183.511 160.054 184.099 160.978C184.708 161.881 185.013 162.941 185.013 164.159V175.562H181.107V172.633L181.989 172.57C181.548 173.305 181.023 173.924 180.414 174.428C179.805 174.911 179.112 175.289 178.335 175.562C177.558 175.815 176.697 175.941 175.752 175.941ZM196.331 175.752C194.399 175.752 192.898 175.226 191.827 174.176C190.777 173.105 190.252 171.604 190.252 169.672V162.112H187.291V158.426H187.606C188.446 158.426 189.097 158.206 189.559 157.765C190.021 157.324 190.252 156.683 190.252 155.843V154.52H194.378V158.426H198.316V162.112H194.378V169.451C194.378 170.018 194.473 170.501 194.662 170.9C194.872 171.299 195.187 171.604 195.607 171.814C196.048 172.024 196.604 172.129 197.276 172.129C197.423 172.129 197.591 172.118 197.78 172.097C197.99 172.076 198.19 172.055 198.379 172.034V175.562C198.085 175.605 197.749 175.647 197.371 175.689C196.993 175.731 196.646 175.752 196.331 175.752ZM201.531 175.562V151.717H205.658V161.797L205.091 161.198C205.49 160.169 206.141 159.392 207.044 158.867C207.968 158.321 209.039 158.048 210.257 158.048C211.517 158.048 212.63 158.321 213.596 158.867C214.583 159.413 215.349 160.18 215.895 161.167C216.441 162.133 216.714 163.256 216.714 164.537V175.562H212.588V165.514C212.588 164.758 212.441 164.107 212.147 163.561C211.853 163.015 211.443 162.595 210.918 162.301C210.414 161.986 209.816 161.828 209.123 161.828C208.451 161.828 207.852 161.986 207.327 162.301C206.802 162.595 206.393 163.015 206.099 163.561C205.805 164.107 205.658 164.758 205.658 165.514V175.562H201.531ZM220.204 175.562V158.426H224.078V162.395L223.637 161.734C223.952 160.495 224.582 159.571 225.527 158.962C226.472 158.353 227.585 158.048 228.866 158.048C230.273 158.048 231.512 158.416 232.583 159.151C233.654 159.886 234.347 160.852 234.662 162.049L233.497 162.143C234.022 160.778 234.809 159.76 235.859 159.088C236.909 158.395 238.117 158.048 239.482 158.048C240.7 158.048 241.781 158.321 242.726 158.867C243.692 159.413 244.448 160.18 244.994 161.167C245.54 162.133 245.813 163.256 245.813 164.537V175.562H241.687V165.514C241.687 164.758 241.55 164.107 241.277 163.561C241.004 163.015 240.626 162.595 240.143 162.301C239.66 161.986 239.072 161.828 238.379 161.828C237.728 161.828 237.151 161.986 236.647 162.301C236.143 162.595 235.754 163.015 235.481 163.561C235.208 164.107 235.072 164.758 235.072 165.514V175.562H230.945V165.514C230.945 164.758 230.809 164.107 230.536 163.561C230.263 163.015 229.874 162.595 229.37 162.301C228.887 161.986 228.31 161.828 227.638 161.828C226.987 161.828 226.409 161.986 225.905 162.301C225.401 162.595 225.013 163.015 224.74 163.561C224.467 164.107 224.33 164.758 224.33 165.514V175.562H220.204ZM254.502 175.941C253.305 175.941 252.265 175.741 251.383 175.342C250.501 174.943 249.819 174.376 249.336 173.641C248.853 172.885 248.611 172.013 248.611 171.026C248.611 170.081 248.821 169.241 249.241 168.506C249.661 167.75 250.312 167.12 251.194 166.616C252.076 166.112 253.189 165.755 254.533 165.545L260.14 164.632V167.782L255.321 168.601C254.502 168.748 253.893 169.01 253.494 169.388C253.095 169.766 252.895 170.26 252.895 170.869C252.895 171.457 253.116 171.929 253.557 172.286C254.019 172.622 254.586 172.79 255.258 172.79C256.119 172.79 256.875 172.612 257.526 172.255C258.198 171.877 258.712 171.362 259.069 170.711C259.447 170.06 259.636 169.346 259.636 168.569V164.159C259.636 163.424 259.342 162.815 258.754 162.332C258.187 161.828 257.431 161.576 256.486 161.576C255.604 161.576 254.817 161.818 254.124 162.301C253.452 162.763 252.958 163.382 252.643 164.159L249.273 162.521C249.609 161.618 250.134 160.841 250.848 160.19C251.583 159.518 252.444 158.993 253.431 158.615C254.418 158.237 255.489 158.048 256.644 158.048C258.051 158.048 259.29 158.311 260.361 158.836C261.432 159.34 262.261 160.054 262.849 160.978C263.458 161.881 263.763 162.941 263.763 164.159V175.562H259.857V172.633L260.739 172.57C260.298 173.305 259.773 173.924 259.164 174.428C258.555 174.911 257.862 175.289 257.085 175.562C256.308 175.815 255.447 175.941 254.502 175.941ZM267.577 175.562V151.717H271.703V167.341L270.128 166.868L278.192 158.426H283.327L276.995 165.325L283.453 175.562H278.728L273.121 166.679L275.578 166.175L270.412 171.719L271.703 169.199V175.562H267.577ZM293.576 175.941C291.812 175.941 290.269 175.541 288.946 174.743C287.623 173.945 286.594 172.864 285.859 171.499C285.124 170.134 284.756 168.622 284.756 166.963C284.756 165.241 285.124 163.718 285.859 162.395C286.615 161.051 287.633 159.991 288.914 159.214C290.216 158.437 291.665 158.048 293.261 158.048C294.605 158.048 295.781 158.269 296.789 158.71C297.818 159.151 298.69 159.76 299.404 160.537C300.118 161.314 300.664 162.206 301.042 163.214C301.42 164.201 301.609 165.272 301.609 166.427C301.609 166.721 301.588 167.026 301.546 167.341C301.525 167.656 301.472 167.929 301.388 168.16H288.158V165.01H299.057L297.104 166.49C297.293 165.524 297.241 164.663 296.947 163.907C296.674 163.151 296.212 162.553 295.561 162.112C294.931 161.671 294.164 161.45 293.261 161.45C292.4 161.45 291.634 161.671 290.962 162.112C290.29 162.532 289.775 163.162 289.418 164.002C289.082 164.821 288.956 165.818 289.04 166.994C288.956 168.044 289.093 168.979 289.45 169.798C289.828 170.596 290.374 171.215 291.088 171.656C291.823 172.097 292.663 172.318 293.608 172.318C294.553 172.318 295.351 172.118 296.002 171.719C296.674 171.32 297.199 170.785 297.577 170.113L300.916 171.751C300.58 172.57 300.055 173.294 299.341 173.924C298.627 174.554 297.776 175.048 296.789 175.405C295.823 175.762 294.752 175.941 293.576 175.941ZM304.737 175.562V158.426H308.611V162.238L308.296 161.671C308.695 160.39 309.315 159.497 310.155 158.993C311.016 158.489 312.045 158.237 313.242 158.237H314.25V161.891H312.769C311.593 161.891 310.648 162.259 309.934 162.994C309.22 163.708 308.863 164.716 308.863 166.018V175.562H304.737ZM323.039 175.941C321.212 175.941 319.616 175.51 318.251 174.649C316.907 173.767 315.983 172.58 315.479 171.089L318.566 169.609C319.007 170.575 319.616 171.331 320.393 171.877C321.191 172.423 322.073 172.696 323.039 172.696C323.795 172.696 324.394 172.528 324.835 172.192C325.276 171.856 325.496 171.415 325.496 170.869C325.496 170.533 325.402 170.26 325.213 170.05C325.045 169.819 324.803 169.63 324.488 169.483C324.194 169.315 323.869 169.178 323.512 169.073L320.708 168.286C319.259 167.866 318.157 167.225 317.401 166.364C316.666 165.503 316.298 164.485 316.298 163.309C316.298 162.259 316.561 161.345 317.086 160.568C317.632 159.77 318.377 159.151 319.322 158.71C320.288 158.269 321.391 158.048 322.63 158.048C324.247 158.048 325.675 158.437 326.914 159.214C328.153 159.991 329.035 161.083 329.56 162.49L326.41 163.97C326.116 163.193 325.622 162.574 324.929 162.112C324.236 161.65 323.459 161.419 322.598 161.419C321.905 161.419 321.359 161.576 320.96 161.891C320.561 162.206 320.362 162.616 320.362 163.12C320.362 163.435 320.446 163.708 320.614 163.939C320.782 164.17 321.013 164.359 321.307 164.506C321.622 164.653 321.979 164.789 322.378 164.915L325.118 165.734C326.525 166.154 327.607 166.784 328.363 167.624C329.14 168.464 329.528 169.493 329.528 170.711C329.528 171.74 329.255 172.654 328.709 173.452C328.163 174.229 327.407 174.838 326.441 175.279C325.475 175.72 324.341 175.941 323.039 175.941Z" fill="#141414"/>
<path d="M201.734 188.473C201.025 188.473 200.487 188.268 200.12 187.859C199.758 187.444 199.576 186.835 199.576 186.032V182.677C199.702 182.64 199.823 182.622 199.939 182.622C200.075 182.622 200.199 182.64 200.309 182.677V185.976C200.309 187.152 200.784 187.74 201.734 187.74C202.679 187.74 203.152 187.152 203.152 185.976V182.677C203.262 182.64 203.385 182.622 203.522 182.622C203.637 182.622 203.758 182.64 203.884 182.677V186.032C203.884 186.835 203.703 187.444 203.341 187.859C202.978 188.268 202.443 188.473 201.734 188.473ZM205.282 186.284C205.167 186.257 205.059 186.213 204.959 186.15C204.86 186.087 204.776 186 204.707 185.89L204.975 185.488C205.227 185.115 205.453 184.863 205.652 184.732C205.857 184.601 206.078 184.535 206.314 184.535C206.55 184.535 206.75 184.606 206.912 184.748C207.075 184.884 207.188 185.071 207.251 185.307C207.398 185.06 207.587 184.871 207.818 184.74C208.049 184.604 208.306 184.535 208.59 184.535C208.999 184.535 209.314 184.669 209.535 184.937C209.761 185.205 209.873 185.58 209.873 186.063V186.984C209.873 187.273 209.91 187.481 209.984 187.607C210.062 187.733 210.186 187.796 210.354 187.796C210.427 187.796 210.482 187.827 210.519 187.89C210.561 187.953 210.582 188.037 210.582 188.142C210.582 188.226 210.559 188.302 210.511 188.37C210.469 188.439 210.398 188.473 210.299 188.473C209.537 188.473 209.157 188.006 209.157 187.071V186.063C209.157 185.496 208.934 185.213 208.487 185.213C208.256 185.213 208.052 185.304 207.873 185.488C207.7 185.672 207.563 185.927 207.464 186.252C207.369 186.578 207.322 186.956 207.322 187.386V188.363C207.269 188.378 207.212 188.391 207.149 188.402C207.086 188.412 207.025 188.418 206.968 188.418C206.842 188.418 206.723 188.399 206.613 188.363V185.85C206.613 185.646 206.587 185.488 206.534 185.378C206.482 185.268 206.387 185.213 206.251 185.213C206.172 185.213 206.083 185.249 205.983 185.323C205.889 185.391 205.76 185.551 205.597 185.803L205.282 186.284ZM210.302 188.473C210.234 188.473 210.179 188.441 210.137 188.378C210.095 188.315 210.074 188.234 210.074 188.134C210.074 188.029 210.1 187.948 210.152 187.89C210.2 187.827 210.265 187.796 210.349 187.796C210.517 187.796 210.698 187.735 210.893 187.614C211.087 187.494 211.276 187.328 211.46 187.118C211.418 186.924 211.383 186.696 211.357 186.433C211.336 186.171 211.32 185.853 211.31 185.48C211.299 185.108 211.294 184.659 211.294 184.134H211.302L211.294 184.126C211.294 183.659 211.299 183.262 211.31 182.937C211.32 182.611 211.341 182.338 211.373 182.118C211.404 181.897 211.444 181.711 211.491 181.559C211.544 181.401 211.609 181.259 211.688 181.133C211.803 180.944 211.945 180.808 212.113 180.724C212.286 180.64 212.475 180.598 212.68 180.598C213.09 180.598 213.405 180.779 213.625 181.141C213.846 181.503 213.956 182.002 213.956 182.637C213.956 183.399 213.806 184.181 213.507 184.984C213.208 185.787 212.78 186.554 212.223 187.284C212.297 187.457 212.405 187.588 212.546 187.677C212.688 187.761 212.851 187.803 213.035 187.803C213.108 187.803 213.166 187.835 213.208 187.898C213.255 187.956 213.279 188.037 213.279 188.142C213.279 188.363 213.182 188.473 212.987 188.473C212.704 188.473 212.452 188.412 212.231 188.292C212.011 188.171 211.84 188.016 211.719 187.827C211.284 188.258 210.811 188.473 210.302 188.473ZM211.995 184.173C211.995 184.724 211.998 185.178 212.003 185.535C212.013 185.892 212.027 186.186 212.042 186.417C212.441 185.756 212.743 185.11 212.948 184.48C213.153 183.845 213.255 183.228 213.255 182.63C213.255 182.194 213.205 181.86 213.105 181.629C213.006 181.393 212.864 181.275 212.68 181.275C212.475 181.275 212.321 181.396 212.216 181.637C212.163 181.763 212.118 181.923 212.082 182.118C212.05 182.307 212.027 182.564 212.011 182.889C212 183.215 211.995 183.643 211.995 184.173ZM212.998 188.473C212.93 188.473 212.872 188.441 212.825 188.378C212.778 188.315 212.754 188.239 212.754 188.15C212.754 188.04 212.78 187.956 212.833 187.898C212.88 187.835 212.946 187.803 213.03 187.803C213.277 187.803 213.526 187.772 213.778 187.709C214.025 187.646 214.29 187.533 214.573 187.37C214.416 187.024 214.337 186.635 214.337 186.205C214.337 185.885 214.397 185.601 214.518 185.354C214.644 185.102 214.812 184.903 215.022 184.756C215.237 184.609 215.479 184.535 215.747 184.535C215.972 184.535 216.175 184.588 216.353 184.693C216.532 184.798 216.673 184.94 216.778 185.118C216.883 185.297 216.936 185.499 216.936 185.724C216.936 186.06 216.818 186.381 216.581 186.685C216.345 186.99 216.001 187.276 215.55 187.544C215.755 187.717 216.038 187.803 216.4 187.803C216.469 187.803 216.524 187.835 216.566 187.898C216.613 187.961 216.637 188.045 216.637 188.15C216.637 188.25 216.61 188.328 216.558 188.386C216.511 188.444 216.445 188.473 216.361 188.473C216.067 188.473 215.797 188.426 215.55 188.331C215.303 188.231 215.101 188.095 214.943 187.922C214.271 188.289 213.623 188.473 212.998 188.473ZM215.014 186.181C215.014 186.528 215.077 186.806 215.203 187.016C215.902 186.612 216.251 186.181 216.251 185.724C216.251 185.556 216.206 185.425 216.117 185.331C216.028 185.236 215.904 185.189 215.747 185.189C215.537 185.189 215.361 185.283 215.219 185.472C215.083 185.656 215.014 185.892 215.014 186.181ZM216.359 188.473C216.286 188.473 216.228 188.441 216.186 188.378C216.139 188.315 216.115 188.234 216.115 188.134C216.115 188.029 216.141 187.948 216.194 187.89C216.246 187.832 216.315 187.803 216.399 187.803C216.714 187.803 217.002 187.719 217.265 187.551C217.533 187.378 217.753 187.145 217.926 186.851C217.916 186.772 217.911 186.688 217.911 186.599C217.911 186.2 217.989 185.845 218.147 185.535C218.304 185.226 218.517 184.982 218.785 184.803C219.058 184.625 219.367 184.535 219.714 184.535C219.898 184.535 220.079 184.572 220.257 184.646C220.436 184.714 220.585 184.808 220.706 184.929V184.606C220.753 184.59 220.809 184.577 220.872 184.567C220.935 184.556 221 184.551 221.068 184.551C221.194 184.551 221.313 184.569 221.423 184.606V186.984C221.423 187.273 221.46 187.481 221.533 187.607C221.612 187.733 221.735 187.796 221.903 187.796C221.977 187.796 222.032 187.827 222.069 187.89C222.111 187.953 222.132 188.037 222.132 188.142C222.132 188.226 222.108 188.302 222.061 188.37C222.019 188.439 221.948 188.473 221.848 188.473C221.349 188.473 221.013 188.268 220.84 187.859C220.688 188.053 220.504 188.205 220.289 188.315C220.074 188.42 219.835 188.473 219.572 188.473C219.257 188.473 218.979 188.402 218.737 188.26C218.501 188.118 218.312 187.922 218.17 187.67C217.95 187.927 217.685 188.126 217.375 188.268C217.065 188.405 216.727 188.473 216.359 188.473ZM218.643 186.599C218.643 186.971 218.727 187.265 218.895 187.481C219.068 187.691 219.304 187.796 219.604 187.796C219.934 187.796 220.2 187.683 220.399 187.457C220.604 187.231 220.706 186.935 220.706 186.567V185.685C220.601 185.543 220.467 185.43 220.305 185.346C220.142 185.257 219.974 185.213 219.801 185.213C219.575 185.213 219.375 185.273 219.202 185.394C219.029 185.514 218.892 185.68 218.793 185.89C218.693 186.095 218.643 186.331 218.643 186.599ZM221.845 188.473C221.777 188.473 221.722 188.441 221.68 188.378C221.638 188.315 221.617 188.234 221.617 188.134C221.617 187.908 221.711 187.796 221.9 187.796C222.068 187.796 222.255 187.693 222.459 187.488C222.664 187.278 222.903 186.942 223.176 186.48L224.019 185.055C224.008 184.982 224.003 184.903 224.003 184.819C224.003 184.556 224.05 184.362 224.145 184.236C224.244 184.11 224.326 184.034 224.389 184.008C224.478 183.987 224.573 183.989 224.672 184.016C224.777 184.037 224.872 184.073 224.956 184.126C225.04 184.178 225.098 184.241 225.129 184.315C225.108 184.409 225.069 184.522 225.011 184.653C224.953 184.785 224.861 184.961 224.735 185.181C224.772 185.239 224.819 185.297 224.877 185.354C224.935 185.412 225.006 185.475 225.09 185.543L225.688 186.032C225.903 186.205 226.064 186.386 226.169 186.575C226.279 186.759 226.334 186.966 226.334 187.197C226.334 187.475 226.255 187.722 226.098 187.937C226.124 187.995 226.137 188.063 226.137 188.142C226.137 188.242 226.111 188.321 226.058 188.378C226.011 188.441 225.943 188.473 225.854 188.473C225.77 188.473 225.688 188.468 225.609 188.457C225.531 188.447 225.444 188.433 225.35 188.418C225.208 188.454 225.058 188.473 224.901 188.473C224.717 188.473 224.533 188.444 224.349 188.386C224.166 188.334 223.974 188.247 223.775 188.126C223.764 187.848 223.869 187.643 224.09 187.512C224.378 187.701 224.651 187.796 224.909 187.796C225.129 187.796 225.305 187.738 225.436 187.622C225.567 187.502 225.633 187.349 225.633 187.166C225.633 186.935 225.507 186.719 225.255 186.52L224.657 186.047C224.552 185.963 224.457 185.877 224.373 185.787L223.586 187.118C223.297 187.607 223.019 187.956 222.751 188.166C222.488 188.37 222.186 188.473 221.845 188.473ZM225.857 188.473C225.789 188.473 225.734 188.441 225.692 188.378C225.644 188.315 225.621 188.234 225.621 188.134C225.621 187.914 225.718 187.803 225.912 187.803C226.29 187.803 226.637 187.672 226.952 187.41C227.267 187.142 227.547 186.761 227.794 186.268V182.228C227.794 181.703 227.904 181.299 228.125 181.015C228.351 180.732 228.676 180.593 229.101 180.598C229.49 180.603 229.792 180.75 230.007 181.039C230.228 181.328 230.338 181.703 230.338 182.165C230.338 182.931 230.107 183.785 229.645 184.724C229.682 184.719 229.718 184.716 229.755 184.716C230.149 184.716 230.461 184.856 230.692 185.134C230.928 185.412 231.047 185.785 231.047 186.252V186.929C231.047 187.234 231.083 187.454 231.157 187.591C231.236 187.727 231.364 187.796 231.543 187.796C231.6 187.796 231.663 187.782 231.732 187.756C231.8 187.73 231.871 187.691 231.944 187.638C232.034 187.68 232.107 187.754 232.165 187.859C232.223 187.958 232.249 188.058 232.244 188.158C232.16 188.252 232.052 188.328 231.921 188.386C231.789 188.444 231.648 188.473 231.495 188.473C231.117 188.473 230.826 188.352 230.621 188.111C230.422 187.864 230.322 187.517 230.322 187.071V186.236C230.322 185.969 230.262 185.761 230.141 185.614C230.025 185.462 229.86 185.386 229.645 185.386C229.435 185.386 229.246 185.457 229.078 185.598C228.91 185.735 228.776 185.924 228.676 186.165C228.576 186.407 228.524 186.685 228.519 187V188.363C228.466 188.378 228.408 188.391 228.345 188.402C228.282 188.412 228.222 188.418 228.164 188.418C228.044 188.418 227.92 188.399 227.794 188.363V187.481C227.537 187.817 227.24 188.066 226.904 188.229C226.568 188.391 226.219 188.473 225.857 188.473ZM228.495 182.22V185.323C228.863 184.766 229.143 184.215 229.338 183.669C229.537 183.123 229.637 182.619 229.637 182.157C229.637 181.863 229.587 181.64 229.487 181.488C229.393 181.33 229.254 181.251 229.07 181.251C228.687 181.251 228.495 181.574 228.495 182.22ZM236.758 188.418C236.637 188.418 236.514 188.399 236.388 188.363V186.189L234.364 182.96C234.422 182.85 234.513 182.763 234.639 182.7C234.765 182.632 234.881 182.598 234.986 182.598L236.758 185.425L238.514 182.606C238.635 182.601 238.758 182.632 238.884 182.7C239.01 182.769 239.091 182.853 239.128 182.952L237.12 186.197V188.363C237.01 188.399 236.889 188.418 236.758 188.418ZM240.684 188.473C240.327 188.473 240.007 188.389 239.724 188.221C239.445 188.048 239.225 187.811 239.062 187.512C238.905 187.213 238.826 186.874 238.826 186.496C238.826 186.118 238.907 185.782 239.07 185.488C239.233 185.194 239.453 184.963 239.732 184.795C240.015 184.622 240.333 184.535 240.684 184.535C241.036 184.535 241.351 184.622 241.629 184.795C241.908 184.963 242.126 185.194 242.283 185.488C242.446 185.782 242.527 186.118 242.527 186.496C242.527 186.874 242.446 187.213 242.283 187.512C242.126 187.811 241.908 188.048 241.629 188.221C241.356 188.389 241.041 188.473 240.684 188.473ZM240.677 187.796C241.013 187.796 241.28 187.677 241.48 187.441C241.685 187.205 241.787 186.89 241.787 186.496C241.787 186.302 241.758 186.123 241.7 185.961C241.385 185.95 241.099 185.887 240.842 185.772C240.59 185.656 240.39 185.499 240.243 185.299C240.033 185.388 239.868 185.541 239.747 185.756C239.627 185.966 239.566 186.218 239.566 186.512C239.566 186.895 239.666 187.205 239.865 187.441C240.07 187.677 240.341 187.796 240.677 187.796ZM245.108 188.473C244.599 188.473 244.208 188.302 243.935 187.961C243.667 187.62 243.533 187.124 243.533 186.473V185.567C243.37 185.656 243.184 185.727 242.974 185.78C242.769 185.832 242.551 185.858 242.32 185.858C242.063 185.858 241.84 185.824 241.651 185.756C241.509 185.709 241.438 185.617 241.438 185.48C241.438 185.381 241.467 185.297 241.525 185.228C241.577 185.16 241.64 185.126 241.714 185.126C241.735 185.126 241.753 185.129 241.769 185.134C241.785 185.134 241.801 185.136 241.816 185.142C241.906 185.163 241.995 185.181 242.084 185.197C242.173 185.207 242.265 185.213 242.36 185.213C242.627 185.213 242.882 185.152 243.124 185.031C243.37 184.905 243.541 184.753 243.635 184.575C243.746 184.564 243.859 184.577 243.974 184.614C244.09 184.651 244.181 184.714 244.25 184.803V186.465C244.25 186.921 244.323 187.255 244.47 187.465C244.617 187.67 244.848 187.772 245.163 187.772C245.914 187.772 246.289 187.223 246.289 186.126V184.646C246.331 184.63 246.384 184.617 246.447 184.606C246.51 184.596 246.575 184.59 246.644 184.59C246.77 184.59 246.89 184.609 247.006 184.646V186.914C247.006 187.192 247.048 187.41 247.132 187.567C247.221 187.719 247.368 187.796 247.573 187.796C247.662 187.796 247.723 187.832 247.754 187.906C247.786 187.979 247.801 188.058 247.801 188.142C247.801 188.226 247.778 188.302 247.73 188.37C247.688 188.439 247.618 188.473 247.518 188.473C247.014 188.473 246.673 188.252 246.494 187.811C246.347 188.027 246.158 188.192 245.927 188.307C245.696 188.418 245.423 188.473 245.108 188.473ZM247.516 188.473C247.448 188.473 247.392 188.441 247.35 188.378C247.308 188.315 247.287 188.234 247.287 188.134C247.287 187.908 247.382 187.796 247.571 187.796C247.802 187.796 248.007 187.701 248.185 187.512C248.369 187.318 248.513 187.055 248.618 186.725C248.729 186.394 248.784 186.026 248.784 185.622C248.784 185.528 248.778 185.441 248.768 185.362C248.757 185.283 248.744 185.218 248.729 185.165C248.681 185.118 248.629 185.042 248.571 184.937C248.519 184.832 248.471 184.722 248.429 184.606C248.393 184.485 248.374 184.388 248.374 184.315C248.437 184.215 248.537 184.139 248.673 184.086C248.815 184.029 248.97 184.013 249.138 184.039C249.238 184.223 249.319 184.454 249.382 184.732C249.54 184.727 249.752 184.693 250.02 184.63C250.188 184.593 250.322 184.569 250.422 184.559C250.527 184.543 250.616 184.535 250.689 184.535C250.973 184.535 251.196 184.643 251.359 184.858C251.522 185.068 251.603 185.354 251.603 185.717V186.984C251.603 187.273 251.64 187.481 251.713 187.607C251.792 187.733 251.915 187.796 252.083 187.796C252.141 187.796 252.204 187.782 252.272 187.756C252.341 187.73 252.411 187.691 252.485 187.638C252.574 187.68 252.648 187.754 252.705 187.859C252.763 187.958 252.789 188.058 252.784 188.158C252.7 188.252 252.593 188.328 252.461 188.386C252.33 188.444 252.188 188.473 252.036 188.473H252.028C251.267 188.473 250.886 188.006 250.886 187.071V185.85C250.886 185.614 250.86 185.449 250.808 185.354C250.755 185.26 250.661 185.213 250.524 185.213C250.477 185.213 250.424 185.218 250.367 185.228C250.309 185.239 250.206 185.26 250.059 185.291C249.802 185.344 249.608 185.375 249.477 185.386C249.482 185.47 249.485 185.554 249.485 185.638C249.485 186.205 249.403 186.701 249.24 187.126C249.078 187.551 248.847 187.882 248.547 188.118C248.253 188.355 247.91 188.473 247.516 188.473Z" fill="#141414"/>
<path d="M256.242 188.394C256.184 188.394 256.124 188.391 256.061 188.386C256.003 188.381 255.943 188.373 255.88 188.363V182.677H259.195C259.227 182.771 259.243 182.884 259.243 183.015C259.243 183.147 259.227 183.262 259.195 183.362H256.612V185.126H258.943C259.001 185.357 259.001 185.585 258.943 185.811H256.612V188.363C256.555 188.373 256.494 188.381 256.431 188.386C256.368 188.391 256.305 188.394 256.242 188.394ZM259.703 188.394C259.582 188.352 259.477 188.289 259.388 188.205C259.304 188.116 259.249 188.011 259.223 187.89C259.317 187.801 259.427 187.688 259.553 187.551C259.679 187.415 259.803 187.252 259.923 187.063C260.044 186.869 260.144 186.651 260.223 186.41C260.307 186.168 260.349 185.898 260.349 185.598V184.646C260.396 184.63 260.451 184.617 260.514 184.606C260.577 184.596 260.643 184.59 260.711 184.59C260.832 184.59 260.95 184.609 261.065 184.646V186.465C261.065 186.921 261.139 187.255 261.286 187.465C261.433 187.67 261.664 187.772 261.979 187.772C262.73 187.772 263.105 187.223 263.105 186.126V184.646C263.147 184.63 263.199 184.617 263.262 184.606C263.325 184.596 263.391 184.59 263.459 184.59C263.585 184.59 263.706 184.609 263.822 184.646V186.914C263.822 187.192 263.864 187.41 263.948 187.567C264.037 187.719 264.184 187.796 264.389 187.796C264.478 187.796 264.538 187.832 264.57 187.906C264.601 187.979 264.617 188.058 264.617 188.142C264.617 188.226 264.593 188.302 264.546 188.37C264.504 188.439 264.433 188.473 264.333 188.473C263.829 188.473 263.488 188.252 263.31 187.811C263.163 188.027 262.974 188.192 262.743 188.307C262.512 188.418 262.239 188.473 261.924 188.473C261.204 188.473 260.729 188.145 260.498 187.488C260.378 187.683 260.246 187.859 260.105 188.016C259.968 188.174 259.834 188.3 259.703 188.394ZM264.39 187.796C264.521 187.796 264.671 187.756 264.839 187.677C265.012 187.599 265.18 187.465 265.343 187.276C265.506 187.087 265.639 186.832 265.744 186.512C265.849 186.186 265.902 185.78 265.902 185.291V184.535H265.319C265.282 184.451 265.264 184.346 265.264 184.22C265.264 184.094 265.282 183.989 265.319 183.905H265.902V182.511C266.002 182.475 266.122 182.456 266.264 182.456C266.39 182.456 266.511 182.475 266.626 182.511V183.905H267.8C267.842 183.989 267.863 184.094 267.863 184.22C267.863 184.346 267.842 184.451 267.8 184.535H266.626V186.165C266.626 186.69 266.705 187.095 266.863 187.378C267.025 187.656 267.254 187.796 267.548 187.796C267.7 187.796 267.776 187.911 267.776 188.142C267.776 188.242 267.75 188.321 267.697 188.378C267.65 188.441 267.582 188.473 267.493 188.473C267.151 188.473 266.863 188.376 266.626 188.181C266.395 187.987 266.225 187.717 266.115 187.37C265.894 187.748 265.624 188.027 265.303 188.205C264.983 188.384 264.66 188.473 264.335 188.473C264.267 188.473 264.211 188.439 264.169 188.37C264.127 188.307 264.106 188.229 264.106 188.134C264.106 188.034 264.13 187.953 264.177 187.89C264.225 187.827 264.295 187.796 264.39 187.796ZM267.551 187.796C267.661 187.796 267.779 187.761 267.905 187.693C268.031 187.625 268.149 187.52 268.259 187.378C268.412 187.168 268.517 186.921 268.574 186.638C268.637 186.354 268.669 186.079 268.669 185.811V184.646C268.716 184.63 268.771 184.617 268.834 184.606C268.897 184.596 268.963 184.59 269.031 184.59C269.152 184.59 269.27 184.609 269.386 184.646V186.465C269.386 186.921 269.459 187.255 269.606 187.465C269.753 187.67 269.984 187.772 270.299 187.772C271.05 187.772 271.425 187.223 271.425 186.126V184.646C271.467 184.63 271.52 184.617 271.583 184.606C271.646 184.596 271.711 184.59 271.78 184.59C271.906 184.59 272.026 184.609 272.142 184.646V186.914C272.142 187.192 272.184 187.41 272.268 187.567C272.357 187.719 272.504 187.796 272.709 187.796C272.798 187.796 272.858 187.832 272.89 187.906C272.921 187.979 272.937 188.058 272.937 188.142C272.937 188.226 272.914 188.302 272.866 188.37C272.824 188.439 272.753 188.473 272.654 188.473C272.15 188.473 271.808 188.252 271.63 187.811C271.483 188.027 271.294 188.192 271.063 188.307C270.832 188.418 270.559 188.473 270.244 188.473C269.577 188.473 269.12 188.189 268.874 187.622C268.79 187.775 268.695 187.903 268.59 188.008C268.448 188.15 268.283 188.263 268.094 188.347C267.91 188.431 267.711 188.473 267.496 188.473C267.422 188.473 267.367 188.436 267.33 188.363C267.288 188.294 267.267 188.218 267.267 188.134C267.267 188.045 267.291 187.966 267.338 187.898C267.38 187.83 267.451 187.796 267.551 187.796ZM272.656 188.473C272.588 188.473 272.533 188.441 272.491 188.378C272.449 188.315 272.428 188.234 272.428 188.134C272.428 187.908 272.522 187.796 272.711 187.796C272.942 187.796 273.147 187.701 273.325 187.512C273.509 187.318 273.653 187.055 273.758 186.725C273.869 186.394 273.924 186.026 273.924 185.622C273.924 185.528 273.919 185.441 273.908 185.362C273.898 185.283 273.884 185.218 273.869 185.165C273.821 185.118 273.769 185.042 273.711 184.937C273.659 184.832 273.611 184.722 273.569 184.606C273.533 184.485 273.514 184.388 273.514 184.315C273.577 184.215 273.677 184.139 273.814 184.086C273.955 184.029 274.11 184.013 274.278 184.039C274.378 184.223 274.459 184.454 274.522 184.732C274.68 184.727 274.892 184.693 275.16 184.63C275.328 184.593 275.462 184.569 275.562 184.559C275.667 184.543 275.756 184.535 275.83 184.535C276.113 184.535 276.336 184.643 276.499 184.858C276.662 185.068 276.743 185.354 276.743 185.717V186.984C276.743 187.273 276.78 187.481 276.853 187.607C276.932 187.733 277.055 187.796 277.223 187.796C277.297 187.796 277.352 187.827 277.389 187.89C277.431 187.953 277.452 188.037 277.452 188.142C277.452 188.226 277.428 188.302 277.381 188.37C277.339 188.439 277.268 188.473 277.168 188.473C276.407 188.473 276.026 188.006 276.026 187.071V185.85C276.026 185.614 276 185.449 275.948 185.354C275.895 185.26 275.801 185.213 275.664 185.213C275.617 185.213 275.564 185.218 275.507 185.228C275.449 185.239 275.347 185.26 275.2 185.291C274.942 185.344 274.748 185.375 274.617 185.386C274.622 185.47 274.625 185.554 274.625 185.638C274.625 186.205 274.543 186.701 274.381 187.126C274.218 187.551 273.987 187.882 273.688 188.118C273.394 188.355 273.05 188.473 272.656 188.473ZM277.17 188.473C277.102 188.473 277.047 188.441 277.005 188.378C276.963 188.315 276.942 188.234 276.942 188.134C276.942 187.908 277.036 187.796 277.225 187.796C277.378 187.796 277.532 187.772 277.69 187.725C277.847 187.672 278.031 187.586 278.241 187.465C278.036 187.108 277.934 186.688 277.934 186.205C277.934 185.879 277.994 185.593 278.115 185.346C278.236 185.094 278.404 184.898 278.619 184.756C278.834 184.609 279.079 184.535 279.352 184.535C279.583 184.535 279.787 184.59 279.966 184.701C280.144 184.806 280.283 184.953 280.383 185.142C280.483 185.331 280.533 185.549 280.533 185.795C280.533 186.131 280.433 186.438 280.234 186.717C280.039 186.995 279.709 187.297 279.241 187.622C279.409 187.743 279.635 187.803 279.919 187.803C280.071 187.803 280.223 187.782 280.375 187.74C280.528 187.698 280.675 187.641 280.816 187.567C280.895 187.625 280.953 187.712 280.99 187.827C281.032 187.937 281.053 188.045 281.053 188.15C280.879 188.25 280.696 188.328 280.501 188.386C280.307 188.444 280.102 188.473 279.887 188.473H279.879C279.627 188.473 279.391 188.431 279.17 188.347C278.95 188.263 278.766 188.147 278.619 188C278.115 188.315 277.632 188.473 277.17 188.473ZM278.619 186.142C278.619 186.557 278.693 186.887 278.84 187.134C279.181 186.898 279.433 186.667 279.596 186.441C279.764 186.215 279.848 186 279.848 185.795C279.848 185.606 279.8 185.459 279.706 185.354C279.617 185.244 279.491 185.189 279.328 185.189C279.123 185.189 278.953 185.281 278.816 185.465C278.685 185.648 278.619 185.874 278.619 186.142Z" fill="#4280EF"/>
<path d="M203.438 203.313C203.438 201.821 204.646 200.613 206.138 200.613H273.863C275.354 200.613 276.562 201.821 276.562 203.313V208.513C276.562 210.004 275.354 211.213 273.862 211.213H206.137C204.646 211.213 203.438 210.004 203.438 208.513V203.313Z" fill="#4280EF"/>
<path d="M222.6 208.936C220.932 208.936 219.577 207.58 219.577 205.913C219.577 204.245 220.932 202.889 222.6 202.889C224.268 202.889 225.624 204.245 225.624 205.913C225.624 207.58 224.268 208.936 222.6 208.936ZM222.6 203.311C221.166 203.311 219.999 204.478 219.999 205.913C219.999 207.347 221.166 208.514 222.6 208.514C224.034 208.514 225.202 207.347 225.202 205.913C225.202 204.478 224.034 203.311 222.6 203.311Z" fill="#ECEFF4"/>
<path d="M222.6 206.759C222.547 206.759 222.493 206.74 222.451 206.697L221.458 205.705C221.377 205.623 221.377 205.488 221.458 205.406C221.54 205.325 221.675 205.325 221.756 205.406L222.6 206.25L223.444 205.406C223.525 205.325 223.66 205.325 223.742 205.406C223.823 205.488 223.823 205.623 223.742 205.705L222.749 206.697C222.707 206.74 222.653 206.759 222.6 206.759Z" fill="#ECEFF4"/>
<path d="M228.24 208.413V204.39H230.892V204.957H228.877V206.112H230.784V206.679H228.877V207.846H230.892V208.413H228.24ZM231.132 208.413L232.153 206.949L231.132 205.491H231.851L232.688 206.712H232.342L233.179 205.491H233.897L232.871 206.949L233.892 208.413H233.174L232.347 207.187H232.682L231.851 208.413H231.132ZM234.314 209.493V205.491H234.897V206.096L234.827 205.956C234.935 205.79 235.079 205.66 235.259 205.567C235.439 205.473 235.644 205.426 235.874 205.426C236.152 205.426 236.4 205.493 236.62 205.626C236.843 205.759 237.017 205.941 237.143 206.172C237.273 206.402 237.338 206.661 237.338 206.949C237.338 207.237 237.273 207.496 237.143 207.727C237.017 207.957 236.845 208.141 236.625 208.278C236.405 208.411 236.155 208.477 235.874 208.477C235.648 208.477 235.441 208.431 235.253 208.337C235.07 208.243 234.928 208.108 234.827 207.932L234.924 207.819V209.493H234.314ZM235.815 207.91C235.988 207.91 236.141 207.869 236.274 207.786C236.407 207.703 236.512 207.59 236.587 207.446C236.666 207.298 236.706 207.133 236.706 206.949C236.706 206.766 236.666 206.602 236.587 206.458C236.512 206.314 236.407 206.2 236.274 206.118C236.141 206.035 235.988 205.993 235.815 205.993C235.646 205.993 235.493 206.035 235.356 206.118C235.223 206.2 235.117 206.314 235.037 206.458C234.962 206.602 234.924 206.766 234.924 206.949C234.924 207.133 234.962 207.298 235.037 207.446C235.117 207.59 235.223 207.703 235.356 207.786C235.493 207.869 235.646 207.91 235.815 207.91ZM237.931 208.413V204.325H238.542V208.413H237.931ZM240.664 208.477C240.384 208.477 240.126 208.411 239.892 208.278C239.662 208.144 239.478 207.963 239.341 207.732C239.205 207.502 239.136 207.241 239.136 206.949C239.136 206.654 239.205 206.393 239.341 206.166C239.478 205.936 239.662 205.756 239.892 205.626C240.123 205.493 240.38 205.426 240.664 205.426C240.952 205.426 241.21 205.493 241.437 205.626C241.667 205.756 241.849 205.936 241.982 206.166C242.119 206.393 242.187 206.654 242.187 206.949C242.187 207.244 242.119 207.507 241.982 207.738C241.845 207.968 241.662 208.15 241.431 208.283C241.201 208.413 240.945 208.477 240.664 208.477ZM240.664 207.91C240.837 207.91 240.99 207.869 241.123 207.786C241.257 207.703 241.361 207.59 241.437 207.446C241.516 207.298 241.555 207.133 241.555 206.949C241.555 206.766 241.516 206.602 241.437 206.458C241.361 206.314 241.257 206.2 241.123 206.118C240.99 206.035 240.837 205.993 240.664 205.993C240.495 205.993 240.342 206.035 240.205 206.118C240.072 206.2 239.966 206.314 239.887 206.458C239.811 206.602 239.773 206.766 239.773 206.949C239.773 207.133 239.811 207.298 239.887 207.446C239.966 207.59 240.072 207.703 240.205 207.786C240.342 207.869 240.495 207.91 240.664 207.91ZM242.783 208.413V205.491H243.366V206.08L243.312 205.993C243.377 205.803 243.481 205.666 243.625 205.583C243.769 205.497 243.942 205.453 244.144 205.453H244.322V206.01H244.068C243.867 206.01 243.703 206.073 243.577 206.199C243.454 206.321 243.393 206.497 243.393 206.728V208.413H242.783ZM246.111 208.477C245.819 208.477 245.56 208.411 245.333 208.278C245.11 208.141 244.936 207.957 244.81 207.727C244.684 207.493 244.621 207.232 244.621 206.944C244.621 206.649 244.684 206.388 244.81 206.161C244.939 205.934 245.112 205.756 245.328 205.626C245.544 205.493 245.789 205.426 246.062 205.426C246.282 205.426 246.478 205.464 246.651 205.54C246.824 205.615 246.97 205.72 247.088 205.853C247.207 205.983 247.297 206.132 247.358 206.301C247.423 206.47 247.456 206.65 247.456 206.841C247.456 206.888 247.454 206.937 247.45 206.987C247.447 207.037 247.439 207.084 247.429 207.127H245.101V206.641H247.083L246.791 206.863C246.827 206.686 246.815 206.53 246.754 206.393C246.696 206.253 246.606 206.143 246.484 206.064C246.365 205.981 246.224 205.939 246.062 205.939C245.9 205.939 245.756 205.981 245.63 206.064C245.504 206.143 245.407 206.258 245.339 206.409C245.27 206.557 245.243 206.737 245.258 206.949C245.24 207.147 245.267 207.32 245.339 207.468C245.414 207.615 245.519 207.73 245.652 207.813C245.789 207.896 245.944 207.937 246.116 207.937C246.293 207.937 246.442 207.898 246.565 207.819C246.691 207.739 246.79 207.637 246.862 207.511L247.358 207.754C247.301 207.891 247.211 208.015 247.088 208.126C246.97 208.234 246.826 208.321 246.656 208.386C246.491 208.447 246.309 208.477 246.111 208.477ZM249.054 208.413V204.39H249.567L251.825 207.505L251.582 207.543V204.39H252.213V208.413H251.7L249.459 205.275L249.692 205.232V208.413H249.054ZM254.396 208.477C254.116 208.477 253.858 208.411 253.624 208.278C253.394 208.144 253.21 207.963 253.073 207.732C252.937 207.502 252.868 207.241 252.868 206.949C252.868 206.654 252.937 206.393 253.073 206.166C253.21 205.936 253.394 205.756 253.624 205.626C253.855 205.493 254.112 205.426 254.396 205.426C254.684 205.426 254.942 205.493 255.169 205.626C255.399 205.756 255.581 205.936 255.714 206.166C255.851 206.393 255.919 206.654 255.919 206.949C255.919 207.244 255.851 207.507 255.714 207.738C255.577 207.968 255.394 208.15 255.163 208.283C254.933 208.413 254.677 208.477 254.396 208.477ZM254.396 207.91C254.569 207.91 254.722 207.869 254.855 207.786C254.989 207.703 255.093 207.59 255.169 207.446C255.248 207.298 255.287 207.133 255.287 206.949C255.287 206.766 255.248 206.602 255.169 206.458C255.093 206.314 254.989 206.2 254.855 206.118C254.722 206.035 254.569 205.993 254.396 205.993C254.227 205.993 254.074 206.035 253.937 206.118C253.804 206.2 253.698 206.314 253.619 206.458C253.543 206.602 253.505 206.766 253.505 206.949C253.505 207.133 253.543 207.298 253.619 207.446C253.698 207.59 253.804 207.703 253.937 207.786C254.074 207.869 254.227 207.91 254.396 207.91ZM257.17 208.413L256.165 205.491H256.813L257.58 207.819H257.353L258.136 205.491H258.692L259.47 207.819H259.243L260.015 205.491H260.663L259.654 208.413H259.103L258.314 206.031H258.514L257.726 208.413H257.17Z" fill="#ECEFF4"/>
<g opacity="0.05">
<rect x="-16.875" y="382.469" width="102.79" height="102.79" transform="rotate(-90 -16.875 382.469)" stroke="#141414" stroke-width="2.33384"/>
<path d="M-16.875 280.284L-16.875 177.494L85.9151 177.494L85.9151 280.284L-16.875 280.284Z" stroke="#141414" stroke-width="2.33384"/>
<rect x="-16.875" y="178.098" width="102.79" height="102.79" transform="rotate(-90 -16.875 178.098)" stroke="#141414" stroke-width="2.33384"/>
<path d="M-16.875 75.9131L-16.875 -26.877L85.9151 -26.877L85.9151 75.9131L-16.875 75.9131Z" stroke="#141414" stroke-width="2.33384"/>
<rect x="85.3103" y="382.469" width="102.79" height="102.79" transform="rotate(-90 85.3103 382.469)" stroke="#141414" stroke-width="2.33384"/>
<path d="M85.3103 280.284L85.3103 177.494L188.1 177.494L188.1 280.284L85.3103 280.284Z" stroke="#141414" stroke-width="2.33384"/>
<rect x="85.3103" y="178.098" width="102.79" height="102.79" transform="rotate(-90 85.3103 178.098)" stroke="#141414" stroke-width="2.33384"/>
<path d="M85.3103 75.9128L85.3103 -26.8772L188.1 -26.8772L188.1 75.9128L85.3103 75.9128Z" stroke="#141414" stroke-width="2.33384"/>
<rect x="187.495" y="382.469" width="102.79" height="102.79" transform="rotate(-90 187.495 382.469)" stroke="#141414" stroke-width="2.33384"/>
<path d="M187.495 280.284L187.495 177.494L290.285 177.494L290.285 280.284L187.495 280.284Z" stroke="#141414" stroke-width="2.33384"/>
<rect x="187.495" y="178.098" width="102.79" height="102.79" transform="rotate(-90 187.495 178.098)" stroke="#141414" stroke-width="2.33384"/>
<path d="M187.495 75.9131L187.495 -26.877L290.285 -26.877L290.285 75.9131L187.495 75.9131Z" stroke="#141414" stroke-width="2.33384"/>
<rect x="289.681" y="382.469" width="102.79" height="102.79" transform="rotate(-90 289.681 382.469)" stroke="#141414" stroke-width="2.33384"/>
<path d="M289.681 280.284L289.681 177.494L392.471 177.494L392.471 280.284L289.681 280.284Z" stroke="#141414" stroke-width="2.33384"/>
<path d="M289.681 75.9128L289.681 -26.8772L392.471 -26.8772L392.471 75.9128L289.681 75.9128Z" stroke="#141414" stroke-width="2.33384"/>
<rect x="391.867" y="382.469" width="102.79" height="102.79" transform="rotate(-90 391.867 382.469)" stroke="#141414" stroke-width="2.33384"/>
<path d="M391.867 280.284L391.867 177.494L494.657 177.494L494.657 280.284L391.867 280.284Z" stroke="#141414" stroke-width="2.33384"/>
<rect x="391.867" y="178.098" width="102.79" height="102.79" transform="rotate(-90 391.867 178.098)" stroke="#141414" stroke-width="2.33384"/>
<path d="M391.867 75.9128L391.867 -26.8772L494.657 -26.8772L494.657 75.9128L391.867 75.9128Z" stroke="#141414" stroke-width="2.33384"/>
</g>
<path d="M62.9377 -171.71L62.9377 -2.3996C62.9377 35.6349 32.1046 66.4679 -5.92993 66.4679V66.4679" stroke="#4280EF" stroke-width="10.2522" stroke-linecap="round"/>
<path d="M40.2554 -139.31L40.2554 -2.67496C40.2554 22.2297 20.0662 42.4189 -4.83851 42.4189H-6.74951" stroke="#E54236" stroke-width="10.2522" stroke-linecap="round"/>
<path d="M86.9865 -149.228L86.9865 -2.9461C86.9865 48.8231 45.0192 90.7905 -6.75 90.7905V90.7905" stroke="#F5B704" stroke-width="10.2522" stroke-linecap="round"/>
<rect x="0.375" y="0.415283" width="479.375" height="39.8222" fill="url(#paint0_linear_4865_1694)"/>
<path d="M415.924 483.791L415.924 314.481C415.924 276.446 446.757 245.613 484.791 245.613V245.613" stroke="#4280EF" stroke-width="10.2522" stroke-linecap="round"/>
<path d="M438.606 451.391L438.606 314.756C438.606 289.851 458.795 269.662 483.7 269.662H485.611" stroke="#E54236" stroke-width="10.2522" stroke-linecap="round"/>
<path d="M391.875 461.309L391.875 315.027C391.875 263.258 433.842 221.291 485.611 221.291V221.291" stroke="#F5B704" stroke-width="10.2522" stroke-linecap="round"/>
<circle cx="6.67969" cy="6.67969" r="6.67969" transform="matrix(-1 0 0 1 381.188 71.9844)" fill="#4280EF"/>
<circle cx="3.25781" cy="3.25781" r="3.25781" transform="matrix(-1 0 0 1 369.891 65.4688)" fill="#F5B704"/>
<circle cx="1.78125" cy="1.78125" r="1.78125" transform="matrix(-1 0 0 1 377.297 64.8125)" fill="#E7427E"/>
<circle cx="2.32031" cy="2.32031" r="2.32031" transform="matrix(-1 0 0 1 388.172 81.2656)" fill="#00A86B"/>
<circle cx="6.51562" cy="6.51562" r="6.51562" transform="matrix(1 0 0 -1 76.0312 192.781)" fill="#F5B704"/>
<circle cx="3.5625" cy="3.5625" r="3.5625" transform="matrix(1 0 0 -1 72.6562 204.125)" fill="#E7427E"/>
<circle cx="4.64062" cy="4.64062" r="4.64062" transform="matrix(1 0 0 -1 60.2812 190.906)" fill="#00A86B"/>
</g>
<defs>
<linearGradient id="paint0_linear_4865_1694" x1="0.375" y1="0.415283" x2="0.375" y2="40.2375" gradientUnits="userSpaceOnUse">
<stop stop-color="#ECEFF4"/>
<stop offset="1" stop-color="#ECEFF4" stop-opacity="0"/>
</linearGradient>
<clipPath id="clip0_4865_1694">
<rect width="480" height="320" fill="white" transform="translate(0 0.6875)"/>
</clipPath>
</defs>
</svg>
