<svg width="111" height="21" viewBox="0 0 111 21" fill="none" xmlns="http://www.w3.org/2000/svg">
<g clip-path="url(#clip0_19_1406)">
<path d="M6.06717 5.70996H0.540283V0.689087H17.6726V5.70996H12.1458V20.2663H6.06717V5.70996Z" fill="white"/>
<path d="M18.6093 0.689087H35.242V5.70996H24.6878V8.14804H35.242V12.8073H24.6878V15.2558H35.242V20.2663H18.6093V0.689087Z" fill="white"/>
<path d="M36.2619 0.689087H46.2333C52.8114 0.689087 55.1323 5.51368 55.1323 10.4519C55.1323 16.4645 51.9267 20.2663 45.0467 20.2663H36.2619V0.689087ZM42.3405 15.2558H44.7136C48.5023 15.2558 49.054 12.2081 49.054 10.3692C49.054 9.13983 48.6688 5.70996 44.2765 5.70996H42.3405V15.2558Z" fill="white"/>
<path d="M63.865 12.7246L62.0124 9.67702L60.2012 12.7246H55.7468L59.9829 6.55704L55.9028 0.647705H60.3573L62.0124 3.57138L63.7089 0.647705H68.1639L64.0942 6.55704L68.32 12.7246H63.865Z" fill="white"/>
<path d="M71.9321 0.76123H73.2537H74.5967V20.2661H73.2745H71.9321V0.76123Z" fill="white"/>
<path d="M84.0888 3.09603H77.438V1.92863V0.76123H93.3944V1.92863V3.09603H86.7534V20.2661H85.4214H84.0888V3.09603Z" fill="white"/>
<path d="M107.841 6.41231C107.727 5.18293 107.237 4.2325 106.374 3.56099C105.51 2.88947 104.354 2.55888 102.907 2.55888C101.409 2.55888 100.274 2.84815 99.4935 3.41635C98.7126 3.98455 98.3279 4.8317 98.3279 5.93713C98.3279 6.69127 98.5882 7.24913 99.1082 7.62107C99.6288 7.99295 100.659 8.36489 102.22 8.72647L105.645 9.53229C107.477 9.96622 108.788 10.6067 109.579 11.4539C110.37 12.2907 110.755 13.4891 110.755 15.0284C110.755 16.795 110.079 18.1966 108.726 19.2331C107.373 20.2696 105.541 20.7862 103.23 20.7827C100.659 20.7827 98.6537 20.187 97.2142 18.9955C95.809 17.8177 95.1045 16.2061 95.1013 14.1606V14.0263H97.547C97.5885 15.4416 98.1091 16.5367 99.0979 17.3012C100.087 18.0657 101.471 18.4583 103.23 18.4583C104.864 18.4583 106.103 18.1793 106.946 17.6215C107.789 17.0636 108.216 16.2474 108.216 15.1627C108.216 14.2226 107.935 13.5304 107.383 13.0758C106.831 12.6213 105.718 12.2183 104.031 11.8154L100.607 11.0096C98.8796 10.6067 97.6409 10.0385 96.902 9.31532C96.1626 8.59217 95.7986 7.59007 95.7986 6.2987C95.7986 4.42879 96.4371 2.94801 97.7135 1.85637C98.9904 0.764732 100.718 0.217188 102.897 0.213745C105.104 0.213745 106.862 0.761289 108.174 1.85637C109.486 2.95146 110.183 4.47011 110.277 6.39169H107.841V6.41231Z" fill="white"/>
</g>
<defs>
<clipPath id="clip0_19_1406">
<rect width="110.306" height="20.7043" fill="white" transform="translate(0.5 0.147827)"/>
</clipPath>
</defs>
</svg>
